800.ufo
<glyph name="exclam" format="2">
  <advance width="356"/>
  <unicode hex="0021"/>
  <outline>
    <contour>
      <point x="72" y="700" type="line"/>
      <point x="286" y="700" type="line"/>
      <point x="249" y="240" type="line"/>
      <point x="108" y="240" type="line"/>
    </contour>
    <contour>
      <point x="72" y="68" type="curve" smooth="yes"/>
      <point x="72" y="125"/>
      <point x="116" y="164"/>
      <point x="178" y="164" type="curve" smooth="yes"/>
      <point x="240" y="164"/>
      <point x="284" y="125"/>
      <point x="284" y="68" type="curve" smooth="yes"/>
      <point x="284" y="11"/>
      <point x="240" y="-27"/>
      <point x="178" y="-27" type="curve" smooth="yes"/>
      <point x="116" y="-27"/>
      <point x="72" y="11"/>
    </contour>
  </outline>
</glyph>
<glyph name="numbersign" format="2">
  <advance width="686"/>
  <unicode hex="0023"/>
  <outline>
    <contour>
      <point x="75" y="404" type="line"/>
      <point x="75" y="542" type="line"/>
      <point x="651" y="542" type="line"/>
      <point x="651" y="404" type="line"/>
      <point x="492" y="404" type="line" smooth="yes"/>
      <point x="458" y="412" type="line" smooth="yes"/>
      <point x="250" y="412" type="line" smooth="yes"/>
      <point x="220" y="404" type="line" smooth="yes"/>
    </contour>
    <contour>
      <point x="35" y="164" type="line"/>
      <point x="35" y="302" type="line"/>
      <point x="179" y="302" type="line" smooth="yes"/>
      <point x="216" y="294" type="line" smooth="yes"/>
      <point x="455" y="294" type="line" smooth="yes"/>
      <point x="488" y="302" type="line" smooth="yes"/>
      <point x="611" y="302" type="line"/>
      <point x="611" y="164" type="line"/>
    </contour>
    <contour>
      <point x="480" y="700" type="line"/>
      <point x="628" y="700" type="line"/>
      <point x="458" y="0" type="line"/>
      <point x="310" y="0" type="line"/>
      <point x="364" y="223" type="line" smooth="yes"/>
      <point x="378" y="251" type="line" smooth="yes"/>
      <point x="428" y="454" type="line" smooth="yes"/>
      <point x="428" y="490" type="line" smooth="yes"/>
    </contour>
    <contour>
      <point x="228" y="700" type="line"/>
      <point x="377" y="700" type="line"/>
      <point x="326" y="490" type="line" smooth="yes"/>
      <point x="308" y="453" type="line" smooth="yes"/>
      <point x="260" y="254" type="line" smooth="yes"/>
      <point x="262" y="226" type="line" smooth="yes"/>
      <point x="207" y="0" type="line"/>
      <point x="58" y="0" type="line"/>
    </contour>
  </outline>
</glyph>
<glyph name="dollar" format="2">
  <advance width="634"/>
  <unicode hex="0024"/>
  <outline>
    <contour>
      <point x="263" y="818" type="line"/>
      <point x="402" y="818" type="line"/>
      <point x="394" y="628" type="line"/>
      <point x="271" y="628" type="line"/>
    </contour>
    <contour>
      <point x="271" y="66" type="line"/>
      <point x="393" y="66" type="line"/>
      <point x="402" y="-112" type="line"/>
      <point x="263" y="-112" type="line"/>
    </contour>
    <contour>
      <point x="452" y="482" type="line"/>
      <point x="422" y="540"/>
      <point x="380" y="572"/>
      <point x="336" y="572" type="curve" smooth="yes"/>
      <point x="288" y="572"/>
      <point x="268" y="546"/>
      <point x="268" y="518" type="curve" smooth="yes"/>
      <point x="268" y="464"/>
      <point x="343" y="450"/>
      <point x="428" y="419" type="curve" smooth="yes"/>
      <point x="530" y="383"/>
      <point x="606" y="317"/>
      <point x="606" y="198" type="curve" smooth="yes"/>
      <point x="606" y="62"/>
      <point x="494" y="-10"/>
      <point x="322" y="-10" type="curve" smooth="yes"/>
      <point x="190" y="-10"/>
      <point x="70" y="72"/>
      <point x="26" y="162" type="curve"/>
      <point x="160" y="258" type="line"/>
      <point x="210" y="178"/>
      <point x="256" y="142"/>
      <point x="326" y="142" type="curve" smooth="yes"/>
      <point x="378" y="142"/>
      <point x="401" y="160"/>
      <point x="401" y="198" type="curve" smooth="yes"/>
      <point x="401" y="244"/>
      <point x="344" y="260"/>
      <point x="262" y="292" type="curve" smooth="yes"/>
      <point x="193" y="318"/>
      <point x="69" y="378"/>
      <point x="69" y="516" type="curve" smooth="yes"/>
      <point x="69" y="620"/>
      <point x="176" y="710"/>
      <point x="330" y="710" type="curve" smooth="yes"/>
      <point x="484" y="710"/>
      <point x="550" y="639"/>
      <point x="596" y="563" type="curve"/>
    </contour>
  </outline>
</glyph>
<glyph name="ampersand" format="2">
  <advance width="775"/>
  <unicode hex="0026"/>
  <outline>
    <contour>
      <point x="223" y="368" type="line" smooth="yes"/>
      <point x="172" y="423"/>
      <point x="129" y="471"/>
      <point x="129" y="540" type="curve" smooth="yes"/>
      <point x="129" y="626"/>
      <point x="214" y="719"/>
      <point x="358" y="719" type="curve" smooth="yes"/>
      <point x="496" y="719"/>
      <point x="570" y="630"/>
      <point x="570" y="546" type="curve" smooth="yes"/>
      <point x="570" y="446"/>
      <point x="508" y="416"/>
      <point x="390" y="336" type="curve" smooth="yes"/>
      <point x="320" y="289"/>
      <point x="221" y="281"/>
      <point x="221" y="205" type="curve" smooth="yes"/>
      <point x="221" y="165"/>
      <point x="250" y="130"/>
      <point x="314" y="130" type="curve" smooth="yes"/>
      <point x="424" y="130"/>
      <point x="534" y="226"/>
      <point x="610" y="348" type="curve"/>
      <point x="722" y="259" type="line"/>
      <point x="640" y="135"/>
      <point x="494" y="-14"/>
      <point x="290" y="-14" type="curve" smooth="yes"/>
      <point x="150" y="-14"/>
      <point x="40" y="61"/>
      <point x="40" y="188" type="curve" smooth="yes"/>
      <point x="40" y="352"/>
      <point x="232" y="389"/>
      <point x="303" y="421" type="curve" smooth="yes"/>
      <point x="378" y="455"/>
      <point x="416" y="494"/>
      <point x="416" y="528" type="curve" smooth="yes"/>
      <point x="416" y="554"/>
      <point x="392" y="583"/>
      <point x="356" y="583" type="curve" smooth="yes"/>
      <point x="313" y="583"/>
      <point x="294" y="554"/>
      <point x="294" y="528" type="curve" smooth="yes"/>
      <point x="294" y="490"/>
      <point x="332" y="454"/>
      <point x="390" y="392" type="curve" smooth="yes"/>
      <point x="760" y="0" type="line"/>
      <point x="563" y="0" type="line"/>
    </contour>
  </outline>
</glyph>
<glyph name="parenleft" format="2">
  <advance width="350"/>
  <unicode hex="0028"/>
  <outline>
    <contour>
      <point x="184" y="780" type="curve"/>
      <point x="341" y="780" type="line"/>
      <point x="271" y="630"/>
      <point x="229" y="460"/>
      <point x="229" y="290" type="curve" smooth="yes"/>
      <point x="229" y="120"/>
      <point x="271" y="-50"/>
      <point x="341" y="-200" type="curve"/>
      <point x="184" y="-200" type="line"/>
      <point x="104" y="-50"/>
      <point x="62" y="120"/>
      <point x="62" y="290" type="curve" smooth="yes"/>
      <point x="62" y="460"/>
      <point x="104" y="630"/>
    </contour>
  </outline>
</glyph>
<glyph name="parenright" format="2">
  <advance width="350"/>
  <unicode hex="0029"/>
  <outline>
    <contour>
      <point x="166" y="-200" type="curve"/>
      <point x="10" y="-200" type="line"/>
      <point x="80" y="-50"/>
      <point x="122" y="120"/>
      <point x="122" y="290" type="curve" smooth="yes"/>
      <point x="122" y="460"/>
      <point x="80" y="630"/>
      <point x="10" y="780" type="curve"/>
      <point x="166" y="780" type="line"/>
      <point x="246" y="630"/>
      <point x="289" y="460"/>
      <point x="289" y="290" type="curve" smooth="yes"/>
      <point x="289" y="120"/>
      <point x="246" y="-50"/>
    </contour>
  </outline>
</glyph>
<glyph name="asterisk" format="2">
  <advance width="592"/>
  <unicode hex="002A"/>
  <outline>
    <contour>
      <point x="506" y="604" type="line"/>
      <point x="556" y="453" type="line"/>
      <point x="309" y="412" type="line"/>
      <point x="283" y="492" type="line"/>
    </contour>
    <contour>
      <point x="506" y="299" type="line"/>
      <point x="377" y="205" type="line"/>
      <point x="263" y="428" type="line"/>
      <point x="329" y="476" type="line"/>
    </contour>
    <contour>
      <point x="215" y="205" type="line"/>
      <point x="86" y="299" type="line"/>
      <point x="263" y="476" type="line"/>
      <point x="329" y="428" type="line"/>
    </contour>
    <contour>
      <point x="36" y="453" type="line"/>
      <point x="86" y="604" type="line"/>
      <point x="309" y="492" type="line"/>
      <point x="283" y="412" type="line"/>
    </contour>
    <contour>
      <point x="216" y="700" type="line"/>
      <point x="376" y="700" type="line"/>
      <point x="338" y="452" type="line"/>
      <point x="254" y="452" type="line"/>
    </contour>
  </outline>
</glyph>
<glyph name="plus" format="2">
  <advance width="692"/>
  <unicode hex="002B"/>
  <outline>
    <contour>
      <point x="65" y="190" type="line"/>
      <point x="65" y="356" type="line"/>
      <point x="627" y="356" type="line"/>
      <point x="627" y="190" type="line"/>
    </contour>
    <contour>
      <point x="257" y="553" type="line"/>
      <point x="436" y="553" type="line"/>
      <point x="436" y="-6" type="line"/>
      <point x="257" y="-6" type="line"/>
    </contour>
  </outline>
</glyph>
<glyph name="comma" format="2">
  <advance width="328"/>
  <unicode hex="002C"/>
  <outline>
    <contour>
      <point x="112" y="110" type="line"/>
      <point x="285" y="77" type="line"/>
      <point x="154" y="-173" type="line"/>
      <point x="24" y="-149" type="line"/>
    </contour>
  </outline>
</glyph>
<glyph name="hyphen" format="2">
  <advance width="226"/>
  <unicode hex="002D"/>
  <outline>
    <contour>
      <point x="5" y="164" type="line"/>
      <point x="5" y="312" type="line"/>
      <point x="222" y="312" type="line"/>
      <point x="222" y="164" type="line"/>
    </contour>
  </outline>
</glyph>
<glyph name="period" format="2">
  <advance width="329"/>
  <unicode hex="002E"/>
  <outline>
    <contour>
      <point x="58" y="76" type="curve" smooth="yes"/>
      <point x="58" y="133"/>
      <point x="102" y="180"/>
      <point x="164" y="180" type="curve" smooth="yes"/>
      <point x="226" y="180"/>
      <point x="271" y="133"/>
      <point x="271" y="76" type="curve" smooth="yes"/>
      <point x="271" y="19"/>
      <point x="226" y="-27"/>
      <point x="164" y="-27" type="curve" smooth="yes"/>
      <point x="102" y="-27"/>
      <point x="58" y="19"/>
    </contour>
  </outline>
</glyph>
<glyph name="zero" format="2">
  <advance width="681"/>
  <unicode hex="0030"/>
  <outline>
    <contour>
      <point x="226" y="350" type="curve" smooth="yes"/>
      <point x="226" y="228"/>
      <point x="272" y="151"/>
      <point x="340" y="151" type="curve" smooth="yes"/>
      <point x="408" y="151"/>
      <point x="454" y="228"/>
      <point x="454" y="350" type="curve" smooth="yes"/>
      <point x="454" y="472"/>
      <point x="408" y="549"/>
      <point x="340" y="549" type="curve" smooth="yes"/>
      <point x="272" y="549"/>
      <point x="226" y="472"/>
    </contour>
    <contour>
      <point x="40" y="350" type="curve" smooth="yes"/>
      <point x="40" y="584"/>
      <point x="162" y="714"/>
      <point x="340" y="714" type="curve" smooth="yes"/>
      <point x="526" y="714"/>
      <point x="641" y="584"/>
      <point x="641" y="350" type="curve" smooth="yes"/>
      <point x="641" y="116"/>
      <point x="526" y="-14"/>
      <point x="340" y="-14" type="curve" smooth="yes"/>
      <point x="162" y="-14"/>
      <point x="40" y="116"/>
    </contour>
  </outline>
</glyph>
<glyph name="one" format="2">
  <advance width="527"/>
  <unicode hex="0031"/>
  <outline>
    <contour>
      <point x="64" y="478" type="line"/>
      <point x="64" y="644" type="line"/>
      <point x="430" y="714" type="line"/>
      <point x="430" y="0" type="line"/>
      <point x="243" y="0" type="line"/>
      <point x="243" y="520" type="line"/>
    </contour>
  </outline>
</glyph>
<glyph name="two" format="2">
  <advance width="682"/>
  <unicode hex="0032"/>
  <outline>
    <contour>
      <point x="20" y="0" type="line"/>
      <point x="326" y="314" type="line" smooth="yes"/>
      <point x="385" y="378"/>
      <point x="422" y="417"/>
      <point x="422" y="472" type="curve" smooth="yes"/>
      <point x="422" y="512"/>
      <point x="396" y="550"/>
      <point x="338" y="550" type="curve" smooth="yes"/>
      <point x="280" y="550"/>
      <point x="242" y="502"/>
      <point x="242" y="436" type="curve"/>
      <point x="52" y="436" type="line"/>
      <point x="52" y="585"/>
      <point x="150" y="715"/>
      <point x="344" y="715" type="curve" smooth="yes"/>
      <point x="523" y="715"/>
      <point x="623" y="598"/>
      <point x="623" y="486" type="curve" smooth="yes"/>
      <point x="623" y="410"/>
      <point x="582" y="349"/>
      <point x="520" y="299" type="curve" smooth="yes"/>
      <point x="376" y="178" type="line"/>
      <point x="644" y="178" type="line"/>
      <point x="644" y="0" type="line"/>
    </contour>
  </outline>
</glyph>
<glyph name="four" format="2">
  <advance width="733"/>
  <unicode hex="0034"/>
  <outline>
    <contour>
      <point x="12" y="120" type="line"/>
      <point x="424" y="700" type="line"/>
      <point x="577" y="700" type="line"/>
      <point x="577" y="0" type="line"/>
      <point x="374" y="0" type="line"/>
      <point x="374" y="176" type="line"/>
      <point x="398" y="187" type="line"/>
      <point x="398" y="438" type="line"/>
      <point x="262" y="256" type="line"/>
      <point x="527" y="256" type="line"/>
      <point x="544" y="284" type="line"/>
      <point x="687" y="284" type="line"/>
      <point x="687" y="120" type="line"/>
    </contour>
  </outline>
</glyph>
<glyph name="six" format="2">
  <advance width="697"/>
  <unicode hex="0036"/>
  <outline>
    <contour>
      <point x="243" y="250" type="curve" smooth="yes"/>
      <point x="243" y="186"/>
      <point x="289" y="146"/>
      <point x="349" y="146" type="curve" smooth="yes"/>
      <point x="409" y="146"/>
      <point x="454" y="186"/>
      <point x="454" y="250" type="curve" smooth="yes"/>
      <point x="454" y="314"/>
      <point x="409" y="356"/>
      <point x="349" y="356" type="curve" smooth="yes"/>
      <point x="289" y="356"/>
      <point x="243" y="314"/>
    </contour>
    <contour>
      <point x="334" y="696" type="line"/>
      <point x="581" y="696" type="line"/>
      <point x="352" y="454" type="line"/>
      <point x="308" y="433" type="line"/>
      <point x="349" y="470"/>
      <point x="376" y="478"/>
      <point x="428" y="478" type="curve" smooth="yes"/>
      <point x="530" y="478"/>
      <point x="648" y="396"/>
      <point x="648" y="250" type="curve" smooth="yes"/>
      <point x="648" y="70"/>
      <point x="513" y="-18"/>
      <point x="349" y="-18" type="curve" smooth="yes"/>
      <point x="185" y="-18"/>
      <point x="50" y="70"/>
      <point x="50" y="250" type="curve" smooth="yes"/>
      <point x="50" y="332"/>
      <point x="91" y="398"/>
      <point x="143" y="460" type="curve" smooth="yes"/>
    </contour>
  </outline>
</glyph>
<glyph name="seven" format="2">
  <advance width="626"/>
  <unicode hex="0037"/>
  <outline>
    <contour>
      <point x="30" y="518" type="line"/>
      <point x="30" y="700" type="line"/>
      <point x="626" y="700" type="line"/>
      <point x="286" y="0" type="line"/>
      <point x="76" y="0" type="line"/>
      <point x="341" y="518" type="line"/>
    </contour>
  </outline>
</glyph>
<glyph name="eight" format="2">
  <advance width="651"/>
  <unicode hex="0038"/>
  <outline>
    <contour>
      <point x="76" y="531" type="curve" smooth="yes"/>
      <point x="76" y="655"/>
      <point x="192" y="718"/>
      <point x="326" y="718" type="curve" smooth="yes"/>
      <point x="460" y="718"/>
      <point x="576" y="655"/>
      <point x="576" y="531" type="curve" smooth="yes"/>
      <point x="576" y="397"/>
      <point x="441" y="338"/>
      <point x="326" y="338" type="curve" smooth="yes"/>
      <point x="211" y="338"/>
      <point x="76" y="397"/>
    </contour>
    <contour>
      <point x="258" y="513" type="curve" smooth="yes"/>
      <point x="258" y="471"/>
      <point x="286" y="442"/>
      <point x="326" y="442" type="curve" smooth="yes"/>
      <point x="366" y="442"/>
      <point x="393" y="471"/>
      <point x="393" y="513" type="curve" smooth="yes"/>
      <point x="393" y="555"/>
      <point x="366" y="582"/>
      <point x="326" y="582" type="curve" smooth="yes"/>
      <point x="286" y="582"/>
      <point x="258" y="555"/>
    </contour>
    <contour>
      <point x="51" y="190" type="curve" smooth="yes"/>
      <point x="51" y="344"/>
      <point x="211" y="398"/>
      <point x="326" y="398" type="curve" smooth="yes"/>
      <point x="441" y="398"/>
      <point x="600" y="344"/>
      <point x="600" y="190" type="curve" smooth="yes"/>
      <point x="600" y="56"/>
      <point x="468" y="-18"/>
      <point x="326" y="-18" type="curve" smooth="yes"/>
      <point x="184" y="-18"/>
      <point x="51" y="56"/>
    </contour>
    <contour>
      <point x="246" y="220" type="curve" smooth="yes"/>
      <point x="246" y="166"/>
      <point x="280" y="138"/>
      <point x="326" y="138" type="curve" smooth="yes"/>
      <point x="372" y="138"/>
      <point x="406" y="166"/>
      <point x="406" y="220" type="curve" smooth="yes"/>
      <point x="406" y="264"/>
      <point x="372" y="298"/>
      <point x="326" y="298" type="curve" smooth="yes"/>
      <point x="280" y="298"/>
      <point x="246" y="264"/>
    </contour>
  </outline>
</glyph>
<glyph name="nine" format="2">
  <advance width="697"/>
  <unicode hex="0039"/>
  <outline>
    <contour>
      <point x="454" y="450" type="curve" smooth="yes"/>
      <point x="454" y="514"/>
      <point x="409" y="554"/>
      <point x="349" y="554" type="curve" smooth="yes"/>
      <point x="289" y="554"/>
      <point x="243" y="514"/>
      <point x="243" y="450" type="curve" smooth="yes"/>
      <point x="243" y="386"/>
      <point x="289" y="344"/>
      <point x="349" y="344" type="curve" smooth="yes"/>
      <point x="409" y="344"/>
      <point x="454" y="386"/>
    </contour>
    <contour>
      <point x="364" y="4" type="line"/>
      <point x="117" y="4" type="line"/>
      <point x="346" y="246" type="line"/>
      <point x="389" y="267" type="line"/>
      <point x="348" y="230"/>
      <point x="321" y="222"/>
      <point x="269" y="222" type="curve" smooth="yes"/>
      <point x="167" y="222"/>
      <point x="50" y="304"/>
      <point x="50" y="450" type="curve" smooth="yes"/>
      <point x="50" y="630"/>
      <point x="185" y="718"/>
      <point x="349" y="718" type="curve" smooth="yes"/>
      <point x="513" y="718"/>
      <point x="648" y="630"/>
      <point x="648" y="450" type="curve" smooth="yes"/>
      <point x="648" y="368"/>
      <point x="607" y="302"/>
      <point x="555" y="240" type="curve" smooth="yes"/>
    </contour>
  </outline>
</glyph>
<glyph name="colon" format="2">
  <advance width="329"/>
  <unicode hex="003A"/>
  <outline>
    <contour>
      <point x="58" y="76" type="curve" smooth="yes"/>
      <point x="58" y="133"/>
      <point x="102" y="180"/>
      <point x="164" y="180" type="curve" smooth="yes"/>
      <point x="226" y="180"/>
      <point x="271" y="133"/>
      <point x="271" y="76" type="curve" smooth="yes"/>
      <point x="271" y="19"/>
      <point x="226" y="-27"/>
      <point x="164" y="-27" type="curve" smooth="yes"/>
      <point x="102" y="-27"/>
      <point x="58" y="19"/>
    </contour>
    <contour>
      <point x="58" y="448" type="curve" smooth="yes"/>
      <point x="58" y="505"/>
      <point x="102" y="552"/>
      <point x="164" y="552" type="curve" smooth="yes"/>
      <point x="226" y="552"/>
      <point x="271" y="505"/>
      <point x="271" y="448" type="curve" smooth="yes"/>
      <point x="271" y="391"/>
      <point x="226" y="344"/>
      <point x="164" y="344" type="curve" smooth="yes"/>
      <point x="102" y="344"/>
      <point x="58" y="391"/>
    </contour>
  </outline>
</glyph>
<glyph name="semicolon" format="2">
  <advance width="412"/>
  <unicode hex="003B"/>
  <outline>
    <contour>
      <point x="117" y="440" type="curve" smooth="yes"/>
      <point x="117" y="497"/>
      <point x="161" y="544"/>
      <point x="223" y="544" type="curve" smooth="yes"/>
      <point x="285" y="544"/>
      <point x="330" y="497"/>
      <point x="330" y="440" type="curve" smooth="yes"/>
      <point x="330" y="383"/>
      <point x="285" y="336"/>
      <point x="223" y="336" type="curve" smooth="yes"/>
      <point x="161" y="336"/>
      <point x="117" y="383"/>
    </contour>
    <contour>
      <point x="140" y="110" type="line"/>
      <point x="314" y="77" type="line"/>
      <point x="183" y="-173" type="line"/>
      <point x="52" y="-149" type="line"/>
    </contour>
  </outline>
</glyph>
<glyph name="less" format="2">
  <advance width="640"/>
  <unicode hex="003C"/>
  <outline>
    <contour>
      <point x="306" y="270" type="line"/>
      <point x="575" y="164" type="line"/>
      <point x="575" y="-6" type="line"/>
      <point x="65" y="206" type="line"/>
      <point x="65" y="324" type="line"/>
      <point x="575" y="536" type="line"/>
      <point x="575" y="367" type="line"/>
    </contour>
  </outline>
</glyph>
<glyph name="equal" format="2">
  <advance width="629"/>
  <unicode hex="003D"/>
  <outline>
    <contour>
      <point x="53" y="67" type="line"/>
      <point x="53" y="215" type="line"/>
      <point x="577" y="215" type="line"/>
      <point x="577" y="67" type="line"/>
    </contour>
    <contour>
      <point x="53" y="290" type="line"/>
      <point x="53" y="438" type="line"/>
      <point x="577" y="438" type="line"/>
      <point x="577" y="290" type="line"/>
    </contour>
  </outline>
</glyph>
<glyph name="greater" format="2">
  <advance width="640"/>
  <unicode hex="003E"/>
  <outline>
    <contour>
      <point x="334" y="262" type="line"/>
      <point x="65" y="367" type="line"/>
      <point x="65" y="536" type="line"/>
      <point x="575" y="324" type="line"/>
      <point x="575" y="206" type="line"/>
      <point x="65" y="-6" type="line"/>
      <point x="65" y="164" type="line"/>
    </contour>
  </outline>
</glyph>
<glyph name="question" format="2">
  <advance width="648"/>
  <unicode hex="003F"/>
  <outline>
    <contour>
      <point x="422" y="500" type="curve" smooth="yes"/>
      <point x="422" y="550"/>
      <point x="386" y="578"/>
      <point x="320" y="578" type="curve" smooth="yes"/>
      <point x="261" y="578"/>
      <point x="197" y="548"/>
      <point x="158" y="490" type="curve"/>
      <point x="44" y="588" type="line"/>
      <point x="122" y="674"/>
      <point x="211" y="722"/>
      <point x="330" y="722" type="curve" smooth="yes"/>
      <point x="463" y="722"/>
      <point x="596" y="644"/>
      <point x="596" y="500" type="curve" smooth="yes"/>
      <point x="596" y="376"/>
      <point x="487" y="306"/>
      <point x="381" y="284" type="curve"/>
      <point x="377" y="210" type="line"/>
      <point x="236" y="210" type="line"/>
      <point x="216" y="390" type="line"/>
      <point x="250" y="390" type="line" smooth="yes"/>
      <point x="370" y="390"/>
      <point x="422" y="456"/>
    </contour>
    <contour>
      <point x="200" y="64" type="curve" smooth="yes"/>
      <point x="200" y="112"/>
      <point x="245" y="156"/>
      <point x="307" y="156" type="curve" smooth="yes"/>
      <point x="369" y="156"/>
      <point x="413" y="112"/>
      <point x="413" y="64" type="curve" smooth="yes"/>
      <point x="413" y="16"/>
      <point x="369" y="-27"/>
      <point x="307" y="-27" type="curve" smooth="yes"/>
      <point x="245" y="-27"/>
      <point x="200" y="16"/>
    </contour>
  </outline>
</glyph>
<glyph name="at" format="2">
  <advance width="770"/>
  <unicode hex="0040"/>
  <outline>
    <contour>
      <point x="331" y="320" type="curve" smooth="yes"/>
      <point x="331" y="280"/>
      <point x="344" y="258"/>
      <point x="365" y="258" type="curve" smooth="yes"/>
      <point x="395" y="258"/>
      <point x="426" y="305"/>
      <point x="426" y="362" type="curve" smooth="yes"/>
      <point x="426" y="406"/>
      <point x="413" y="424"/>
      <point x="391" y="424" type="curve" smooth="yes"/>
      <point x="357" y="424"/>
      <point x="331" y="374"/>
    </contour>
    <contour>
      <point x="198" y="312" type="curve" smooth="yes"/>
      <point x="198" y="451"/>
      <point x="277" y="530"/>
      <point x="354" y="530" type="curve" smooth="yes"/>
      <point x="422" y="530"/>
      <point x="476" y="457"/>
      <point x="476" y="370" type="curve" smooth="yes"/>
      <point x="476" y="231"/>
      <point x="406" y="152"/>
      <point x="328" y="152" type="curve" smooth="yes"/>
      <point x="246" y="152"/>
      <point x="198" y="213"/>
    </contour>
    <contour>
      <point x="14" y="320" type="curve" smooth="yes"/>
      <point x="14" y="547"/>
      <point x="183" y="726"/>
      <point x="415" y="726" type="curve" smooth="yes"/>
      <point x="629" y="726"/>
      <point x="756" y="557"/>
      <point x="756" y="390" type="curve" smooth="yes"/>
      <point x="756" y="212"/>
      <point x="660" y="142"/>
      <point x="560" y="142" type="curve" smooth="yes"/>
      <point x="491" y="142"/>
      <point x="432" y="196"/>
      <point x="442" y="262" type="curve"/>
      <point x="426" y="302" type="line"/>
      <point x="446" y="520" type="line"/>
      <point x="575" y="520" type="line"/>
      <point x="554" y="314" type="line" smooth="yes"/>
      <point x="553" y="307"/>
      <point x="552" y="294"/>
      <point x="552" y="286" type="curve" smooth="yes"/>
      <point x="552" y="262"/>
      <point x="558" y="248"/>
      <point x="574" y="248" type="curve" smooth="yes"/>
      <point x="596" y="248"/>
      <point x="632" y="272"/>
      <point x="632" y="390" type="curve" smooth="yes"/>
      <point x="632" y="515"/>
      <point x="559" y="616"/>
      <point x="415" y="616" type="curve" smooth="yes"/>
      <point x="243" y="616"/>
      <point x="138" y="495"/>
      <point x="138" y="320" type="curve" smooth="yes"/>
      <point x="138" y="174"/>
      <point x="216" y="80"/>
      <point x="382" y="80" type="curve" smooth="yes"/>
      <point x="452" y="80"/>
      <point x="505" y="96"/>
      <point x="561" y="122" type="curve"/>
      <point x="598" y="22" type="line"/>
      <point x="538" y="-11"/>
      <point x="463" y="-30"/>
      <point x="365" y="-30" type="curve" smooth="yes"/>
      <point x="135" y="-30"/>
      <point x="14" y="121"/>
    </contour>
  </outline>
</glyph>
<glyph name="A" format="2">
  <advance width="757"/>
  <unicode hex="0041"/>
  <outline>
    <contour>
      <point x="196" y="112" type="line"/>
      <point x="202" y="256" type="line"/>
      <point x="560" y="256" type="line"/>
      <point x="566" y="112" type="line"/>
    </contour>
    <contour>
      <point x="379" y="412" type="line"/>
      <point x="287" y="203" type="line"/>
      <point x="299" y="159" type="line"/>
      <point x="218" y="0" type="line"/>
      <point x="-3" y="0" type="line"/>
      <point x="379" y="747" type="line"/>
      <point x="760" y="0" type="line"/>
      <point x="540" y="0" type="line"/>
      <point x="460" y="152" type="line"/>
      <point x="471" y="202" type="line"/>
    </contour>
  </outline>
</glyph>
<glyph name="N" format="2">
  <advance width="799"/>
  <unicode hex="004E"/>
  <outline>
    <contour>
      <point x="541" y="700" type="line"/>
      <point x="728" y="700" type="line"/>
      <point x="728" y="-35" type="line"/>
      <point x="258" y="355" type="line"/>
      <point x="258" y="0" type="line"/>
      <point x="72" y="0" type="line"/>
      <point x="72" y="735" type="line"/>
      <point x="541" y="345" type="line"/>
    </contour>
  </outline>
</glyph>
<glyph name="O" format="2">
  <advance width="830"/>
  <unicode hex="004F"/>
  <outline>
    <contour>
      <point x="238" y="350" type="curve" smooth="yes"/>
      <point x="238" y="236"/>
      <point x="308" y="158"/>
      <point x="416" y="158" type="curve" smooth="yes"/>
      <point x="524" y="158"/>
      <point x="592" y="236"/>
      <point x="592" y="350" type="curve" smooth="yes"/>
      <point x="592" y="464"/>
      <point x="528" y="542"/>
      <point x="416" y="542" type="curve" smooth="yes"/>
      <point x="308" y="542"/>
      <point x="238" y="464"/>
    </contour>
    <contour>
      <point x="32" y="350" type="curve" smooth="yes"/>
      <point x="32" y="570"/>
      <point x="200" y="718"/>
      <point x="416" y="718" type="curve" smooth="yes"/>
      <point x="636" y="718"/>
      <point x="799" y="570"/>
      <point x="799" y="350" type="curve" smooth="yes"/>
      <point x="799" y="130"/>
      <point x="640" y="-26"/>
      <point x="416" y="-26" type="curve" smooth="yes"/>
      <point x="192" y="-26"/>
      <point x="32" y="130"/>
    </contour>
  </outline>
</glyph>
<glyph name="R" format="2">
  <advance width="673"/>
  <unicode hex="0052"/>
  <outline>
    <contour>
      <point x="262" y="308" type="line"/>
      <point x="462" y="308" type="line"/>
      <point x="672" y="0" type="line"/>
      <point x="445" y="0" type="line"/>
    </contour>
    <contour>
      <point x="72" y="700" type="line"/>
      <point x="266" y="700" type="line"/>
      <point x="266" y="0" type="line"/>
      <point x="72" y="0" type="line"/>
    </contour>
    <contour>
      <point x="196" y="536" type="line"/>
      <point x="196" y="700" type="line"/>
      <point x="347" y="700" type="line" smooth="yes"/>
      <point x="539" y="700"/>
      <point x="630" y="603"/>
      <point x="630" y="466" type="curve" smooth="yes"/>
      <point x="630" y="329"/>
      <point x="539" y="231"/>
      <point x="347" y="231" type="curve" smooth="yes"/>
      <point x="196" y="231" type="line"/>
      <point x="196" y="380" type="line"/>
      <point x="331" y="380" type="line" smooth="yes"/>
      <point x="393" y="380"/>
      <point x="427" y="408"/>
      <point x="427" y="458" type="curve" smooth="yes"/>
      <point x="427" y="508"/>
      <point x="393" y="536"/>
      <point x="331" y="536" type="curve" smooth="yes"/>
    </contour>
  </outline>
</glyph>
<glyph name="S" format="2">
  <advance width="648"/>
  <unicode hex="0053"/>
  <outline>
    <contour>
      <point x="164" y="256" type="line"/>
      <point x="206" y="182"/>
      <point x="265" y="138"/>
      <point x="332" y="138" type="curve" smooth="yes"/>
      <point x="374" y="138"/>
      <point x="406" y="157"/>
      <point x="406" y="194" type="curve" smooth="yes"/>
      <point x="406" y="234"/>
      <point x="378" y="249"/>
      <point x="270" y="290" type="curve" smooth="yes"/>
      <point x="202" y="316"/>
      <point x="82" y="374"/>
      <point x="82" y="512" type="curve" smooth="yes"/>
      <point x="82" y="643"/>
      <point x="198" y="718"/>
      <point x="339" y="718" type="curve" smooth="yes"/>
      <point x="489" y="718"/>
      <point x="572" y="636"/>
      <point x="610" y="564" type="curve"/>
      <point x="464" y="483" type="line"/>
      <point x="432" y="533"/>
      <point x="390" y="558"/>
      <point x="344" y="558" type="curve" smooth="yes"/>
      <point x="304" y="558"/>
      <point x="281" y="542"/>
      <point x="281" y="515" type="curve" smooth="yes"/>
      <point x="281" y="470"/>
      <point x="343" y="450"/>
      <point x="433" y="418" type="curve" smooth="yes"/>
      <point x="538" y="382"/>
      <point x="612" y="314"/>
      <point x="612" y="202" type="curve" smooth="yes"/>
      <point x="612" y="52"/>
      <point x="478" y="-26"/>
      <point x="340" y="-26" type="curve" smooth="yes"/>
      <point x="196" y="-26"/>
      <point x="78" y="56"/>
      <point x="32" y="160" type="curve"/>
    </contour>
  </outline>
</glyph>
<glyph name="T" format="2">
  <advance width="590"/>
  <unicode hex="0054"/>
  <outline>
    <contour>
      <point x="2" y="526" type="line"/>
      <point x="2" y="700" type="line"/>
      <point x="589" y="700" type="line"/>
      <point x="589" y="526" type="line"/>
      <point x="393" y="526" type="line"/>
      <point x="393" y="0" type="line"/>
      <point x="198" y="0" type="line"/>
      <point x="198" y="526" type="line"/>
    </contour>
  </outline>
</glyph>
<glyph name="V" format="2">
  <advance width="757"/>
  <unicode hex="0056"/>
  <outline>
    <contour>
      <point x="379" y="320" type="line"/>
      <point x="532" y="700" type="line"/>
      <point x="760" y="700" type="line"/>
      <point x="379" y="-47" type="line"/>
      <point x="-3" y="700" type="line"/>
      <point x="226" y="700" type="line"/>
    </contour>
  </outline>
</glyph>
<glyph name="W" format="2">
  <advance width="1087"/>
  <unicode hex="0057"/>
  <outline>
    <contour>
      <point x="730" y="336" type="line"/>
      <point x="852" y="700" type="line"/>
      <point x="1086" y="700" type="line"/>
      <point x="774" y="-43" type="line"/>
      <point x="544" y="342" type="line"/>
      <point x="314" y="-43" type="line"/>
      <point x="2" y="700" type="line"/>
      <point x="235" y="700" type="line"/>
      <point x="358" y="336" type="line"/>
      <point x="544" y="735" type="line"/>
    </contour>
  </outline>
</glyph>
<glyph name="Y" format="2">
  <advance width="690"/>
  <unicode hex="0059"/>
  <outline>
    <contour>
      <point x="468" y="700" type="line"/>
      <point x="694" y="700" type="line"/>
      <point x="445" y="280" type="line"/>
      <point x="445" y="0" type="line"/>
      <point x="246" y="0" type="line"/>
      <point x="246" y="279" type="line"/>
      <point x="-3" y="700" type="line"/>
      <point x="222" y="700" type="line"/>
      <point x="345" y="456" type="line"/>
    </contour>
  </outline>
</glyph>
<glyph name="Z" format="2">
  <advance width="642"/>
  <unicode hex="005A"/>
  <outline>
    <contour>
      <point x="64" y="526" type="line"/>
      <point x="64" y="700" type="line"/>
      <point x="630" y="700" type="line"/>
      <point x="312" y="166" type="line"/>
      <point x="590" y="166" type="line"/>
      <point x="590" y="0" type="line"/>
      <point x="7" y="0" type="line"/>
      <point x="320" y="526" type="line"/>
    </contour>
  </outline>
</glyph>
<glyph name="backslash" format="2">
  <advance width="555"/>
  <unicode hex="005C"/>
  <outline>
    <contour>
      <point x="15" y="700" type="line"/>
      <point x="181" y="700" type="line"/>
      <point x="540" y="0" type="line"/>
      <point x="374" y="0" type="line"/>
    </contour>
  </outline>
</glyph>
<glyph name="asciicircum" format="2">
  <advance width="510"/>
  <unicode hex="005E"/>
  <outline>
    <contour>
      <point x="255" y="568" type="line"/>
      <point x="186" y="444" type="line"/>
      <point x="32" y="444" type="line"/>
      <point x="202" y="710" type="line"/>
      <point x="308" y="710" type="line"/>
      <point x="478" y="444" type="line"/>
      <point x="324" y="444" type="line"/>
    </contour>
  </outline>
</glyph>
<glyph name="a" format="2">
  <advance width="556"/>
  <unicode hex="0061"/>
  <outline>
    <contour>
      <point x="196" y="144" type="curve" smooth="yes"/>
      <point x="196" y="113"/>
      <point x="222" y="97"/>
      <point x="252" y="97" type="curve" smooth="yes"/>
      <point x="296" y="97"/>
      <point x="340" y="126"/>
      <point x="340" y="188" type="curve"/>
      <point x="356" y="128" type="line"/>
      <point x="356" y="39"/>
      <point x="280" y="-10"/>
      <point x="188" y="-10" type="curve" smooth="yes"/>
      <point x="98" y="-10"/>
      <point x="22" y="40"/>
      <point x="22" y="135" type="curve" smooth="yes"/>
      <point x="22" y="223"/>
      <point x="86" y="277"/>
      <point x="202" y="277" type="curve" smooth="yes"/>
      <point x="278" y="277"/>
      <point x="345" y="254"/>
      <point x="372" y="226" type="curve"/>
      <point x="372" y="153" type="line"/>
      <point x="344" y="175"/>
      <point x="303" y="188"/>
      <point x="260" y="188" type="curve" smooth="yes"/>
      <point x="214" y="188"/>
      <point x="196" y="172"/>
    </contour>
    <contour>
      <point x="112" y="308" type="curve"/>
      <point x="57" y="422" type="line"/>
      <point x="115" y="447"/>
      <point x="194" y="474"/>
      <point x="282" y="474" type="curve" smooth="yes"/>
      <point x="408" y="474"/>
      <point x="504" y="419"/>
      <point x="504" y="322" type="curve" smooth="yes"/>
      <point x="504" y="0" type="line"/>
      <point x="340" y="0" type="line"/>
      <point x="340" y="281" type="line" smooth="yes"/>
      <point x="340" y="321"/>
      <point x="315" y="346"/>
      <point x="258" y="346" type="curve" smooth="yes"/>
      <point x="200" y="346"/>
      <point x="130" y="319"/>
    </contour>
  </outline>
</glyph>
<glyph name="d" format="2">
  <advance width="630"/>
  <unicode hex="0064"/>
  <outline>
    <contour>
      <point x="404" y="780" type="line"/>
      <point x="577" y="780" type="line"/>
      <point x="577" y="0" type="line"/>
      <point x="404" y="0" type="line"/>
    </contour>
    <contour>
      <point x="31" y="230" type="curve" smooth="yes"/>
      <point x="31" y="387"/>
      <point x="138" y="470"/>
      <point x="246" y="470" type="curve" smooth="yes"/>
      <point x="361" y="470"/>
      <point x="448" y="379"/>
      <point x="448" y="230" type="curve" smooth="yes"/>
      <point x="448" y="81"/>
      <point x="361" y="-10"/>
      <point x="246" y="-10" type="curve" smooth="yes"/>
      <point x="138" y="-10"/>
      <point x="31" y="73"/>
    </contour>
    <contour>
      <point x="214" y="230" type="curve" smooth="yes"/>
      <point x="214" y="168"/>
      <point x="258" y="126"/>
      <point x="310" y="126" type="curve" smooth="yes"/>
      <point x="356" y="126"/>
      <point x="404" y="164"/>
      <point x="404" y="230" type="curve" smooth="yes"/>
      <point x="404" y="296"/>
      <point x="356" y="334"/>
      <point x="310" y="334" type="curve" smooth="yes"/>
      <point x="258" y="334"/>
      <point x="214" y="292"/>
    </contour>
  </outline>
</glyph>
<glyph name="e" format="2">
  <advance width="591"/>
  <unicode hex="0065"/>
  <outline>
    <contour>
      <point x="306" y="-10" type="curve" smooth="yes"/>
      <point x="134" y="-10"/>
      <point x="31" y="82"/>
      <point x="31" y="230" type="curve" smooth="yes"/>
      <point x="31" y="380"/>
      <point x="132" y="470"/>
      <point x="300" y="470" type="curve" smooth="yes"/>
      <point x="466" y="470"/>
      <point x="557" y="387"/>
      <point x="557" y="238" type="curve" smooth="yes"/>
      <point x="557" y="222"/>
      <point x="558" y="206"/>
      <point x="556" y="194" type="curve"/>
      <point x="126" y="194" type="line"/>
      <point x="126" y="283" type="line"/>
      <point x="396" y="283" type="line"/>
      <point x="360" y="237" type="line"/>
      <point x="367" y="248"/>
      <point x="372" y="262"/>
      <point x="372" y="272" type="curve" smooth="yes"/>
      <point x="372" y="326"/>
      <point x="343" y="360"/>
      <point x="296" y="360" type="curve" smooth="yes"/>
      <point x="235" y="360"/>
      <point x="206" y="319"/>
      <point x="206" y="231" type="curve" smooth="yes"/>
      <point x="204" y="154"/>
      <point x="238" y="110"/>
      <point x="300" y="110" type="curve" smooth="yes"/>
      <point x="350" y="110"/>
      <point x="384" y="127"/>
      <point x="404" y="162" type="curve"/>
      <point x="562" y="132" type="line"/>
      <point x="512" y="37"/>
      <point x="428" y="-10"/>
    </contour>
  </outline>
</glyph>
<glyph name="h" format="2">
  <advance width="581"/>
  <unicode hex="0068"/>
  <outline>
    <contour>
      <point x="228" y="780" type="line"/>
      <point x="228" y="0" type="line"/>
      <point x="54" y="0" type="line"/>
      <point x="54" y="780" type="line"/>
    </contour>
    <contour>
      <point x="354" y="280" type="line" smooth="yes"/>
      <point x="354" y="328"/>
      <point x="340" y="355"/>
      <point x="296" y="355" type="curve" smooth="yes"/>
      <point x="254" y="355"/>
      <point x="228" y="330"/>
      <point x="228" y="280" type="curve"/>
      <point x="202" y="280" type="line"/>
      <point x="202" y="389"/>
      <point x="249" y="479"/>
      <point x="369" y="479" type="curve" smooth="yes"/>
      <point x="489" y="479"/>
      <point x="527" y="417"/>
      <point x="527" y="306" type="curve" smooth="yes"/>
      <point x="527" y="0" type="line"/>
      <point x="354" y="0" type="line"/>
    </contour>
  </outline>
</glyph>
<glyph name="i" format="2">
  <advance width="281"/>
  <unicode hex="0069"/>
  <outline>
    <contour>
      <point x="42" y="627" type="curve" smooth="yes"/>
      <point x="42" y="681"/>
      <point x="86" y="717"/>
      <point x="140" y="717" type="curve" smooth="yes"/>
      <point x="194" y="717"/>
      <point x="238" y="681"/>
      <point x="238" y="627" type="curve" smooth="yes"/>
      <point x="238" y="573"/>
      <point x="194" y="538"/>
      <point x="140" y="538" type="curve" smooth="yes"/>
      <point x="86" y="538"/>
      <point x="42" y="573"/>
    </contour>
    <contour>
      <point x="56" y="460" type="line"/>
      <point x="224" y="460" type="line"/>
      <point x="224" y="0" type="line"/>
      <point x="56" y="0" type="line"/>
    </contour>
  </outline>
</glyph>
<glyph name="j" format="2">
  <advance width="278"/>
  <unicode hex="006A"/>
  <outline>
    <contour>
      <point x="40" y="627" type="curve" smooth="yes"/>
      <point x="40" y="681"/>
      <point x="84" y="717"/>
      <point x="138" y="717" type="curve" smooth="yes"/>
      <point x="192" y="717"/>
      <point x="236" y="681"/>
      <point x="236" y="627" type="curve" smooth="yes"/>
      <point x="236" y="573"/>
      <point x="192" y="538"/>
      <point x="138" y="538" type="curve" smooth="yes"/>
      <point x="84" y="538"/>
      <point x="40" y="573"/>
    </contour>
    <contour>
      <point x="-38" y="-66" type="line"/>
      <point x="-26" y="-81"/>
      <point x="-12" y="-91"/>
      <point x="8" y="-91" type="curve" smooth="yes"/>
      <point x="39" y="-91"/>
      <point x="56" y="-71"/>
      <point x="56" y="-30" type="curve" smooth="yes"/>
      <point x="56" y="460" type="line"/>
      <point x="221" y="460" type="line"/>
      <point x="221" y="-76" type="line" smooth="yes"/>
      <point x="221" y="-176"/>
      <point x="159" y="-244"/>
      <point x="35" y="-244" type="curve" smooth="yes"/>
      <point x="-40" y="-244"/>
      <point x="-80" y="-212"/>
      <point x="-104" y="-190" type="curve"/>
    </contour>
  </outline>
</glyph>
<glyph name="m" format="2">
  <advance width="832"/>
  <unicode hex="006D"/>
  <outline>
    <contour>
      <point x="778" y="298" type="curve" smooth="yes"/>
      <point x="778" y="0" type="line"/>
      <point x="604" y="0" type="line"/>
      <point x="604" y="280" type="line" smooth="yes"/>
      <point x="604" y="328"/>
      <point x="591" y="355"/>
      <point x="555" y="355" type="curve" smooth="yes"/>
      <point x="523" y="355"/>
      <point x="499" y="331"/>
      <point x="499" y="280" type="curve" smooth="yes"/>
      <point x="499" y="0" type="line"/>
      <point x="326" y="0" type="line"/>
      <point x="326" y="280" type="line" smooth="yes"/>
      <point x="326" y="328"/>
      <point x="312" y="355"/>
      <point x="276" y="355" type="curve" smooth="yes"/>
      <point x="244" y="355"/>
      <point x="220" y="331"/>
      <point x="220" y="280" type="curve" smooth="yes"/>
      <point x="220" y="0" type="line"/>
      <point x="54" y="0" type="line"/>
      <point x="54" y="460" type="line"/>
      <point x="220" y="460" type="line"/>
      <point x="220" y="392" type="line"/>
      <point x="246" y="441"/>
      <point x="290" y="471"/>
      <point x="355" y="471" type="curve" smooth="yes"/>
      <point x="429" y="471"/>
      <point x="468" y="446"/>
      <point x="486" y="398" type="curve"/>
      <point x="520" y="444"/>
      <point x="571" y="471"/>
      <point x="634" y="471" type="curve" smooth="yes"/>
      <point x="745" y="471"/>
      <point x="778" y="408"/>
    </contour>
  </outline>
</glyph>
<glyph name="n" format="2">
  <advance width="590"/>
  <unicode hex="006E"/>
  <outline>
    <contour>
      <point x="354" y="280" type="line" smooth="yes"/>
      <point x="354" y="328"/>
      <point x="340" y="355"/>
      <point x="296" y="355" type="curve" smooth="yes"/>
      <point x="254" y="355"/>
      <point x="228" y="330"/>
      <point x="228" y="280" type="curve" smooth="yes"/>
      <point x="228" y="0" type="line"/>
      <point x="54" y="0" type="line"/>
      <point x="54" y="460" type="line"/>
      <point x="228" y="460" type="line"/>
      <point x="228" y="392" type="line"/>
      <point x="254" y="440"/>
      <point x="299" y="471"/>
      <point x="369" y="471" type="curve" smooth="yes"/>
      <point x="489" y="471"/>
      <point x="536" y="408"/>
      <point x="536" y="298" type="curve" smooth="yes"/>
      <point x="536" y="0" type="line"/>
      <point x="354" y="0" type="line"/>
    </contour>
  </outline>
</glyph>
<glyph name="o" format="2">
  <advance width="602"/>
  <unicode hex="006F"/>
  <outline>
    <contour>
      <point x="31" y="230" type="curve" smooth="yes"/>
      <point x="31" y="377"/>
      <point x="146" y="471"/>
      <point x="302" y="471" type="curve" smooth="yes"/>
      <point x="458" y="471"/>
      <point x="572" y="377"/>
      <point x="572" y="230" type="curve" smooth="yes"/>
      <point x="572" y="83"/>
      <point x="458" y="-10"/>
      <point x="302" y="-10" type="curve" smooth="yes"/>
      <point x="146" y="-10"/>
      <point x="31" y="83"/>
    </contour>
    <contour>
      <point x="210" y="230" type="curve" smooth="yes"/>
      <point x="210" y="166"/>
      <point x="252" y="130"/>
      <point x="302" y="130" type="curve" smooth="yes"/>
      <point x="352" y="130"/>
      <point x="394" y="166"/>
      <point x="394" y="230" type="curve" smooth="yes"/>
      <point x="394" y="294"/>
      <point x="352" y="331"/>
      <point x="302" y="331" type="curve" smooth="yes"/>
      <point x="252" y="331"/>
      <point x="210" y="294"/>
    </contour>
  </outline>
</glyph>
<glyph name="p" format="2">
  <advance width="630"/>
  <unicode hex="0070"/>
  <outline>
    <contour>
      <point x="227" y="-220" type="line"/>
      <point x="54" y="-220" type="line"/>
      <point x="54" y="460" type="line"/>
      <point x="227" y="460" type="line"/>
    </contour>
    <contour>
      <point x="600" y="230" type="curve" smooth="yes"/>
      <point x="600" y="64"/>
      <point x="492" y="-18"/>
      <point x="384" y="-18" type="curve" smooth="yes"/>
      <point x="261" y="-18"/>
      <point x="191" y="81"/>
      <point x="191" y="230" type="curve" smooth="yes"/>
      <point x="191" y="379"/>
      <point x="261" y="478"/>
      <point x="384" y="478" type="curve" smooth="yes"/>
      <point x="492" y="478"/>
      <point x="600" y="396"/>
    </contour>
    <contour>
      <point x="418" y="230" type="curve" smooth="yes"/>
      <point x="418" y="292"/>
      <point x="374" y="326"/>
      <point x="322" y="326" type="curve" smooth="yes"/>
      <point x="276" y="326"/>
      <point x="227" y="296"/>
      <point x="227" y="230" type="curve" smooth="yes"/>
      <point x="227" y="164"/>
      <point x="276" y="134"/>
      <point x="322" y="134" type="curve" smooth="yes"/>
      <point x="374" y="134"/>
      <point x="418" y="168"/>
    </contour>
  </outline>
</glyph>
<glyph name="s" format="2">
  <advance width="472"/>
  <unicode hex="0073"/>
  <outline>
    <contour>
      <point x="81" y="175" type="line"/>
      <point x="163" y="111"/>
      <point x="217" y="101"/>
      <point x="241" y="101" type="curve" smooth="yes"/>
      <point x="267" y="101"/>
      <point x="278" y="112"/>
      <point x="278" y="130" type="curve" smooth="yes"/>
      <point x="278" y="154"/>
      <point x="262" y="164"/>
      <point x="182" y="190" type="curve" smooth="yes"/>
      <point x="116" y="212"/>
      <point x="52" y="247"/>
      <point x="52" y="337" type="curve" smooth="yes"/>
      <point x="52" y="422"/>
      <point x="126" y="470"/>
      <point x="232" y="470" type="curve" smooth="yes"/>
      <point x="313" y="470"/>
      <point x="378" y="442"/>
      <point x="438" y="408" type="curve"/>
      <point x="387" y="292" type="line"/>
      <point x="345" y="329"/>
      <point x="285" y="356"/>
      <point x="246" y="356" type="curve" smooth="yes"/>
      <point x="220" y="356"/>
      <point x="211" y="345"/>
      <point x="211" y="332" type="curve" smooth="yes"/>
      <point x="211" y="303"/>
      <point x="246" y="299"/>
      <point x="320" y="271" type="curve" smooth="yes"/>
      <point x="388" y="245"/>
      <point x="450" y="216"/>
      <point x="450" y="130" type="curve" smooth="yes"/>
      <point x="450" y="26"/>
      <point x="386" y="-22"/>
      <point x="272" y="-22" type="curve" smooth="yes"/>
      <point x="170" y="-22"/>
      <point x="91" y="9"/>
      <point x="18" y="56" type="curve"/>
    </contour>
  </outline>
</glyph>
<glyph name="v" format="2">
  <advance width="553"/>
  <unicode hex="0076"/>
  <outline>
    <contour>
      <point x="-4" y="460" type="line"/>
      <point x="180" y="460" type="line"/>
      <point x="277" y="226" type="line"/>
      <point x="374" y="460" type="line"/>
      <point x="558" y="460" type="line"/>
      <point x="277" y="-60" type="line"/>
    </contour>
  </outline>
</glyph>
<glyph name="w" format="2">
  <advance width="785"/>
  <unicode hex="0077"/>
  <outline>
    <contour>
      <point x="-12" y="460" type="line"/>
      <point x="168" y="460" type="line"/>
      <point x="258" y="244" type="line"/>
      <point x="392" y="495" type="line"/>
      <point x="528" y="243" type="line"/>
      <point x="618" y="460" type="line"/>
      <point x="797" y="460" type="line"/>
      <point x="548" y="-27" type="line"/>
      <point x="392" y="227" type="line"/>
      <point x="238" y="-27" type="line"/>
    </contour>
  </outline>
</glyph>
<glyph name="y" format="2">
  <advance width="545"/>
  <unicode hex="0079"/>
  <outline>
    <contour>
      <point x="558" y="460" type="line"/>
      <point x="258" y="-220" type="line"/>
      <point x="86" y="-220" type="line"/>
      <point x="194" y="28" type="line"/>
      <point x="-12" y="460" type="line"/>
      <point x="176" y="460" type="line"/>
      <point x="326" y="88" type="line"/>
      <point x="234" y="88" type="line"/>
      <point x="382" y="460" type="line"/>
    </contour>
  </outline>
</glyph>
<glyph name="exclamdown" format="2">
  <advance width="356"/>
  <unicode hex="00A1"/>
  <outline>
    <contour>
      <point x="286" y="-224" type="line"/>
      <point x="72" y="-224" type="line"/>
      <point x="108" y="234" type="line"/>
      <point x="249" y="234" type="line"/>
    </contour>
    <contour>
      <point x="284" y="407" type="curve" smooth="yes"/>
      <point x="284" y="350"/>
      <point x="240" y="311"/>
      <point x="178" y="311" type="curve" smooth="yes"/>
      <point x="116" y="311"/>
      <point x="72" y="350"/>
      <point x="72" y="407" type="curve" smooth="yes"/>
      <point x="72" y="464"/>
      <point x="116" y="502"/>
      <point x="178" y="502" type="curve" smooth="yes"/>
      <point x="240" y="502"/>
      <point x="284" y="464"/>
    </contour>
  </outline>
</glyph>
<glyph name="cent" format="2">
  <advance width="580"/>
  <unicode hex="00A2"/>
  <outline>
    <contour>
      <point x="223" y="38" type="line"/>
      <point x="348" y="38" type="line"/>
      <point x="360" y="-112" type="line"/>
      <point x="211" y="-112" type="line"/>
    </contour>
    <contour>
      <point x="218" y="230" type="curve" smooth="yes"/>
      <point x="218" y="158"/>
      <point x="273" y="124"/>
      <point x="331" y="124" type="curve" smooth="yes"/>
      <point x="389" y="124"/>
      <point x="429" y="153"/>
      <point x="458" y="190" type="curve"/>
      <point x="458" y="24" type="line"/>
      <point x="426" y="2"/>
      <point x="378" y="-10"/>
      <point x="315" y="-10" type="curve" smooth="yes"/>
      <point x="155" y="-10"/>
      <point x="40" y="83"/>
      <point x="40" y="230" type="curve" smooth="yes"/>
      <point x="40" y="377"/>
      <point x="155" y="470"/>
      <point x="315" y="470" type="curve" smooth="yes"/>
      <point x="378" y="470"/>
      <point x="426" y="456"/>
      <point x="458" y="436" type="curve"/>
      <point x="458" y="270" type="line"/>
      <point x="429" y="307"/>
      <point x="389" y="336"/>
      <point x="331" y="336" type="curve" smooth="yes"/>
      <point x="273" y="336"/>
      <point x="218" y="294"/>
    </contour>
    <contour>
      <point x="211" y="578" type="line"/>
      <point x="360" y="578" type="line"/>
      <point x="348" y="428" type="line"/>
      <point x="223" y="428" type="line"/>
    </contour>
  </outline>
</glyph>
<glyph name="yen" format="2">
  <advance width="696"/>
  <unicode hex="00A5"/>
  <outline>
    <contour>
      <point x="45" y="258" type="line"/>
      <point x="45" y="365" type="line"/>
      <point x="648" y="365" type="line"/>
      <point x="648" y="258" type="line"/>
    </contour>
    <contour>
      <point x="45" y="108" type="line"/>
      <point x="45" y="215" type="line"/>
      <point x="648" y="215" type="line"/>
      <point x="648" y="108" type="line"/>
    </contour>
    <contour>
      <point x="471" y="700" type="line"/>
      <point x="695" y="700" type="line"/>
      <point x="448" y="282" type="line"/>
      <point x="448" y="0" type="line"/>
      <point x="248" y="0" type="line"/>
      <point x="248" y="278" type="line"/>
      <point x="-2" y="700" type="line"/>
      <point x="224" y="700" type="line"/>
      <point x="347" y="456" type="line"/>
    </contour>
  </outline>
</glyph>
<glyph name="copyright" format="2">
  <advance width="800"/>
  <unicode hex="00A9"/>
  <outline>
    <contour>
      <point x="304" y="350" type="curve" smooth="yes"/>
      <point x="304" y="279"/>
      <point x="357" y="240"/>
      <point x="421" y="240" type="curve" smooth="yes"/>
      <point x="480" y="240"/>
      <point x="517" y="266"/>
      <point x="543" y="294" type="curve"/>
      <point x="543" y="170" type="line"/>
      <point x="509" y="146"/>
      <point x="474" y="129"/>
      <point x="413" y="129" type="curve" smooth="yes"/>
      <point x="273" y="129"/>
      <point x="176" y="218"/>
      <point x="176" y="350" type="curve" smooth="yes"/>
      <point x="176" y="482"/>
      <point x="273" y="571"/>
      <point x="413" y="571" type="curve" smooth="yes"/>
      <point x="474" y="571"/>
      <point x="509" y="554"/>
      <point x="543" y="530" type="curve"/>
      <point x="543" y="406" type="line"/>
      <point x="517" y="434"/>
      <point x="480" y="460"/>
      <point x="421" y="460" type="curve" smooth="yes"/>
      <point x="357" y="460"/>
      <point x="304" y="421"/>
    </contour>
    <contour>
      <point x="95" y="350" type="curve" smooth="yes"/>
      <point x="95" y="172"/>
      <point x="227" y="40"/>
      <point x="400" y="40" type="curve" smooth="yes"/>
      <point x="573" y="40"/>
      <point x="705" y="172"/>
      <point x="705" y="350" type="curve" smooth="yes"/>
      <point x="705" y="528"/>
      <point x="573" y="660"/>
      <point x="400" y="660" type="curve" smooth="yes"/>
      <point x="227" y="660"/>
      <point x="95" y="528"/>
    </contour>
    <contour>
      <point x="40" y="350" type="curve" smooth="yes"/>
      <point x="40" y="559"/>
      <point x="196" y="710"/>
      <point x="400" y="710" type="curve" smooth="yes"/>
      <point x="604" y="710"/>
      <point x="760" y="559"/>
      <point x="760" y="350" type="curve" smooth="yes"/>
      <point x="760" y="141"/>
      <point x="604" y="-10"/>
      <point x="400" y="-10" type="curve" smooth="yes"/>
      <point x="196" y="-10"/>
      <point x="40" y="141"/>
    </contour>
  </outline>
</glyph>
<glyph name="guillemotleft" format="2">
  <advance width="550"/>
  <unicode hex="00AB"/>
  <outline>
    <contour>
      <point x="371" y="259" type="line"/>
      <point x="521" y="65" type="line"/>
      <point x="414" y="-4" type="line"/>
      <point x="240" y="255" type="line"/>
      <point x="414" y="514" type="line"/>
      <point x="521" y="445" type="line"/>
    </contour>
    <contour>
      <point x="154" y="259" type="line"/>
      <point x="304" y="65" type="line"/>
      <point x="198" y="-4" type="line"/>
      <point x="24" y="255" type="line"/>
      <point x="198" y="514" type="line"/>
      <point x="304" y="445" type="line"/>
    </contour>
  </outline>
</glyph>
<glyph name="degree" format="2">
  <advance width="302"/>
  <unicode hex="00B0"/>
  <outline>
    <contour>
      <point x="16" y="596" type="curve" smooth="yes"/>
      <point x="16" y="669"/>
      <point x="72" y="720"/>
      <point x="150" y="720" type="curve" smooth="yes"/>
      <point x="228" y="720"/>
      <point x="286" y="669"/>
      <point x="286" y="596" type="curve" smooth="yes"/>
      <point x="286" y="523"/>
      <point x="228" y="472"/>
      <point x="150" y="472" type="curve" smooth="yes"/>
      <point x="72" y="472"/>
      <point x="16" y="523"/>
    </contour>
    <contour>
      <point x="100" y="596" type="curve" smooth="yes"/>
      <point x="100" y="564"/>
      <point x="122" y="545"/>
      <point x="150" y="545" type="curve" smooth="yes"/>
      <point x="178" y="545"/>
      <point x="201" y="564"/>
      <point x="201" y="596" type="curve" smooth="yes"/>
      <point x="201" y="628"/>
      <point x="178" y="648"/>
      <point x="150" y="648" type="curve" smooth="yes"/>
      <point x="122" y="648"/>
      <point x="100" y="628"/>
    </contour>
  </outline>
</glyph>
<glyph name="plusminus" format="2">
  <advance width="639"/>
  <unicode hex="00B1"/>
  <outline>
    <contour>
      <point x="65" y="8" type="line"/>
      <point x="65" y="153" type="line"/>
      <point x="574" y="153" type="line"/>
      <point x="574" y="8" type="line"/>
    </contour>
    <contour>
      <point x="65" y="328" type="line"/>
      <point x="65" y="482" type="line"/>
      <point x="574" y="482" type="line"/>
      <point x="574" y="328" type="line"/>
    </contour>
    <contour>
      <point x="232" y="620" type="line"/>
      <point x="407" y="620" type="line"/>
      <point x="407" y="190" type="line"/>
      <point x="232" y="190" type="line"/>
    </contour>
  </outline>
</glyph>
<glyph name="uni00B2" format="2">
  <advance width="427"/>
  <unicode hex="00B2"/>
  <outline>
    <contour>
      <point x="25" y="282" type="line"/>
      <point x="209" y="470" type="line" smooth="yes"/>
      <point x="245" y="508"/>
      <point x="266" y="533"/>
      <point x="266" y="566" type="curve" smooth="yes"/>
      <point x="266" y="590"/>
      <point x="250" y="612"/>
      <point x="216" y="612" type="curve" smooth="yes"/>
      <point x="182" y="612"/>
      <point x="158" y="584"/>
      <point x="158" y="544" type="curve"/>
      <point x="44" y="544" type="line"/>
      <point x="44" y="633"/>
      <point x="104" y="712"/>
      <point x="220" y="712" type="curve" smooth="yes"/>
      <point x="328" y="712"/>
      <point x="386" y="641"/>
      <point x="386" y="573" type="curve" smooth="yes"/>
      <point x="386" y="527"/>
      <point x="361" y="491"/>
      <point x="324" y="461" type="curve" smooth="yes"/>
      <point x="238" y="388" type="line"/>
      <point x="399" y="388" type="line"/>
      <point x="399" y="282" type="line"/>
    </contour>
  </outline>
</glyph>
<glyph name="mu" format="2">
  <advance width="590"/>
  <unicode hex="00B5"/>
  <outline>
    <contour>
      <point x="236" y="460" type="line"/>
      <point x="236" y="212" type="line" smooth="yes"/>
      <point x="236" y="164"/>
      <point x="250" y="138"/>
      <point x="294" y="138" type="curve" smooth="yes"/>
      <point x="336" y="138"/>
      <point x="362" y="162"/>
      <point x="362" y="212" type="curve" smooth="yes"/>
      <point x="362" y="460" type="line"/>
      <point x="536" y="460" type="line"/>
      <point x="536" y="0" type="line"/>
      <point x="362" y="0" type="line"/>
      <point x="362" y="50" type="line"/>
      <point x="346" y="22"/>
      <point x="317" y="-2"/>
      <point x="282" y="-2" type="curve" smooth="yes"/>
      <point x="262" y="-2"/>
      <point x="245" y="1"/>
      <point x="220" y="18" type="curve"/>
      <point x="220" y="-320" type="line"/>
      <point x="54" y="-320" type="line"/>
      <point x="54" y="460" type="line"/>
    </contour>
  </outline>
</glyph>
<glyph name="periodcentered" format="2">
  <advance width="329"/>
  <unicode hex="00B7"/>
  <outline>
    <contour>
      <point x="58" y="276" type="curve" smooth="yes"/>
      <point x="58" y="333"/>
      <point x="102" y="380"/>
      <point x="164" y="380" type="curve" smooth="yes"/>
      <point x="226" y="380"/>
      <point x="271" y="333"/>
      <point x="271" y="276" type="curve" smooth="yes"/>
      <point x="271" y="219"/>
      <point x="226" y="173"/>
      <point x="164" y="173" type="curve" smooth="yes"/>
      <point x="102" y="173"/>
      <point x="58" y="219"/>
    </contour>
  </outline>
</glyph>
<glyph name="onequarter" format="2">
  <advance width="843"/>
  <unicode hex="00BC"/>
  <outline>
    <contour>
      <point x="634" y="700" type="line"/>
      <point x="740" y="700" type="line"/>
      <point x="220" y="0" type="line"/>
      <point x="114" y="0" type="line"/>
    </contour>
    <contour>
      <point x="22" y="560" type="line"/>
      <point x="22" y="660" type="line"/>
      <point x="242" y="702" type="line"/>
      <point x="242" y="274" type="line"/>
      <point x="130" y="274" type="line"/>
      <point x="130" y="586" type="line"/>
    </contour>
    <contour>
      <point x="410" y="72" type="line"/>
      <point x="505" y="154" type="line"/>
      <point x="692" y="154" type="line" smooth="yes"/>
      <point x="702" y="170" type="line" smooth="yes"/>
      <point x="814" y="170" type="line"/>
      <point x="814" y="72" type="line"/>
    </contour>
    <contour>
      <point x="527" y="111" type="line"/>
      <point x="410" y="72" type="line"/>
      <point x="657" y="420" type="line"/>
      <point x="748" y="420" type="line"/>
      <point x="748" y="0" type="line"/>
      <point x="627" y="0" type="line"/>
      <point x="627" y="94" type="line" smooth="yes"/>
      <point x="642" y="100" type="line" smooth="yes"/>
      <point x="642" y="263" type="line"/>
    </contour>
  </outline>
</glyph>
<glyph name="Atilde" format="2">
  <advance width="757"/>
  <unicode hex="00C3"/>
  <outline>
    <contour>
      <point x="196" y="112" type="line"/>
      <point x="202" y="256" type="line"/>
      <point x="560" y="256" type="line"/>
      <point x="566" y="112" type="line"/>
    </contour>
    <contour>
      <point x="379" y="412" type="line"/>
      <point x="287" y="203" type="line"/>
      <point x="299" y="159" type="line"/>
      <point x="218" y="0" type="line"/>
      <point x="-3" y="0" type="line"/>
      <point x="379" y="747" type="line"/>
      <point x="760" y="0" type="line"/>
      <point x="540" y="0" type="line"/>
      <point x="460" y="152" type="line"/>
      <point x="471" y="202" type="line"/>
    </contour>
    <contour>
      <point x="173" y="878" type="line"/>
      <point x="183" y="927"/>
      <point x="228" y="976"/>
      <point x="298" y="976" type="curve" smooth="yes"/>
      <point x="364" y="976"/>
      <point x="381" y="922"/>
      <point x="438" y="922" type="curve" smooth="yes"/>
      <point x="465" y="922"/>
      <point x="486" y="945"/>
      <point x="506" y="977" type="curve"/>
      <point x="584" y="894" type="line"/>
      <point x="568" y="857"/>
      <point x="508" y="804"/>
      <point x="442" y="804" type="curve" smooth="yes"/>
      <point x="387" y="804"/>
      <point x="346" y="860"/>
      <point x="296" y="860" type="curve" smooth="yes"/>
      <point x="259" y="860"/>
      <point x="250" y="823"/>
      <point x="250" y="808" type="curve"/>
    </contour>
  </outline>
</glyph>
<glyph name="Adieresis" format="2">
  <advance width="757"/>
  <unicode hex="00C4"/>
  <outline>
    <contour>
      <point x="196" y="112" type="line"/>
      <point x="202" y="256" type="line"/>
      <point x="560" y="256" type="line"/>
      <point x="566" y="112" type="line"/>
    </contour>
    <contour>
      <point x="379" y="412" type="line"/>
      <point x="287" y="203" type="line"/>
      <point x="299" y="159" type="line"/>
      <point x="218" y="0" type="line"/>
      <point x="-3" y="0" type="line"/>
      <point x="379" y="747" type="line"/>
      <point x="760" y="0" type="line"/>
      <point x="540" y="0" type="line"/>
      <point x="460" y="152" type="line"/>
      <point x="471" y="202" type="line"/>
    </contour>
    <contour>
      <point x="434" y="824" type="curve" smooth="yes"/>
      <point x="434" y="878"/>
      <point x="478" y="914"/>
      <point x="532" y="914" type="curve" smooth="yes"/>
      <point x="586" y="914"/>
      <point x="630" y="878"/>
      <point x="630" y="824" type="curve" smooth="yes"/>
      <point x="630" y="770"/>
      <point x="586" y="734"/>
      <point x="532" y="734" type="curve" smooth="yes"/>
      <point x="478" y="734"/>
      <point x="434" y="770"/>
    </contour>
    <contour>
      <point x="120" y="832" type="curve" smooth="yes"/>
      <point x="120" y="886"/>
      <point x="164" y="922"/>
      <point x="218" y="922" type="curve" smooth="yes"/>
      <point x="272" y="922"/>
      <point x="316" y="886"/>
      <point x="316" y="832" type="curve" smooth="yes"/>
      <point x="316" y="778"/>
      <point x="272" y="742"/>
      <point x="218" y="742" type="curve" smooth="yes"/>
      <point x="164" y="742"/>
      <point x="120" y="778"/>
    </contour>
  </outline>
</glyph>
<glyph name="Ccedilla" format="2">
  <advance width="705"/>
  <unicode hex="00C7"/>
  <outline>
    <contour>
      <point x="246" y="350" type="curve" smooth="yes"/>
      <point x="246" y="232"/>
      <point x="334" y="166"/>
      <point x="440" y="166" type="curve" smooth="yes"/>
      <point x="539" y="166"/>
      <point x="599" y="210"/>
      <point x="644" y="256" type="curve"/>
      <point x="644" y="50" type="line"/>
      <point x="588" y="10"/>
      <point x="528" y="-18"/>
      <point x="426" y="-18" type="curve" smooth="yes"/>
      <point x="192" y="-18"/>
      <point x="32" y="129"/>
      <point x="32" y="350" type="curve" smooth="yes"/>
      <point x="32" y="571"/>
      <point x="192" y="718"/>
      <point x="426" y="718" type="curve" smooth="yes"/>
      <point x="528" y="718"/>
      <point x="588" y="690"/>
      <point x="644" y="650" type="curve"/>
      <point x="644" y="444" type="line"/>
      <point x="599" y="490"/>
      <point x="539" y="534"/>
      <point x="440" y="534" type="curve" smooth="yes"/>
      <point x="334" y="534"/>
      <point x="246" y="468"/>
    </contour>
    <contour>
      <point x="352" y="45" type="line"/>
      <point x="476" y="40" type="line"/>
      <point x="384" y="-84" type="line"/>
      <point x="397" y="-80"/>
      <point x="412" y="-80"/>
      <point x="428" y="-80" type="curve" smooth="yes"/>
      <point x="470" y="-80"/>
      <point x="526" y="-114"/>
      <point x="526" y="-185" type="curve" smooth="yes"/>
      <point x="526" y="-261"/>
      <point x="453" y="-298"/>
      <point x="387" y="-298" type="curve" smooth="yes"/>
      <point x="325" y="-298"/>
      <point x="278" y="-289"/>
      <point x="226" y="-259" type="curve"/>
      <point x="276" y="-181" type="line"/>
      <point x="303" y="-200"/>
      <point x="343" y="-207"/>
      <point x="361" y="-207" type="curve" smooth="yes"/>
      <point x="395" y="-207"/>
      <point x="416" y="-198"/>
      <point x="416" y="-174" type="curve" smooth="yes"/>
      <point x="416" y="-147"/>
      <point x="383" y="-142"/>
      <point x="353" y="-142" type="curve" smooth="yes"/>
      <point x="343" y="-142"/>
      <point x="302" y="-144"/>
      <point x="263" y="-158" type="curve"/>
    </contour>
  </outline>
</glyph>
<glyph name="Egrave" format="2">
  <advance width="619"/>
  <unicode hex="00C8"/>
  <outline>
    <contour>
      <point x="204" y="0" type="line"/>
      <point x="204" y="157" type="line"/>
      <point x="557" y="157" type="line"/>
      <point x="557" y="0" type="line"/>
    </contour>
    <contour>
      <point x="204" y="543" type="line"/>
      <point x="204" y="700" type="line"/>
      <point x="557" y="700" type="line"/>
      <point x="557" y="543" type="line"/>
    </contour>
    <contour>
      <point x="204" y="287" type="line"/>
      <point x="204" y="440" type="line"/>
      <point x="537" y="440" type="line"/>
      <point x="537" y="287" type="line"/>
    </contour>
    <contour>
      <point x="72" y="700" type="line"/>
      <point x="258" y="700" type="line"/>
      <point x="258" y="0" type="line"/>
      <point x="72" y="0" type="line"/>
    </contour>
    <contour>
      <point x="144" y="936" type="line"/>
      <point x="272" y="992" type="line"/>
      <point x="422" y="832" type="line"/>
      <point x="324" y="786" type="line"/>
    </contour>
  </outline>
</glyph>
<glyph name="Ecircumflex" format="2">
  <advance width="619"/>
  <unicode hex="00CA"/>
  <outline>
    <contour>
      <point x="204" y="0" type="line"/>
      <point x="204" y="157" type="line"/>
      <point x="557" y="157" type="line"/>
      <point x="557" y="0" type="line"/>
    </contour>
    <contour>
      <point x="204" y="543" type="line"/>
      <point x="204" y="700" type="line"/>
      <point x="557" y="700" type="line"/>
      <point x="557" y="543" type="line"/>
    </contour>
    <contour>
      <point x="204" y="287" type="line"/>
      <point x="204" y="440" type="line"/>
      <point x="537" y="440" type="line"/>
      <point x="537" y="287" type="line"/>
    </contour>
    <contour>
      <point x="72" y="700" type="line"/>
      <point x="258" y="700" type="line"/>
      <point x="258" y="0" type="line"/>
      <point x="72" y="0" type="line"/>
    </contour>
    <contour>
      <point x="314" y="861" type="line"/>
      <point x="228" y="778" type="line"/>
      <point x="106" y="859" type="line"/>
      <point x="314" y="999" type="line"/>
      <point x="523" y="859" type="line"/>
      <point x="400" y="778" type="line"/>
    </contour>
  </outline>
</glyph>
<glyph name="Icircumflex" format="2">
  <advance width="342"/>
  <unicode hex="00CE"/>
  <outline>
    <contour>
      <point x="72" y="700" type="line"/>
      <point x="270" y="700" type="line"/>
      <point x="270" y="0" type="line"/>
      <point x="72" y="0" type="line"/>
    </contour>
    <contour>
      <point x="171" y="861" type="line"/>
      <point x="86" y="778" type="line"/>
      <point x="-38" y="859" type="line"/>
      <point x="171" y="999" type="line"/>
      <point x="380" y="859" type="line"/>
      <point x="257" y="778" type="line"/>
    </contour>
  </outline>
</glyph>
<glyph name="Ntilde" format="2">
  <advance width="799"/>
  <unicode hex="00D1"/>
  <outline>
    <contour>
      <point x="541" y="700" type="line"/>
      <point x="728" y="700" type="line"/>
      <point x="728" y="-35" type="line"/>
      <point x="258" y="355" type="line"/>
      <point x="258" y="0" type="line"/>
      <point x="72" y="0" type="line"/>
      <point x="72" y="735" type="line"/>
      <point x="541" y="345" type="line"/>
    </contour>
    <contour>
      <point x="158" y="846" type="line"/>
      <point x="168" y="895"/>
      <point x="212" y="944"/>
      <point x="282" y="944" type="curve" smooth="yes"/>
      <point x="348" y="944"/>
      <point x="365" y="890"/>
      <point x="422" y="890" type="curve" smooth="yes"/>
      <point x="449" y="890"/>
      <point x="471" y="913"/>
      <point x="491" y="945" type="curve"/>
      <point x="570" y="861" type="line"/>
      <point x="554" y="824"/>
      <point x="493" y="772"/>
      <point x="427" y="772" type="curve" smooth="yes"/>
      <point x="372" y="772"/>
      <point x="332" y="827"/>
      <point x="282" y="827" type="curve" smooth="yes"/>
      <point x="245" y="827"/>
      <point x="236" y="791"/>
      <point x="236" y="776" type="curve"/>
    </contour>
  </outline>
</glyph>
<glyph name="Ograve" format="2">
  <advance width="830"/>
  <unicode hex="00D2"/>
  <outline>
    <contour>
      <point x="238" y="350" type="curve" smooth="yes"/>
      <point x="238" y="236"/>
      <point x="308" y="158"/>
      <point x="416" y="158" type="curve" smooth="yes"/>
      <point x="524" y="158"/>
      <point x="592" y="236"/>
      <point x="592" y="350" type="curve" smooth="yes"/>
      <point x="592" y="464"/>
      <point x="528" y="542"/>
      <point x="416" y="542" type="curve" smooth="yes"/>
      <point x="308" y="542"/>
      <point x="238" y="464"/>
    </contour>
    <contour>
      <point x="32" y="350" type="curve" smooth="yes"/>
      <point x="32" y="570"/>
      <point x="200" y="718"/>
      <point x="416" y="718" type="curve" smooth="yes"/>
      <point x="636" y="718"/>
      <point x="799" y="570"/>
      <point x="799" y="350" type="curve" smooth="yes"/>
      <point x="799" y="130"/>
      <point x="640" y="-26"/>
      <point x="416" y="-26" type="curve" smooth="yes"/>
      <point x="192" y="-26"/>
      <point x="32" y="130"/>
    </contour>
    <contour>
      <point x="258" y="936" type="line"/>
      <point x="386" y="992" type="line"/>
      <point x="536" y="832" type="line"/>
      <point x="438" y="786" type="line"/>
    </contour>
  </outline>
</glyph>
<glyph name="Otilde" format="2">
  <advance width="830"/>
  <unicode hex="00D5"/>
  <outline>
    <contour>
      <point x="238" y="350" type="curve" smooth="yes"/>
      <point x="238" y="236"/>
      <point x="308" y="158"/>
      <point x="416" y="158" type="curve" smooth="yes"/>
      <point x="524" y="158"/>
      <point x="592" y="236"/>
      <point x="592" y="350" type="curve" smooth="yes"/>
      <point x="592" y="464"/>
      <point x="528" y="542"/>
      <point x="416" y="542" type="curve" smooth="yes"/>
      <point x="308" y="542"/>
      <point x="238" y="464"/>
    </contour>
    <contour>
      <point x="32" y="350" type="curve" smooth="yes"/>
      <point x="32" y="570"/>
      <point x="200" y="718"/>
      <point x="416" y="718" type="curve" smooth="yes"/>
      <point x="636" y="718"/>
      <point x="799" y="570"/>
      <point x="799" y="350" type="curve" smooth="yes"/>
      <point x="799" y="130"/>
      <point x="640" y="-26"/>
      <point x="416" y="-26" type="curve" smooth="yes"/>
      <point x="192" y="-26"/>
      <point x="32" y="130"/>
    </contour>
    <contour>
      <point x="230" y="846" type="line"/>
      <point x="240" y="895"/>
      <point x="284" y="944"/>
      <point x="354" y="944" type="curve" smooth="yes"/>
      <point x="420" y="944"/>
      <point x="437" y="890"/>
      <point x="494" y="890" type="curve" smooth="yes"/>
      <point x="521" y="890"/>
      <point x="543" y="913"/>
      <point x="563" y="945" type="curve"/>
      <point x="642" y="861" type="line"/>
      <point x="626" y="824"/>
      <point x="565" y="772"/>
      <point x="499" y="772" type="curve" smooth="yes"/>
      <point x="444" y="772"/>
      <point x="404" y="827"/>
      <point x="354" y="827" type="curve" smooth="yes"/>
      <point x="317" y="827"/>
      <point x="308" y="791"/>
      <point x="308" y="776" type="curve"/>
    </contour>
  </outline>
</glyph>
<glyph name="Oslash" format="2">
  <advance width="790"/>
  <unicode hex="00D8"/>
  <outline>
    <contour>
      <point x="238" y="350" type="curve" smooth="yes"/>
      <point x="238" y="232"/>
      <point x="308" y="158"/>
      <point x="416" y="158" type="curve" smooth="yes"/>
      <point x="524" y="158"/>
      <point x="592" y="232"/>
      <point x="592" y="350" type="curve" smooth="yes"/>
      <point x="592" y="468"/>
      <point x="524" y="542"/>
      <point x="416" y="542" type="curve" smooth="yes"/>
      <point x="308" y="542"/>
      <point x="238" y="468"/>
    </contour>
    <contour>
      <point x="32" y="350" type="curve" smooth="yes"/>
      <point x="32" y="570"/>
      <point x="196" y="718"/>
      <point x="416" y="718" type="curve" smooth="yes"/>
      <point x="636" y="718"/>
      <point x="799" y="570"/>
      <point x="799" y="350" type="curve" smooth="yes"/>
      <point x="799" y="130"/>
      <point x="636" y="-26"/>
      <point x="416" y="-26" type="curve" smooth="yes"/>
      <point x="196" y="-26"/>
      <point x="32" y="130"/>
    </contour>
    <contour>
      <point x="700" y="758" type="line"/>
      <point x="776" y="702" type="line"/>
      <point x="126" y="-58" type="line"/>
      <point x="52" y="-2" type="line"/>
    </contour>
  </outline>
</glyph>
<glyph name="Udieresis" format="2">
  <advance width="723"/>
  <unicode hex="00DC"/>
  <outline>
    <contour>
      <point x="67" y="700" type="line"/>
      <point x="262" y="700" type="line"/>
      <point x="262" y="246" type="line" smooth="yes"/>
      <point x="262" y="182"/>
      <point x="294" y="139"/>
      <point x="362" y="139" type="curve" smooth="yes"/>
      <point x="430" y="139"/>
      <point x="462" y="182"/>
      <point x="462" y="246" type="curve" smooth="yes"/>
      <point x="462" y="700" type="line"/>
      <point x="656" y="700" type="line"/>
      <point x="656" y="230" type="line" smooth="yes"/>
      <point x="656" y="42"/>
      <point x="524" y="-34"/>
      <point x="362" y="-34" type="curve" smooth="yes"/>
      <point x="200" y="-34"/>
      <point x="67" y="42"/>
      <point x="67" y="230" type="curve" smooth="yes"/>
    </contour>
    <contour>
      <point x="416" y="868" type="curve" smooth="yes"/>
      <point x="416" y="922"/>
      <point x="460" y="958"/>
      <point x="514" y="958" type="curve" smooth="yes"/>
      <point x="568" y="958"/>
      <point x="612" y="922"/>
      <point x="612" y="868" type="curve" smooth="yes"/>
      <point x="612" y="814"/>
      <point x="568" y="778"/>
      <point x="514" y="778" type="curve" smooth="yes"/>
      <point x="460" y="778"/>
      <point x="416" y="814"/>
    </contour>
    <contour>
      <point x="111" y="868" type="curve" smooth="yes"/>
      <point x="111" y="922"/>
      <point x="155" y="958"/>
      <point x="209" y="958" type="curve" smooth="yes"/>
      <point x="263" y="958"/>
      <point x="307" y="922"/>
      <point x="307" y="868" type="curve" smooth="yes"/>
      <point x="307" y="814"/>
      <point x="263" y="778"/>
      <point x="209" y="778" type="curve" smooth="yes"/>
      <point x="155" y="778"/>
      <point x="111" y="814"/>
    </contour>
  </outline>
</glyph>
<glyph name="Yacute" format="2">
  <advance width="690"/>
  <unicode hex="00DD"/>
  <outline>
    <contour>
      <point x="516" y="928" type="line"/>
      <point x="336" y="778" type="line"/>
      <point x="238" y="824" type="line"/>
      <point x="388" y="984" type="line"/>
    </contour>
    <contour>
      <point x="468" y="700" type="line"/>
      <point x="694" y="700" type="line"/>
      <point x="445" y="280" type="line"/>
      <point x="445" y="0" type="line"/>
      <point x="246" y="0" type="line"/>
      <point x="246" y="279" type="line"/>
      <point x="-3" y="700" type="line"/>
      <point x="222" y="700" type="line"/>
      <point x="345" y="456" type="line"/>
    </contour>
  </outline>
</glyph>
<glyph name="Thorn" format="2">
  <advance width="631"/>
  <unicode hex="00DE"/>
  <outline>
    <contour>
      <point x="80" y="700" type="line"/>
      <point x="246" y="700" type="line"/>
      <point x="246" y="0" type="line"/>
      <point x="80" y="0" type="line"/>
    </contour>
    <contour>
      <point x="188" y="436" type="line"/>
      <point x="188" y="584" type="line"/>
      <point x="323" y="584" type="line" smooth="yes"/>
      <point x="515" y="584"/>
      <point x="606" y="500"/>
      <point x="606" y="354" type="curve" smooth="yes"/>
      <point x="606" y="208"/>
      <point x="515" y="124"/>
      <point x="323" y="124" type="curve" smooth="yes"/>
      <point x="188" y="124" type="line"/>
      <point x="188" y="273" type="line"/>
      <point x="323" y="273" type="line" smooth="yes"/>
      <point x="396" y="273"/>
      <point x="435" y="292"/>
      <point x="435" y="354" type="curve" smooth="yes"/>
      <point x="435" y="416"/>
      <point x="396" y="436"/>
      <point x="323" y="436" type="curve" smooth="yes"/>
    </contour>
  </outline>
</glyph>
<glyph name="germandbls" format="2">
  <advance width="614"/>
  <unicode hex="00DF"/>
  <outline>
    <contour>
      <point x="382" y="-12" type="curve" smooth="yes"/>
      <point x="332" y="-12"/>
      <point x="277" y="2"/>
      <point x="244" y="20" type="curve"/>
      <point x="268" y="152" type="line"/>
      <point x="295" y="136"/>
      <point x="334" y="124"/>
      <point x="364" y="124" type="curve" smooth="yes"/>
      <point x="412" y="124"/>
      <point x="444" y="154"/>
      <point x="444" y="198" type="curve" smooth="yes"/>
      <point x="444" y="290"/>
      <point x="298" y="294"/>
      <point x="298" y="382" type="curve" smooth="yes"/>
      <point x="298" y="448"/>
      <point x="380" y="482"/>
      <point x="380" y="566" type="curve" smooth="yes"/>
      <point x="380" y="618"/>
      <point x="348" y="644"/>
      <point x="298" y="644" type="curve" smooth="yes"/>
      <point x="240" y="644"/>
      <point x="210" y="611"/>
      <point x="210" y="539" type="curve" smooth="yes"/>
      <point x="212" y="-2" type="line"/>
      <point x="38" y="-2" type="line"/>
      <point x="38" y="536" type="line" smooth="yes"/>
      <point x="38" y="706"/>
      <point x="133" y="798"/>
      <point x="301" y="798" type="curve" smooth="yes"/>
      <point x="443" y="798"/>
      <point x="560" y="728"/>
      <point x="560" y="602" type="curve" smooth="yes"/>
      <point x="560" y="482"/>
      <point x="479" y="452"/>
      <point x="479" y="400" type="curve" smooth="yes"/>
      <point x="479" y="338"/>
      <point x="624" y="339"/>
      <point x="624" y="196" type="curve" smooth="yes"/>
      <point x="624" y="80"/>
      <point x="502" y="-12"/>
    </contour>
  </outline>
</glyph>
<glyph name="ae" format="2">
  <advance width="917"/>
  <unicode hex="00E6"/>
  <outline>
    <contour>
      <point x="220" y="-10" type="curve" smooth="yes"/>
      <point x="94" y="-10"/>
      <point x="22" y="41"/>
      <point x="22" y="129" type="curve" smooth="yes"/>
      <point x="22" y="217"/>
      <point x="102" y="277"/>
      <point x="222" y="277" type="curve" smooth="yes"/>
      <point x="281" y="277"/>
      <point x="333" y="263"/>
      <point x="424" y="222" type="curve"/>
      <point x="345" y="222" type="line"/>
      <point x="345" y="277" type="line" smooth="yes"/>
      <point x="345" y="321"/>
      <point x="318" y="346"/>
      <point x="268" y="346" type="curve" smooth="yes"/>
      <point x="224" y="346"/>
      <point x="157" y="328"/>
      <point x="119" y="308" type="curve"/>
      <point x="64" y="422" type="line"/>
      <point x="146" y="458"/>
      <point x="216" y="474"/>
      <point x="284" y="474" type="curve" smooth="yes"/>
      <point x="384" y="474"/>
      <point x="437" y="438"/>
      <point x="447" y="361" type="curve"/>
      <point x="434" y="361" type="line"/>
      <point x="478" y="433"/>
      <point x="553" y="470"/>
      <point x="652" y="470" type="curve" smooth="yes"/>
      <point x="800" y="470"/>
      <point x="884" y="386"/>
      <point x="884" y="238" type="curve" smooth="yes"/>
      <point x="884" y="220"/>
      <point x="883" y="201"/>
      <point x="882" y="194" type="curve"/>
      <point x="513" y="194" type="line"/>
      <point x="532" y="212" type="line"/>
      <point x="537" y="142"/>
      <point x="568" y="110"/>
      <point x="626" y="110" type="curve" smooth="yes"/>
      <point x="672" y="110"/>
      <point x="713" y="130"/>
      <point x="731" y="162" type="curve"/>
      <point x="888" y="132" type="line"/>
      <point x="836" y="36"/>
      <point x="755" y="-10"/>
      <point x="632" y="-10" type="curve" smooth="yes"/>
      <point x="522" y="-10"/>
      <point x="455" y="26"/>
      <point x="422" y="101" type="curve"/>
      <point x="434" y="100" type="line"/>
      <point x="410" y="29"/>
      <point x="333" y="-10"/>
    </contour>
    <contour>
      <point x="252" y="98" type="curve" smooth="yes"/>
      <point x="311" y="98"/>
      <point x="346" y="128"/>
      <point x="348" y="184" type="curve"/>
      <point x="348" y="139" type="line"/>
      <point x="344" y="187" type="line"/>
      <point x="370" y="160" type="line"/>
      <point x="339" y="178"/>
      <point x="302" y="188"/>
      <point x="266" y="188" type="curve" smooth="yes"/>
      <point x="219" y="188"/>
      <point x="196" y="172"/>
      <point x="196" y="138" type="curve" smooth="yes"/>
      <point x="196" y="110"/>
      <point x="214" y="98"/>
    </contour>
    <contour>
      <point x="532" y="235" type="curve"/>
      <point x="513" y="283" type="line"/>
      <point x="721" y="283" type="line"/>
      <point x="698" y="250" type="line"/>
      <point x="700" y="260"/>
      <point x="700" y="260"/>
      <point x="700" y="266" type="curve" smooth="yes"/>
      <point x="700" y="327"/>
      <point x="673" y="360"/>
      <point x="622" y="360" type="curve" smooth="yes"/>
      <point x="563" y="360"/>
      <point x="532" y="317"/>
    </contour>
  </outline>
</glyph>
<glyph name="ecircumflex" format="2">
  <advance width="591"/>
  <unicode hex="00EA"/>
  <outline>
    <contour>
      <point x="126" y="194" type="line"/>
      <point x="126" y="283" type="line"/>
      <point x="372" y="283" type="line"/>
      <point x="365" y="333"/>
      <point x="343" y="360"/>
      <point x="296" y="360" type="curve" smooth="yes"/>
      <point x="240" y="360"/>
      <point x="208" y="322"/>
      <point x="208" y="252" type="curve"/>
      <point x="206" y="230" type="line"/>
      <point x="206" y="140"/>
      <point x="250" y="110"/>
      <point x="300" y="110" type="curve" smooth="yes"/>
      <point x="350" y="110"/>
      <point x="385" y="128"/>
      <point x="404" y="162" type="curve"/>
      <point x="562" y="132" type="line"/>
      <point x="516" y="46"/>
      <point x="442" y="-10"/>
      <point x="306" y="-10" type="curve" smooth="yes"/>
      <point x="124" y="-10"/>
      <point x="31" y="91"/>
      <point x="31" y="230" type="curve" smooth="yes"/>
      <point x="31" y="247"/>
      <point x="32" y="263"/>
      <point x="35" y="279" type="curve" smooth="yes"/>
      <point x="54" y="392"/>
      <point x="140" y="470"/>
      <point x="300" y="470" type="curve" smooth="yes"/>
      <point x="470" y="470"/>
      <point x="557" y="383"/>
      <point x="557" y="238" type="curve" smooth="yes"/>
      <point x="557" y="230"/>
      <point x="558" y="212"/>
      <point x="556" y="194" type="curve"/>
    </contour>
    <contour>
      <point x="300" y="614" type="line"/>
      <point x="214" y="531" type="line"/>
      <point x="91" y="612" type="line"/>
      <point x="300" y="752" type="line"/>
      <point x="508" y="612" type="line"/>
      <point x="385" y="531" type="line"/>
    </contour>
  </outline>
</glyph>
<glyph name="eth" format="2">
  <advance width="641"/>
  <unicode hex="00F0"/>
  <outline>
    <contour>
      <point x="317" y="-18" type="curve" smooth="yes"/>
      <point x="161" y="-18"/>
      <point x="50" y="93"/>
      <point x="50" y="250" type="curve" smooth="yes"/>
      <point x="50" y="386"/>
      <point x="134" y="478"/>
      <point x="262" y="478" type="curve" smooth="yes"/>
      <point x="354" y="478"/>
      <point x="433" y="429"/>
      <point x="496" y="331" type="curve"/>
      <point x="454" y="332" type="line"/>
      <point x="378" y="473"/>
      <point x="270" y="590"/>
      <point x="128" y="690" type="curve"/>
      <point x="260" y="772" type="line"/>
      <point x="477" y="582"/>
      <point x="592" y="400"/>
      <point x="592" y="250" type="curve" smooth="yes"/>
      <point x="592" y="96"/>
      <point x="475" y="-18"/>
    </contour>
    <contour>
      <point x="320" y="130" type="curve" smooth="yes"/>
      <point x="374" y="130"/>
      <point x="412" y="172"/>
      <point x="412" y="230" type="curve" smooth="yes"/>
      <point x="412" y="288"/>
      <point x="374" y="331"/>
      <point x="320" y="331" type="curve" smooth="yes"/>
      <point x="266" y="331"/>
      <point x="228" y="288"/>
      <point x="228" y="230" type="curve" smooth="yes"/>
      <point x="228" y="172"/>
      <point x="266" y="130"/>
    </contour>
    <contour>
      <point x="148" y="508" type="line"/>
      <point x="132" y="566" type="line"/>
      <point x="501" y="679" type="line"/>
      <point x="518" y="622" type="line"/>
    </contour>
  </outline>
</glyph>
<glyph name="divide" format="2">
  <advance width="644"/>
  <unicode hex="00F7"/>
  <outline>
    <contour>
      <point x="216" y="584" type="curve" smooth="yes"/>
      <point x="216" y="641"/>
      <point x="260" y="688"/>
      <point x="322" y="688" type="curve" smooth="yes"/>
      <point x="384" y="688"/>
      <point x="428" y="641"/>
      <point x="428" y="584" type="curve" smooth="yes"/>
      <point x="428" y="527"/>
      <point x="384" y="480"/>
      <point x="322" y="480" type="curve" smooth="yes"/>
      <point x="260" y="480"/>
      <point x="216" y="527"/>
    </contour>
    <contour>
      <point x="216" y="106" type="curve" smooth="yes"/>
      <point x="216" y="163"/>
      <point x="260" y="210"/>
      <point x="322" y="210" type="curve" smooth="yes"/>
      <point x="384" y="210"/>
      <point x="428" y="163"/>
      <point x="428" y="106" type="curve" smooth="yes"/>
      <point x="428" y="49"/>
      <point x="384" y="3"/>
      <point x="322" y="3" type="curve" smooth="yes"/>
      <point x="260" y="3"/>
      <point x="216" y="49"/>
    </contour>
    <contour>
      <point x="16" y="270" type="line"/>
      <point x="16" y="423" type="line"/>
      <point x="629" y="423" type="line"/>
      <point x="629" y="270" type="line"/>
    </contour>
  </outline>
</glyph>
<glyph name="ugrave" format="2">
  <advance width="590"/>
  <unicode hex="00F9"/>
  <outline>
    <contour>
      <point x="362" y="0" type="line"/>
      <point x="362" y="460" type="line"/>
      <point x="536" y="460" type="line"/>
      <point x="536" y="0" type="line"/>
    </contour>
    <contour>
      <point x="236" y="180" type="line" smooth="yes"/>
      <point x="236" y="132"/>
      <point x="250" y="105"/>
      <point x="294" y="105" type="curve" smooth="yes"/>
      <point x="336" y="105"/>
      <point x="362" y="130"/>
      <point x="362" y="180" type="curve"/>
      <point x="390" y="188" type="line"/>
      <point x="390" y="79"/>
      <point x="341" y="-11"/>
      <point x="221" y="-11" type="curve" smooth="yes"/>
      <point x="101" y="-11"/>
      <point x="54" y="51"/>
      <point x="54" y="162" type="curve" smooth="yes"/>
      <point x="54" y="460" type="line"/>
      <point x="236" y="460" type="line"/>
    </contour>
    <contour>
      <point x="142" y="684" type="line"/>
      <point x="270" y="741" type="line"/>
      <point x="420" y="581" type="line"/>
      <point x="322" y="534" type="line"/>
    </contour>
  </outline>
</glyph>
<glyph name="udieresis" format="2">
  <advance width="590"/>
  <unicode hex="00FC"/>
  <outline>
    <contour>
      <point x="362" y="0" type="line"/>
      <point x="362" y="460" type="line"/>
      <point x="536" y="460" type="line"/>
      <point x="536" y="0" type="line"/>
    </contour>
    <contour>
      <point x="236" y="180" type="line" smooth="yes"/>
      <point x="236" y="132"/>
      <point x="250" y="105"/>
      <point x="294" y="105" type="curve" smooth="yes"/>
      <point x="336" y="105"/>
      <point x="362" y="130"/>
      <point x="362" y="180" type="curve"/>
      <point x="390" y="188" type="line"/>
      <point x="390" y="79"/>
      <point x="341" y="-11"/>
      <point x="221" y="-11" type="curve" smooth="yes"/>
      <point x="101" y="-11"/>
      <point x="54" y="51"/>
      <point x="54" y="162" type="curve" smooth="yes"/>
      <point x="54" y="460" type="line"/>
      <point x="236" y="460" type="line"/>
    </contour>
    <contour>
      <point x="326" y="624" type="curve" smooth="yes"/>
      <point x="326" y="678"/>
      <point x="370" y="714"/>
      <point x="424" y="714" type="curve" smooth="yes"/>
      <point x="478" y="714"/>
      <point x="522" y="678"/>
      <point x="522" y="624" type="curve" smooth="yes"/>
      <point x="522" y="570"/>
      <point x="478" y="534"/>
      <point x="424" y="534" type="curve" smooth="yes"/>
      <point x="370" y="534"/>
      <point x="326" y="570"/>
    </contour>
    <contour>
      <point x="69" y="624" type="curve" smooth="yes"/>
      <point x="69" y="678"/>
      <point x="113" y="714"/>
      <point x="167" y="714" type="curve" smooth="yes"/>
      <point x="221" y="714"/>
      <point x="265" y="678"/>
      <point x="265" y="624" type="curve" smooth="yes"/>
      <point x="265" y="570"/>
      <point x="221" y="534"/>
      <point x="167" y="534" type="curve" smooth="yes"/>
      <point x="113" y="534"/>
      <point x="69" y="570"/>
    </contour>
  </outline>
</glyph>
<glyph name="thorn" format="2">
  <advance width="630"/>
  <unicode hex="00FE"/>
  <outline>
    <contour>
      <point x="227" y="-220" type="line"/>
      <point x="54" y="-220" type="line"/>
      <point x="54" y="780" type="line"/>
      <point x="227" y="780" type="line"/>
    </contour>
    <contour>
      <point x="600" y="230" type="curve" smooth="yes"/>
      <point x="600" y="73"/>
      <point x="492" y="-10"/>
      <point x="384" y="-10" type="curve" smooth="yes"/>
      <point x="269" y="-10"/>
      <point x="183" y="81"/>
      <point x="183" y="230" type="curve" smooth="yes"/>
      <point x="183" y="379"/>
      <point x="269" y="470"/>
      <point x="384" y="470" type="curve" smooth="yes"/>
      <point x="492" y="470"/>
      <point x="600" y="387"/>
    </contour>
    <contour>
      <point x="418" y="230" type="curve" smooth="yes"/>
      <point x="418" y="292"/>
      <point x="374" y="334"/>
      <point x="322" y="334" type="curve" smooth="yes"/>
      <point x="276" y="334"/>
      <point x="227" y="296"/>
      <point x="227" y="230" type="curve" smooth="yes"/>
      <point x="227" y="164"/>
      <point x="276" y="126"/>
      <point x="322" y="126" type="curve" smooth="yes"/>
      <point x="374" y="126"/>
      <point x="418" y="168"/>
    </contour>
  </outline>
</glyph>
<glyph name="ydieresis" format="2">
  <advance width="545"/>
  <unicode hex="00FF"/>
  <outline>
    <contour>
      <point x="558" y="460" type="line"/>
      <point x="258" y="-220" type="line"/>
      <point x="86" y="-220" type="line"/>
      <point x="194" y="28" type="line"/>
      <point x="-12" y="460" type="line"/>
      <point x="176" y="460" type="line"/>
      <point x="326" y="88" type="line"/>
      <point x="234" y="88" type="line"/>
      <point x="382" y="460" type="line"/>
    </contour>
    <contour>
      <point x="303" y="620" type="curve" smooth="yes"/>
      <point x="303" y="674"/>
      <point x="347" y="710"/>
      <point x="401" y="710" type="curve" smooth="yes"/>
      <point x="455" y="710"/>
      <point x="500" y="674"/>
      <point x="500" y="620" type="curve" smooth="yes"/>
      <point x="500" y="566"/>
      <point x="455" y="531"/>
      <point x="401" y="531" type="curve" smooth="yes"/>
      <point x="347" y="531"/>
      <point x="303" y="566"/>
    </contour>
    <contour>
      <point x="46" y="620" type="curve" smooth="yes"/>
      <point x="46" y="674"/>
      <point x="90" y="710"/>
      <point x="144" y="710" type="curve" smooth="yes"/>
      <point x="198" y="710"/>
      <point x="242" y="674"/>
      <point x="242" y="620" type="curve" smooth="yes"/>
      <point x="242" y="566"/>
      <point x="198" y="531"/>
      <point x="144" y="531" type="curve" smooth="yes"/>
      <point x="90" y="531"/>
      <point x="46" y="566"/>
    </contour>
  </outline>
</glyph>
<glyph name="Aogonek" format="2">
  <advance width="757"/>
  <unicode hex="0104"/>
  <outline>
    <contour>
      <point x="196" y="112" type="line"/>
      <point x="202" y="256" type="line"/>
      <point x="560" y="256" type="line"/>
      <point x="566" y="112" type="line"/>
    </contour>
    <contour>
      <point x="379" y="412" type="line"/>
      <point x="287" y="203" type="line"/>
      <point x="299" y="159" type="line"/>
      <point x="218" y="0" type="line"/>
      <point x="-3" y="0" type="line"/>
      <point x="379" y="747" type="line"/>
      <point x="760" y="0" type="line"/>
      <point x="540" y="0" type="line"/>
      <point x="460" y="152" type="line"/>
      <point x="471" y="202" type="line"/>
    </contour>
    <contour>
      <point x="700" y="-106" type="curve"/>
      <point x="734" y="-180" type="line"/>
      <point x="719" y="-200"/>
      <point x="690" y="-220"/>
      <point x="630" y="-220" type="curve" smooth="yes"/>
      <point x="570" y="-220"/>
      <point x="514" y="-187"/>
      <point x="514" y="-120" type="curve" smooth="yes"/>
      <point x="514" y="-53"/>
      <point x="584" y="-11"/>
      <point x="654" y="25" type="curve"/>
      <point x="696" y="0" type="line"/>
      <point x="644" y="-30"/>
      <point x="619" y="-63"/>
      <point x="619" y="-92" type="curve" smooth="yes"/>
      <point x="619" y="-114"/>
      <point x="628" y="-126"/>
      <point x="650" y="-126" type="curve" smooth="yes"/>
      <point x="668" y="-126"/>
      <point x="686" y="-119"/>
    </contour>
  </outline>
</glyph>
<glyph name="Ccircumflex" format="2">
  <advance width="705"/>
  <unicode hex="0108"/>
  <outline>
    <contour>
      <point x="246" y="350" type="curve" smooth="yes"/>
      <point x="246" y="232"/>
      <point x="334" y="166"/>
      <point x="440" y="166" type="curve" smooth="yes"/>
      <point x="539" y="166"/>
      <point x="599" y="210"/>
      <point x="644" y="256" type="curve"/>
      <point x="644" y="50" type="line"/>
      <point x="588" y="10"/>
      <point x="528" y="-18"/>
      <point x="426" y="-18" type="curve" smooth="yes"/>
      <point x="192" y="-18"/>
      <point x="32" y="129"/>
      <point x="32" y="350" type="curve" smooth="yes"/>
      <point x="32" y="571"/>
      <point x="192" y="718"/>
      <point x="426" y="718" type="curve" smooth="yes"/>
      <point x="528" y="718"/>
      <point x="588" y="690"/>
      <point x="644" y="650" type="curve"/>
      <point x="644" y="444" type="line"/>
      <point x="599" y="490"/>
      <point x="539" y="534"/>
      <point x="440" y="534" type="curve" smooth="yes"/>
      <point x="334" y="534"/>
      <point x="246" y="468"/>
    </contour>
    <contour>
      <point x="426" y="861" type="line"/>
      <point x="341" y="778" type="line"/>
      <point x="218" y="859" type="line"/>
      <point x="426" y="999" type="line"/>
      <point x="636" y="859" type="line"/>
      <point x="512" y="778" type="line"/>
    </contour>
  </outline>
</glyph>
<glyph name="Cdotaccent" format="2">
  <advance width="705"/>
  <unicode hex="010A"/>
  <outline>
    <contour>
      <point x="246" y="350" type="curve" smooth="yes"/>
      <point x="246" y="232"/>
      <point x="334" y="166"/>
      <point x="440" y="166" type="curve" smooth="yes"/>
      <point x="539" y="166"/>
      <point x="599" y="210"/>
      <point x="644" y="256" type="curve"/>
      <point x="644" y="50" type="line"/>
      <point x="588" y="10"/>
      <point x="528" y="-18"/>
      <point x="426" y="-18" type="curve" smooth="yes"/>
      <point x="192" y="-18"/>
      <point x="32" y="129"/>
      <point x="32" y="350" type="curve" smooth="yes"/>
      <point x="32" y="571"/>
      <point x="192" y="718"/>
      <point x="426" y="718" type="curve" smooth="yes"/>
      <point x="528" y="718"/>
      <point x="588" y="690"/>
      <point x="644" y="650" type="curve"/>
      <point x="644" y="444" type="line"/>
      <point x="599" y="490"/>
      <point x="539" y="534"/>
      <point x="440" y="534" type="curve" smooth="yes"/>
      <point x="334" y="534"/>
      <point x="246" y="468"/>
    </contour>
    <contour>
      <point x="296" y="868" type="curve" smooth="yes"/>
      <point x="296" y="922"/>
      <point x="340" y="958"/>
      <point x="394" y="958" type="curve" smooth="yes"/>
      <point x="448" y="958"/>
      <point x="492" y="922"/>
      <point x="492" y="868" type="curve" smooth="yes"/>
      <point x="492" y="814"/>
      <point x="448" y="778"/>
      <point x="394" y="778" type="curve" smooth="yes"/>
      <point x="340" y="778"/>
      <point x="296" y="814"/>
    </contour>
  </outline>
</glyph>
<glyph name="Dcroat" format="2">
  <advance width="749"/>
  <unicode hex="0110"/>
  <outline>
    <contour>
      <point x="5" y="294" type="line"/>
      <point x="5" y="402" type="line"/>
      <point x="362" y="402" type="line"/>
      <point x="362" y="294" type="line"/>
    </contour>
    <contour>
      <point x="72" y="700" type="line"/>
      <point x="274" y="700" type="line"/>
      <point x="274" y="0" type="line"/>
      <point x="72" y="0" type="line"/>
    </contour>
    <contour>
      <point x="334" y="0" type="curve" smooth="yes"/>
      <point x="204" y="0" type="line"/>
      <point x="204" y="170" type="line"/>
      <point x="326" y="170" type="line" smooth="yes"/>
      <point x="419" y="170"/>
      <point x="514" y="204"/>
      <point x="514" y="350" type="curve" smooth="yes"/>
      <point x="514" y="496"/>
      <point x="419" y="530"/>
      <point x="326" y="530" type="curve" smooth="yes"/>
      <point x="204" y="530" type="line"/>
      <point x="204" y="700" type="line"/>
      <point x="334" y="700" type="line" smooth="yes"/>
      <point x="570" y="700"/>
      <point x="717" y="567"/>
      <point x="717" y="350" type="curve" smooth="yes"/>
      <point x="717" y="133"/>
      <point x="570" y="0"/>
    </contour>
  </outline>
</glyph>
<glyph name="Emacron" format="2">
  <advance width="619"/>
  <unicode hex="0112"/>
  <outline>
    <contour>
      <point x="204" y="0" type="line"/>
      <point x="204" y="157" type="line"/>
      <point x="557" y="157" type="line"/>
      <point x="557" y="0" type="line"/>
    </contour>
    <contour>
      <point x="204" y="543" type="line"/>
      <point x="204" y="700" type="line"/>
      <point x="557" y="700" type="line"/>
      <point x="557" y="543" type="line"/>
    </contour>
    <contour>
      <point x="204" y="287" type="line"/>
      <point x="204" y="440" type="line"/>
      <point x="537" y="440" type="line"/>
      <point x="537" y="287" type="line"/>
    </contour>
    <contour>
      <point x="72" y="700" type="line"/>
      <point x="258" y="700" type="line"/>
      <point x="258" y="0" type="line"/>
      <point x="72" y="0" type="line"/>
    </contour>
    <contour>
      <point x="126" y="778" type="line"/>
      <point x="126" y="926" type="line"/>
      <point x="504" y="926" type="line"/>
      <point x="504" y="778" type="line"/>
    </contour>
  </outline>
</glyph>
<glyph name="Eogonek" format="2">
  <advance width="619"/>
  <unicode hex="0118"/>
  <outline>
    <contour>
      <point x="204" y="0" type="line"/>
      <point x="204" y="157" type="line"/>
      <point x="557" y="157" type="line"/>
      <point x="557" y="0" type="line"/>
    </contour>
    <contour>
      <point x="204" y="543" type="line"/>
      <point x="204" y="700" type="line"/>
      <point x="557" y="700" type="line"/>
      <point x="557" y="543" type="line"/>
    </contour>
    <contour>
      <point x="204" y="287" type="line"/>
      <point x="204" y="440" type="line"/>
      <point x="537" y="440" type="line"/>
      <point x="537" y="287" type="line"/>
    </contour>
    <contour>
      <point x="72" y="700" type="line"/>
      <point x="258" y="700" type="line"/>
      <point x="258" y="0" type="line"/>
      <point x="72" y="0" type="line"/>
    </contour>
    <contour>
      <point x="410" y="-106" type="curve"/>
      <point x="442" y="-180" type="line"/>
      <point x="427" y="-200"/>
      <point x="398" y="-220"/>
      <point x="338" y="-220" type="curve" smooth="yes"/>
      <point x="278" y="-220"/>
      <point x="224" y="-187"/>
      <point x="224" y="-120" type="curve" smooth="yes"/>
      <point x="224" y="-53"/>
      <point x="294" y="-11"/>
      <point x="364" y="25" type="curve"/>
      <point x="404" y="0" type="line"/>
      <point x="352" y="-30"/>
      <point x="328" y="-63"/>
      <point x="328" y="-92" type="curve" smooth="yes"/>
      <point x="328" y="-114"/>
      <point x="338" y="-126"/>
      <point x="360" y="-126" type="curve" smooth="yes"/>
      <point x="378" y="-126"/>
      <point x="396" y="-119"/>
    </contour>
  </outline>
</glyph>
<glyph name="eogonek" format="2">
  <advance width="591"/>
  <unicode hex="0119"/>
  <outline>
    <contour>
      <point x="126" y="194" type="line"/>
      <point x="126" y="283" type="line"/>
      <point x="372" y="283" type="line"/>
      <point x="365" y="333"/>
      <point x="343" y="360"/>
      <point x="296" y="360" type="curve" smooth="yes"/>
      <point x="240" y="360"/>
      <point x="208" y="322"/>
      <point x="208" y="252" type="curve"/>
      <point x="206" y="230" type="line"/>
      <point x="206" y="140"/>
      <point x="250" y="110"/>
      <point x="300" y="110" type="curve" smooth="yes"/>
      <point x="350" y="110"/>
      <point x="385" y="128"/>
      <point x="404" y="162" type="curve"/>
      <point x="562" y="132" type="line"/>
      <point x="516" y="46"/>
      <point x="442" y="-10"/>
      <point x="306" y="-10" type="curve" smooth="yes"/>
      <point x="124" y="-10"/>
      <point x="31" y="91"/>
      <point x="31" y="230" type="curve" smooth="yes"/>
      <point x="31" y="247"/>
      <point x="32" y="263"/>
      <point x="35" y="279" type="curve" smooth="yes"/>
      <point x="54" y="392"/>
      <point x="140" y="470"/>
      <point x="300" y="470" type="curve" smooth="yes"/>
      <point x="470" y="470"/>
      <point x="557" y="383"/>
      <point x="557" y="238" type="curve" smooth="yes"/>
      <point x="557" y="230"/>
      <point x="558" y="212"/>
      <point x="556" y="194" type="curve"/>
    </contour>
    <contour>
      <point x="336" y="-95" type="curve"/>
      <point x="368" y="-169" type="line"/>
      <point x="353" y="-189"/>
      <point x="324" y="-209"/>
      <point x="264" y="-209" type="curve" smooth="yes"/>
      <point x="204" y="-209"/>
      <point x="150" y="-176"/>
      <point x="150" y="-109" type="curve" smooth="yes"/>
      <point x="150" y="-42"/>
      <point x="220" y="0"/>
      <point x="290" y="36" type="curve"/>
      <point x="330" y="11" type="line"/>
      <point x="278" y="-19"/>
      <point x="254" y="-52"/>
      <point x="254" y="-81" type="curve" smooth="yes"/>
      <point x="254" y="-103"/>
      <point x="264" y="-115"/>
      <point x="286" y="-115" type="curve" smooth="yes"/>
      <point x="304" y="-115"/>
      <point x="322" y="-108"/>
    </contour>
  </outline>
</glyph>
<glyph name="gbreve" format="2">
  <advance width="622"/>
  <unicode hex="011F"/>
  <outline>
    <contour>
      <point x="41" y="-34" type="curve"/>
      <point x="208" y="-34" type="line"/>
      <point x="214" y="-88"/>
      <point x="250" y="-106"/>
      <point x="300" y="-106" type="curve" smooth="yes"/>
      <point x="362" y="-106"/>
      <point x="404" y="-66"/>
      <point x="404" y="10" type="curve" smooth="yes"/>
      <point x="404" y="460" type="line"/>
      <point x="569" y="460" type="line"/>
      <point x="569" y="10" type="line" smooth="yes"/>
      <point x="569" y="-174"/>
      <point x="456" y="-242"/>
      <point x="308" y="-242" type="curve" smooth="yes"/>
      <point x="124" y="-242"/>
      <point x="55" y="-157"/>
    </contour>
    <contour>
      <point x="31" y="238" type="curve" smooth="yes"/>
      <point x="31" y="395"/>
      <point x="138" y="470"/>
      <point x="246" y="470" type="curve" smooth="yes"/>
      <point x="361" y="470"/>
      <point x="448" y="387"/>
      <point x="448" y="238" type="curve" smooth="yes"/>
      <point x="448" y="89"/>
      <point x="361" y="6"/>
      <point x="246" y="6" type="curve" smooth="yes"/>
      <point x="138" y="6"/>
      <point x="31" y="81"/>
    </contour>
    <contour>
      <point x="214" y="238" type="curve" smooth="yes"/>
      <point x="214" y="176"/>
      <point x="258" y="142"/>
      <point x="310" y="142" type="curve" smooth="yes"/>
      <point x="356" y="142"/>
      <point x="404" y="172"/>
      <point x="404" y="238" type="curve" smooth="yes"/>
      <point x="404" y="304"/>
      <point x="356" y="334"/>
      <point x="310" y="334" type="curve" smooth="yes"/>
      <point x="258" y="334"/>
      <point x="214" y="300"/>
    </contour>
    <contour>
      <point x="170" y="679" type="curve"/>
      <point x="278" y="679" type="line"/>
      <point x="278" y="641"/>
      <point x="306" y="624"/>
      <point x="336" y="624" type="curve" smooth="yes"/>
      <point x="366" y="624"/>
      <point x="394" y="641"/>
      <point x="394" y="679" type="curve"/>
      <point x="502" y="679" type="line"/>
      <point x="502" y="593"/>
      <point x="441" y="531"/>
      <point x="336" y="531" type="curve" smooth="yes"/>
      <point x="231" y="531"/>
      <point x="170" y="593"/>
    </contour>
  </outline>
</glyph>
<glyph name="uni0123" format="2">
  <advance width="570"/>
  <unicode hex="0123"/>
  <outline>
    <contour>
      <point x="41" y="-34" type="curve"/>
      <point x="208" y="-34" type="line"/>
      <point x="214" y="-88"/>
      <point x="250" y="-106"/>
      <point x="300" y="-106" type="curve" smooth="yes"/>
      <point x="362" y="-106"/>
      <point x="404" y="-66"/>
      <point x="404" y="10" type="curve" smooth="yes"/>
      <point x="404" y="460" type="line"/>
      <point x="569" y="460" type="line"/>
      <point x="569" y="10" type="line" smooth="yes"/>
      <point x="569" y="-174"/>
      <point x="456" y="-242"/>
      <point x="308" y="-242" type="curve" smooth="yes"/>
      <point x="124" y="-242"/>
      <point x="55" y="-157"/>
    </contour>
    <contour>
      <point x="31" y="238" type="curve" smooth="yes"/>
      <point x="31" y="395"/>
      <point x="138" y="470"/>
      <point x="246" y="470" type="curve" smooth="yes"/>
      <point x="361" y="470"/>
      <point x="448" y="387"/>
      <point x="448" y="238" type="curve" smooth="yes"/>
      <point x="448" y="89"/>
      <point x="361" y="6"/>
      <point x="246" y="6" type="curve" smooth="yes"/>
      <point x="138" y="6"/>
      <point x="31" y="81"/>
    </contour>
    <contour>
      <point x="214" y="238" type="curve" smooth="yes"/>
      <point x="214" y="176"/>
      <point x="258" y="142"/>
      <point x="310" y="142" type="curve" smooth="yes"/>
      <point x="356" y="142"/>
      <point x="404" y="172"/>
      <point x="404" y="238" type="curve" smooth="yes"/>
      <point x="404" y="304"/>
      <point x="356" y="334"/>
      <point x="310" y="334" type="curve" smooth="yes"/>
      <point x="258" y="334"/>
      <point x="214" y="300"/>
    </contour>
    <contour>
      <point x="318" y="540" type="line"/>
      <point x="152" y="600" type="line"/>
      <point x="319" y="827" type="line"/>
      <point x="445" y="783" type="line"/>
    </contour>
  </outline>
</glyph>
<glyph name="Hbar" format="2">
  <advance width="808"/>
  <unicode hex="0126"/>
  <outline>
    <contour>
      <point x="119" y="279" type="line"/>
      <point x="119" y="452" type="line"/>
      <point x="664" y="452" type="line"/>
      <point x="664" y="279" type="line"/>
    </contour>
    <contour>
      <point x="542" y="700" type="line"/>
      <point x="736" y="700" type="line"/>
      <point x="736" y="0" type="line"/>
      <point x="542" y="0" type="line"/>
    </contour>
    <contour>
      <point x="72" y="700" type="line"/>
      <point x="266" y="700" type="line"/>
      <point x="266" y="0" type="line"/>
      <point x="72" y="0" type="line"/>
    </contour>
    <contour>
      <point x="5" y="536" type="line"/>
      <point x="5" y="652" type="line"/>
      <point x="804" y="652" type="line"/>
      <point x="804" y="536" type="line"/>
    </contour>
  </outline>
</glyph>
<glyph name="Imacron" format="2">
  <advance width="342"/>
  <unicode hex="012A"/>
  <outline>
    <contour>
      <point x="72" y="700" type="line"/>
      <point x="270" y="700" type="line"/>
      <point x="270" y="0" type="line"/>
      <point x="72" y="0" type="line"/>
    </contour>
    <contour>
      <point x="-18" y="778" type="line"/>
      <point x="-18" y="926" type="line"/>
      <point x="360" y="926" type="line"/>
      <point x="360" y="778" type="line"/>
    </contour>
  </outline>
</glyph>
<glyph name="imacron" format="2">
  <advance width="281"/>
  <unicode hex="012B"/>
  <outline>
    <contour>
      <point x="56" y="460" type="line"/>
      <point x="224" y="460" type="line"/>
      <point x="224" y="0" type="line"/>
      <point x="56" y="0" type="line"/>
    </contour>
    <contour>
      <point x="-49" y="531" type="line"/>
      <point x="-49" y="679" type="line"/>
      <point x="330" y="679" type="line"/>
      <point x="330" y="531" type="line"/>
    </contour>
  </outline>
</glyph>
<glyph name="Iogonek" format="2">
  <advance width="342"/>
  <unicode hex="012E"/>
  <outline>
    <contour>
      <point x="72" y="700" type="line"/>
      <point x="270" y="700" type="line"/>
      <point x="270" y="0" type="line"/>
      <point x="72" y="0" type="line"/>
    </contour>
    <contour>
      <point x="242" y="-103" type="curve"/>
      <point x="276" y="-178" type="line"/>
      <point x="261" y="-198"/>
      <point x="231" y="-218"/>
      <point x="171" y="-218" type="curve" smooth="yes"/>
      <point x="111" y="-218"/>
      <point x="56" y="-185"/>
      <point x="56" y="-118" type="curve" smooth="yes"/>
      <point x="56" y="-51"/>
      <point x="126" y="-8"/>
      <point x="196" y="28" type="curve"/>
      <point x="238" y="2" type="line"/>
      <point x="186" y="-28"/>
      <point x="160" y="-61"/>
      <point x="160" y="-90" type="curve" smooth="yes"/>
      <point x="160" y="-112"/>
      <point x="170" y="-123"/>
      <point x="192" y="-123" type="curve" smooth="yes"/>
      <point x="210" y="-123"/>
      <point x="228" y="-116"/>
    </contour>
  </outline>
</glyph>
<glyph name="iogonek" format="2">
  <advance width="281"/>
  <unicode hex="012F"/>
  <outline>
    <contour>
      <point x="42" y="627" type="curve" smooth="yes"/>
      <point x="42" y="681"/>
      <point x="86" y="717"/>
      <point x="140" y="717" type="curve" smooth="yes"/>
      <point x="194" y="717"/>
      <point x="238" y="681"/>
      <point x="238" y="627" type="curve" smooth="yes"/>
      <point x="238" y="573"/>
      <point x="194" y="538"/>
      <point x="140" y="538" type="curve" smooth="yes"/>
      <point x="86" y="538"/>
      <point x="42" y="573"/>
    </contour>
    <contour>
      <point x="56" y="460" type="line"/>
      <point x="224" y="460" type="line"/>
      <point x="224" y="0" type="line"/>
      <point x="56" y="0" type="line"/>
    </contour>
    <contour>
      <point x="196" y="-106" type="curve"/>
      <point x="229" y="-180" type="line"/>
      <point x="214" y="-200"/>
      <point x="185" y="-220"/>
      <point x="125" y="-220" type="curve" smooth="yes"/>
      <point x="65" y="-220"/>
      <point x="10" y="-187"/>
      <point x="10" y="-120" type="curve" smooth="yes"/>
      <point x="10" y="-53"/>
      <point x="80" y="-11"/>
      <point x="150" y="25" type="curve"/>
      <point x="191" y="0" type="line"/>
      <point x="139" y="-30"/>
      <point x="114" y="-63"/>
      <point x="114" y="-92" type="curve" smooth="yes"/>
      <point x="114" y="-114"/>
      <point x="124" y="-126"/>
      <point x="146" y="-126" type="curve" smooth="yes"/>
      <point x="164" y="-126"/>
      <point x="182" y="-119"/>
    </contour>
  </outline>
</glyph>
<glyph name="Idotaccent" format="2">
  <advance width="342"/>
  <unicode hex="0130"/>
  <outline>
    <contour>
      <point x="72" y="700" type="line"/>
      <point x="270" y="700" type="line"/>
      <point x="270" y="0" type="line"/>
      <point x="72" y="0" type="line"/>
    </contour>
    <contour>
      <point x="72" y="868" type="curve" smooth="yes"/>
      <point x="72" y="922"/>
      <point x="117" y="958"/>
      <point x="171" y="958" type="curve" smooth="yes"/>
      <point x="225" y="958"/>
      <point x="269" y="922"/>
      <point x="269" y="868" type="curve" smooth="yes"/>
      <point x="269" y="814"/>
      <point x="225" y="778"/>
      <point x="171" y="778" type="curve" smooth="yes"/>
      <point x="117" y="778"/>
      <point x="72" y="814"/>
    </contour>
  </outline>
</glyph>
<glyph name="dotlessi" format="2">
  <advance width="281"/>
  <unicode hex="0131"/>
  <outline>
    <contour>
      <point x="56" y="460" type="line"/>
      <point x="224" y="460" type="line"/>
      <point x="224" y="0" type="line"/>
      <point x="56" y="0" type="line"/>
    </contour>
  </outline>
</glyph>
<glyph name="IJ" format="2">
  <advance width="664"/>
  <unicode hex="0132"/>
  <outline>
    <contour>
      <point x="234" y="-51" type="line"/>
      <point x="256" y="-67"/>
      <point x="287" y="-83"/>
      <point x="315" y="-83" type="curve" smooth="yes"/>
      <point x="345" y="-83"/>
      <point x="379" y="-64"/>
      <point x="379" y="-6" type="curve" smooth="yes"/>
      <point x="379" y="700" type="line"/>
      <point x="593" y="700" type="line"/>
      <point x="593" y="-52" type="line" smooth="yes"/>
      <point x="593" y="-194"/>
      <point x="472" y="-244"/>
      <point x="338" y="-244" type="curve" smooth="yes"/>
      <point x="252" y="-244"/>
      <point x="175" y="-214"/>
      <point x="127" y="-186" type="curve"/>
    </contour>
    <contour>
      <point x="72" y="700" type="line"/>
      <point x="270" y="700" type="line"/>
      <point x="270" y="0" type="line"/>
      <point x="72" y="0" type="line"/>
    </contour>
  </outline>
</glyph>
<glyph name="Jcircumflex" format="2">
  <advance width="357"/>
  <unicode hex="0134"/>
  <outline>
    <contour>
      <point x="-74" y="-51" type="line"/>
      <point x="-52" y="-67"/>
      <point x="-20" y="-83"/>
      <point x="8" y="-83" type="curve" smooth="yes"/>
      <point x="38" y="-83"/>
      <point x="72" y="-64"/>
      <point x="72" y="-6" type="curve" smooth="yes"/>
      <point x="72" y="700" type="line"/>
      <point x="286" y="700" type="line"/>
      <point x="286" y="-52" type="line" smooth="yes"/>
      <point x="286" y="-194"/>
      <point x="166" y="-244"/>
      <point x="32" y="-244" type="curve" smooth="yes"/>
      <point x="-54" y="-244"/>
      <point x="-132" y="-214"/>
      <point x="-180" y="-186" type="curve"/>
    </contour>
    <contour>
      <point x="178" y="861" type="line"/>
      <point x="93" y="778" type="line"/>
      <point x="-30" y="859" type="line"/>
      <point x="178" y="999" type="line"/>
      <point x="387" y="859" type="line"/>
      <point x="264" y="778" type="line"/>
    </contour>
  </outline>
</glyph>
<glyph name="uni0136" format="2">
  <advance width="740"/>
  <unicode hex="0136"/>
  <outline>
    <contour>
      <point x="72" y="700" type="line"/>
      <point x="274" y="700" type="line"/>
      <point x="274" y="0" type="line"/>
      <point x="72" y="0" type="line"/>
    </contour>
    <contour>
      <point x="501" y="700" type="line"/>
      <point x="728" y="700" type="line"/>
      <point x="450" y="372" type="line"/>
      <point x="744" y="0" type="line"/>
      <point x="508" y="0" type="line"/>
      <point x="218" y="366" type="line"/>
    </contour>
    <contour>
      <point x="332" y="-60" type="line"/>
      <point x="506" y="-93" type="line"/>
      <point x="375" y="-343" type="line"/>
      <point x="244" y="-319" type="line"/>
    </contour>
  </outline>
</glyph>
<glyph name="lacute" format="2">
  <advance width="282"/>
  <unicode hex="013A"/>
  <outline>
    <contour>
      <point x="54" y="780" type="line"/>
      <point x="228" y="780" type="line"/>
      <point x="228" y="0" type="line"/>
      <point x="54" y="0" type="line"/>
    </contour>
    <contour>
      <point x="312" y="990" type="line"/>
      <point x="132" y="840" type="line"/>
      <point x="34" y="886" type="line"/>
      <point x="184" y="1046" type="line"/>
    </contour>
  </outline>
</glyph>
<glyph name="uni013C" format="2">
  <advance width="282"/>
  <unicode hex="013C"/>
  <outline>
    <contour>
      <point x="54" y="780" type="line"/>
      <point x="228" y="780" type="line"/>
      <point x="228" y="0" type="line"/>
      <point x="54" y="0" type="line"/>
    </contour>
    <contour>
      <point x="98" y="-60" type="line"/>
      <point x="272" y="-93" type="line"/>
      <point x="142" y="-343" type="line"/>
      <point x="10" y="-319" type="line"/>
    </contour>
  </outline>
</glyph>
<glyph name="Lcaron" format="2">
  <advance width="551"/>
  <unicode hex="013D"/>
  <outline>
    <contour>
      <point x="72" y="700" type="line"/>
      <point x="266" y="700" type="line"/>
      <point x="266" y="166" type="line"/>
      <point x="550" y="166" type="line"/>
      <point x="550" y="0" type="line"/>
      <point x="72" y="0" type="line"/>
    </contour>
    <contour>
      <point x="438" y="718" type="line"/>
      <point x="611" y="685" type="line"/>
      <point x="481" y="435" type="line"/>
      <point x="350" y="459" type="line"/>
    </contour>
  </outline>
</glyph>
<glyph name="ldot" format="2">
  <advance width="508"/>
  <unicode hex="0140"/>
  <outline>
    <contour>
      <point x="54" y="780" type="line"/>
      <point x="228" y="780" type="line"/>
      <point x="228" y="0" type="line"/>
      <point x="54" y="0" type="line"/>
    </contour>
    <contour>
      <point x="264" y="407" type="curve" smooth="yes"/>
      <point x="264" y="464"/>
      <point x="308" y="510"/>
      <point x="370" y="510" type="curve" smooth="yes"/>
      <point x="432" y="510"/>
      <point x="476" y="464"/>
      <point x="476" y="407" type="curve" smooth="yes"/>
      <point x="476" y="350"/>
      <point x="432" y="303"/>
      <point x="370" y="303" type="curve" smooth="yes"/>
      <point x="308" y="303"/>
      <point x="264" y="350"/>
    </contour>
  </outline>
</glyph>
<glyph name="Lslash" format="2">
  <advance width="559"/>
  <unicode hex="0141"/>
  <outline>
    <contour>
      <point x="5" y="300" type="line"/>
      <point x="-40" y="378" type="line"/>
      <point x="352" y="646" type="line"/>
      <point x="397" y="567" type="line"/>
    </contour>
    <contour>
      <point x="72" y="700" type="line"/>
      <point x="266" y="700" type="line"/>
      <point x="266" y="166" type="line"/>
      <point x="550" y="166" type="line"/>
      <point x="550" y="0" type="line"/>
      <point x="72" y="0" type="line"/>
    </contour>
  </outline>
</glyph>
<glyph name="lslash" format="2">
  <advance width="282"/>
  <unicode hex="0142"/>
  <outline>
    <contour>
      <point x="-12" y="300" type="line"/>
      <point x="-56" y="378" type="line"/>
      <point x="300" y="618" type="line"/>
      <point x="344" y="539" type="line"/>
    </contour>
    <contour>
      <point x="54" y="780" type="line"/>
      <point x="228" y="780" type="line"/>
      <point x="228" y="0" type="line"/>
      <point x="54" y="0" type="line"/>
    </contour>
  </outline>
</glyph>
<glyph name="Nacute" format="2">
  <advance width="799"/>
  <unicode hex="0143"/>
  <outline>
    <contour>
      <point x="541" y="700" type="line"/>
      <point x="728" y="700" type="line"/>
      <point x="728" y="-35" type="line"/>
      <point x="258" y="355" type="line"/>
      <point x="258" y="0" type="line"/>
      <point x="72" y="0" type="line"/>
      <point x="72" y="735" type="line"/>
      <point x="541" y="345" type="line"/>
    </contour>
    <contour>
      <point x="544" y="913" type="line"/>
      <point x="364" y="763" type="line"/>
      <point x="266" y="810" type="line"/>
      <point x="416" y="970" type="line"/>
    </contour>
  </outline>
</glyph>
<glyph name="uni0146" format="2">
  <advance width="590"/>
  <unicode hex="0146"/>
  <outline>
    <contour>
      <point x="228" y="460" type="line"/>
      <point x="228" y="0" type="line"/>
      <point x="54" y="0" type="line"/>
      <point x="54" y="460" type="line"/>
    </contour>
    <contour>
      <point x="354" y="280" type="line" smooth="yes"/>
      <point x="354" y="328"/>
      <point x="340" y="355"/>
      <point x="296" y="355" type="curve" smooth="yes"/>
      <point x="254" y="355"/>
      <point x="228" y="330"/>
      <point x="228" y="280" type="curve"/>
      <point x="200" y="272" type="line"/>
      <point x="200" y="381"/>
      <point x="249" y="471"/>
      <point x="369" y="471" type="curve" smooth="yes"/>
      <point x="489" y="471"/>
      <point x="536" y="409"/>
      <point x="536" y="298" type="curve" smooth="yes"/>
      <point x="536" y="0" type="line"/>
      <point x="354" y="0" type="line"/>
    </contour>
    <contour>
      <point x="252" y="-60" type="line"/>
      <point x="426" y="-93" type="line"/>
      <point x="296" y="-343" type="line"/>
      <point x="164" y="-319" type="line"/>
    </contour>
  </outline>
</glyph>
<glyph name="Ncaron" format="2">
  <advance width="799"/>
  <unicode hex="0147"/>
  <outline>
    <contour>
      <point x="368" y="908" type="line"/>
      <point x="453" y="992" type="line"/>
      <point x="576" y="910" type="line"/>
      <point x="368" y="770" type="line"/>
      <point x="159" y="910" type="line"/>
      <point x="282" y="992" type="line"/>
    </contour>
    <contour>
      <point x="541" y="700" type="line"/>
      <point x="728" y="700" type="line"/>
      <point x="728" y="-35" type="line"/>
      <point x="258" y="355" type="line"/>
      <point x="258" y="0" type="line"/>
      <point x="72" y="0" type="line"/>
      <point x="72" y="735" type="line"/>
      <point x="541" y="345" type="line"/>
    </contour>
  </outline>
</glyph>
<glyph name="Eng" format="2">
  <advance width="799"/>
  <unicode hex="014A"/>
  <outline>
    <contour>
      <point x="542" y="-214" type="curve" smooth="yes"/>
      <point x="488" y="-214"/>
      <point x="448" y="-199"/>
      <point x="402" y="-160" type="curve"/>
      <point x="468" y="-35" type="line"/>
      <point x="483" y="-53"/>
      <point x="496" y="-60"/>
      <point x="514" y="-60" type="curve" smooth="yes"/>
      <point x="545" y="-60"/>
      <point x="562" y="-39"/>
      <point x="562" y="1" type="curve" smooth="yes"/>
      <point x="562" y="97" type="line"/>
      <point x="258" y="354" type="line"/>
      <point x="258" y="0" type="line"/>
      <point x="72" y="0" type="line"/>
      <point x="72" y="735" type="line"/>
      <point x="541" y="346" type="line"/>
      <point x="541" y="700" type="line"/>
      <point x="728" y="700" type="line"/>
      <point x="728" y="-46" type="line" smooth="yes"/>
      <point x="728" y="-150"/>
      <point x="657" y="-214"/>
    </contour>
  </outline>
</glyph>
<glyph name="eng" format="2">
  <advance width="590"/>
  <unicode hex="014B"/>
  <outline>
    <contour>
      <point x="334" y="-244" type="curve" smooth="yes"/>
      <point x="282" y="-244"/>
      <point x="238" y="-227"/>
      <point x="194" y="-190" type="curve"/>
      <point x="260" y="-66" type="line"/>
      <point x="275" y="-84"/>
      <point x="289" y="-91"/>
      <point x="306" y="-91" type="curve" smooth="yes"/>
      <point x="336" y="-91"/>
      <point x="354" y="-70"/>
      <point x="354" y="-30" type="curve" smooth="yes"/>
      <point x="354" y="280" type="line" smooth="yes"/>
      <point x="354" y="333"/>
      <point x="336" y="355"/>
      <point x="296" y="355" type="curve" smooth="yes"/>
      <point x="252" y="355"/>
      <point x="228" y="328"/>
      <point x="228" y="276" type="curve" smooth="yes"/>
      <point x="228" y="0" type="line"/>
      <point x="54" y="0" type="line"/>
      <point x="54" y="460" type="line"/>
      <point x="228" y="460" type="line"/>
      <point x="228" y="393" type="line"/>
      <point x="256" y="443"/>
      <point x="305" y="471"/>
      <point x="369" y="471" type="curve" smooth="yes"/>
      <point x="482" y="471"/>
      <point x="536" y="415"/>
      <point x="536" y="298" type="curve" smooth="yes"/>
      <point x="536" y="-76" type="line" smooth="yes"/>
      <point x="536" y="-182"/>
      <point x="462" y="-244"/>
    </contour>
  </outline>
</glyph>
<glyph name="omacron" format="2">
  <advance width="602"/>
  <unicode hex="014D"/>
  <outline>
    <contour>
      <point x="31" y="230" type="curve" smooth="yes"/>
      <point x="31" y="377"/>
      <point x="146" y="471"/>
      <point x="302" y="471" type="curve" smooth="yes"/>
      <point x="458" y="471"/>
      <point x="572" y="377"/>
      <point x="572" y="230" type="curve" smooth="yes"/>
      <point x="572" y="83"/>
      <point x="458" y="-10"/>
      <point x="302" y="-10" type="curve" smooth="yes"/>
      <point x="146" y="-10"/>
      <point x="31" y="83"/>
    </contour>
    <contour>
      <point x="210" y="230" type="curve" smooth="yes"/>
      <point x="210" y="166"/>
      <point x="252" y="130"/>
      <point x="302" y="130" type="curve" smooth="yes"/>
      <point x="352" y="130"/>
      <point x="394" y="166"/>
      <point x="394" y="230" type="curve" smooth="yes"/>
      <point x="394" y="294"/>
      <point x="352" y="331"/>
      <point x="302" y="331" type="curve" smooth="yes"/>
      <point x="252" y="331"/>
      <point x="210" y="294"/>
    </contour>
    <contour>
      <point x="112" y="531" type="line"/>
      <point x="112" y="679" type="line"/>
      <point x="490" y="679" type="line"/>
      <point x="490" y="531" type="line"/>
    </contour>
  </outline>
</glyph>
<glyph name="Obreve" format="2">
  <advance width="830"/>
  <unicode hex="014E"/>
  <outline>
    <contour>
      <point x="238" y="350" type="curve" smooth="yes"/>
      <point x="238" y="236"/>
      <point x="308" y="158"/>
      <point x="416" y="158" type="curve" smooth="yes"/>
      <point x="524" y="158"/>
      <point x="592" y="236"/>
      <point x="592" y="350" type="curve" smooth="yes"/>
      <point x="592" y="464"/>
      <point x="528" y="542"/>
      <point x="416" y="542" type="curve" smooth="yes"/>
      <point x="308" y="542"/>
      <point x="238" y="464"/>
    </contour>
    <contour>
      <point x="32" y="350" type="curve" smooth="yes"/>
      <point x="32" y="570"/>
      <point x="200" y="718"/>
      <point x="416" y="718" type="curve" smooth="yes"/>
      <point x="636" y="718"/>
      <point x="799" y="570"/>
      <point x="799" y="350" type="curve" smooth="yes"/>
      <point x="799" y="130"/>
      <point x="640" y="-26"/>
      <point x="416" y="-26" type="curve" smooth="yes"/>
      <point x="192" y="-26"/>
      <point x="32" y="130"/>
    </contour>
    <contour>
      <point x="249" y="926" type="curve"/>
      <point x="357" y="926" type="line"/>
      <point x="357" y="888"/>
      <point x="386" y="872"/>
      <point x="416" y="872" type="curve" smooth="yes"/>
      <point x="446" y="872"/>
      <point x="474" y="888"/>
      <point x="474" y="926" type="curve"/>
      <point x="582" y="926" type="line"/>
      <point x="582" y="840"/>
      <point x="521" y="778"/>
      <point x="416" y="778" type="curve" smooth="yes"/>
      <point x="311" y="778"/>
      <point x="249" y="840"/>
    </contour>
  </outline>
</glyph>
<glyph name="uni0157" format="2">
  <advance width="432"/>
  <unicode hex="0157"/>
  <outline>
    <contour>
      <point x="224" y="460" type="line"/>
      <point x="224" y="0" type="line"/>
      <point x="54" y="0" type="line"/>
      <point x="54" y="460" type="line"/>
    </contour>
    <contour>
      <point x="355" y="282" type="line"/>
      <point x="341" y="298"/>
      <point x="323" y="310"/>
      <point x="297" y="310" type="curve" smooth="yes"/>
      <point x="257" y="310"/>
      <point x="224" y="277"/>
      <point x="224" y="211" type="curve"/>
      <point x="188" y="280" type="line"/>
      <point x="188" y="389"/>
      <point x="264" y="472"/>
      <point x="346" y="472" type="curve" smooth="yes"/>
      <point x="379" y="472"/>
      <point x="414" y="454"/>
      <point x="428" y="432" type="curve"/>
    </contour>
    <contour>
      <point x="97" y="-60" type="line"/>
      <point x="270" y="-93" type="line"/>
      <point x="140" y="-343" type="line"/>
      <point x="9" y="-319" type="line"/>
    </contour>
  </outline>
</glyph>
<glyph name="rcaron" format="2">
  <advance width="432"/>
  <unicode hex="0159"/>
  <outline>
    <contour>
      <point x="224" y="460" type="line"/>
      <point x="224" y="0" type="line"/>
      <point x="54" y="0" type="line"/>
      <point x="54" y="460" type="line"/>
    </contour>
    <contour>
      <point x="355" y="282" type="line"/>
      <point x="341" y="298"/>
      <point x="323" y="310"/>
      <point x="297" y="310" type="curve" smooth="yes"/>
      <point x="257" y="310"/>
      <point x="224" y="277"/>
      <point x="224" y="211" type="curve"/>
      <point x="188" y="280" type="line"/>
      <point x="188" y="389"/>
      <point x="264" y="472"/>
      <point x="346" y="472" type="curve" smooth="yes"/>
      <point x="379" y="472"/>
      <point x="414" y="454"/>
      <point x="428" y="432" type="curve"/>
    </contour>
    <contour>
      <point x="241" y="670" type="line"/>
      <point x="326" y="752" type="line"/>
      <point x="450" y="672" type="line"/>
      <point x="241" y="532" type="line"/>
      <point x="32" y="672" type="line"/>
      <point x="156" y="752" type="line"/>
    </contour>
  </outline>
</glyph>
<glyph name="Scircumflex" format="2">
  <advance width="648"/>
  <unicode hex="015C"/>
  <outline>
    <contour>
      <point x="166" y="258" type="line"/>
      <point x="216" y="178"/>
      <point x="262" y="142"/>
      <point x="332" y="142" type="curve" smooth="yes"/>
      <point x="380" y="142"/>
      <point x="406" y="158"/>
      <point x="406" y="196" type="curve" smooth="yes"/>
      <point x="406" y="246"/>
      <point x="348" y="259"/>
      <point x="268" y="291" type="curve" smooth="yes"/>
      <point x="200" y="319"/>
      <point x="74" y="372"/>
      <point x="74" y="514" type="curve" smooth="yes"/>
      <point x="74" y="636"/>
      <point x="180" y="718"/>
      <point x="334" y="718" type="curve" smooth="yes"/>
      <point x="496" y="718"/>
      <point x="574" y="634"/>
      <point x="602" y="563" type="curve"/>
      <point x="456" y="482" type="line"/>
      <point x="426" y="532"/>
      <point x="390" y="556"/>
      <point x="343" y="556" type="curve" smooth="yes"/>
      <point x="301" y="556"/>
      <point x="273" y="536"/>
      <point x="273" y="508" type="curve" smooth="yes"/>
      <point x="273" y="466"/>
      <point x="351" y="448"/>
      <point x="433" y="418" type="curve" smooth="yes"/>
      <point x="537" y="382"/>
      <point x="612" y="317"/>
      <point x="612" y="198" type="curve" smooth="yes"/>
      <point x="612" y="48"/>
      <point x="500" y="-26"/>
      <point x="328" y="-26" type="curve" smooth="yes"/>
      <point x="196" y="-26"/>
      <point x="76" y="47"/>
      <point x="32" y="162" type="curve"/>
    </contour>
    <contour>
      <point x="334" y="861" type="line"/>
      <point x="248" y="778" type="line"/>
      <point x="126" y="859" type="line"/>
      <point x="334" y="999" type="line"/>
      <point x="543" y="859" type="line"/>
      <point x="420" y="778" type="line"/>
    </contour>
  </outline>
</glyph>
<glyph name="scedilla" format="2">
  <advance width="472"/>
  <unicode hex="015F"/>
  <outline>
    <contour>
      <point x="80" y="180" type="line"/>
      <point x="169" y="111"/>
      <point x="222" y="102"/>
      <point x="244" y="102" type="curve" smooth="yes"/>
      <point x="265" y="102"/>
      <point x="278" y="113"/>
      <point x="278" y="131" type="curve" smooth="yes"/>
      <point x="278" y="163"/>
      <point x="234" y="173"/>
      <point x="182" y="191" type="curve" smooth="yes"/>
      <point x="116" y="215"/>
      <point x="52" y="245"/>
      <point x="52" y="336" type="curve" smooth="yes"/>
      <point x="52" y="422"/>
      <point x="126" y="470"/>
      <point x="232" y="470" type="curve" smooth="yes"/>
      <point x="313" y="470"/>
      <point x="378" y="442"/>
      <point x="438" y="408" type="curve"/>
      <point x="387" y="293" type="line"/>
      <point x="347" y="329"/>
      <point x="290" y="356"/>
      <point x="253" y="356" type="curve" smooth="yes"/>
      <point x="223" y="356"/>
      <point x="211" y="346"/>
      <point x="211" y="332" type="curve" smooth="yes"/>
      <point x="211" y="300"/>
      <point x="263" y="292"/>
      <point x="323" y="270" type="curve" smooth="yes"/>
      <point x="388" y="246"/>
      <point x="450" y="215"/>
      <point x="450" y="130" type="curve" smooth="yes"/>
      <point x="450" y="23"/>
      <point x="386" y="-22"/>
      <point x="272" y="-22" type="curve" smooth="yes"/>
      <point x="170" y="-22"/>
      <point x="91" y="10"/>
      <point x="17" y="60" type="curve"/>
    </contour>
    <contour>
      <point x="225" y="65" type="line"/>
      <point x="350" y="61" type="line"/>
      <point x="257" y="-64" type="line"/>
      <point x="270" y="-60"/>
      <point x="286" y="-60"/>
      <point x="302" y="-60" type="curve" smooth="yes"/>
      <point x="344" y="-60"/>
      <point x="399" y="-93"/>
      <point x="399" y="-164" type="curve" smooth="yes"/>
      <point x="399" y="-240"/>
      <point x="326" y="-278"/>
      <point x="260" y="-278" type="curve" smooth="yes"/>
      <point x="198" y="-278"/>
      <point x="152" y="-268"/>
      <point x="100" y="-238" type="curve"/>
      <point x="149" y="-161" type="line"/>
      <point x="176" y="-180"/>
      <point x="216" y="-187"/>
      <point x="234" y="-187" type="curve" smooth="yes"/>
      <point x="268" y="-187"/>
      <point x="290" y="-177"/>
      <point x="290" y="-153" type="curve" smooth="yes"/>
      <point x="290" y="-126"/>
      <point x="256" y="-122"/>
      <point x="226" y="-122" type="curve" smooth="yes"/>
      <point x="216" y="-122"/>
      <point x="176" y="-124"/>
      <point x="137" y="-138" type="curve"/>
    </contour>
  </outline>
</glyph>
<glyph name="Tcaron" format="2">
  <advance width="590"/>
  <unicode hex="0164"/>
  <outline>
    <contour>
      <point x="2" y="526" type="line"/>
      <point x="2" y="700" type="line"/>
      <point x="589" y="700" type="line"/>
      <point x="589" y="526" type="line"/>
      <point x="393" y="526" type="line"/>
      <point x="393" y="0" type="line"/>
      <point x="198" y="0" type="line"/>
      <point x="198" y="526" type="line"/>
    </contour>
    <contour>
      <point x="296" y="916" type="line"/>
      <point x="381" y="999" type="line"/>
      <point x="504" y="918" type="line"/>
      <point x="296" y="778" type="line"/>
      <point x="86" y="918" type="line"/>
      <point x="210" y="999" type="line"/>
    </contour>
  </outline>
</glyph>
<glyph name="tcaron" format="2">
  <advance width="524"/>
  <unicode hex="0165"/>
  <outline>
    <contour>
      <point x="5" y="460" type="line"/>
      <point x="336" y="460" type="line"/>
      <point x="336" y="320" type="line"/>
      <point x="5" y="320" type="line"/>
    </contour>
    <contour>
      <point x="88" y="620" type="line"/>
      <point x="254" y="620" type="line"/>
      <point x="254" y="0" type="line"/>
      <point x="88" y="0" type="line"/>
    </contour>
    <contour>
      <point x="406" y="779" type="line"/>
      <point x="580" y="746" type="line"/>
      <point x="450" y="496" type="line"/>
      <point x="318" y="520" type="line"/>
    </contour>
  </outline>
</glyph>
<glyph name="Utilde" format="2">
  <advance width="723"/>
  <unicode hex="0168"/>
  <outline>
    <contour>
      <point x="67" y="700" type="line"/>
      <point x="262" y="700" type="line"/>
      <point x="262" y="246" type="line" smooth="yes"/>
      <point x="262" y="182"/>
      <point x="294" y="139"/>
      <point x="362" y="139" type="curve" smooth="yes"/>
      <point x="430" y="139"/>
      <point x="462" y="182"/>
      <point x="462" y="246" type="curve" smooth="yes"/>
      <point x="462" y="700" type="line"/>
      <point x="656" y="700" type="line"/>
      <point x="656" y="230" type="line" smooth="yes"/>
      <point x="656" y="42"/>
      <point x="524" y="-34"/>
      <point x="362" y="-34" type="curve" smooth="yes"/>
      <point x="200" y="-34"/>
      <point x="67" y="42"/>
      <point x="67" y="230" type="curve" smooth="yes"/>
    </contour>
    <contour>
      <point x="156" y="852" type="line"/>
      <point x="166" y="901"/>
      <point x="210" y="950"/>
      <point x="280" y="950" type="curve" smooth="yes"/>
      <point x="346" y="950"/>
      <point x="363" y="897"/>
      <point x="420" y="897" type="curve" smooth="yes"/>
      <point x="447" y="897"/>
      <point x="469" y="920"/>
      <point x="489" y="952" type="curve"/>
      <point x="568" y="868" type="line"/>
      <point x="552" y="831"/>
      <point x="491" y="779"/>
      <point x="425" y="779" type="curve" smooth="yes"/>
      <point x="370" y="779"/>
      <point x="330" y="834"/>
      <point x="280" y="834" type="curve" smooth="yes"/>
      <point x="243" y="834"/>
      <point x="234" y="798"/>
      <point x="234" y="783" type="curve"/>
    </contour>
  </outline>
</glyph>
<glyph name="utilde" format="2">
  <advance width="590"/>
  <unicode hex="0169"/>
  <outline>
    <contour>
      <point x="362" y="0" type="line"/>
      <point x="362" y="460" type="line"/>
      <point x="536" y="460" type="line"/>
      <point x="536" y="0" type="line"/>
    </contour>
    <contour>
      <point x="236" y="180" type="line" smooth="yes"/>
      <point x="236" y="132"/>
      <point x="250" y="105"/>
      <point x="294" y="105" type="curve" smooth="yes"/>
      <point x="336" y="105"/>
      <point x="362" y="130"/>
      <point x="362" y="180" type="curve"/>
      <point x="388" y="188" type="line"/>
      <point x="388" y="79"/>
      <point x="341" y="-11"/>
      <point x="221" y="-11" type="curve" smooth="yes"/>
      <point x="101" y="-11"/>
      <point x="54" y="51"/>
      <point x="54" y="162" type="curve" smooth="yes"/>
      <point x="54" y="460" type="line"/>
      <point x="236" y="460" type="line"/>
    </contour>
    <contour>
      <point x="89" y="605" type="line"/>
      <point x="99" y="654"/>
      <point x="144" y="704"/>
      <point x="214" y="704" type="curve" smooth="yes"/>
      <point x="280" y="704"/>
      <point x="297" y="650"/>
      <point x="354" y="650" type="curve" smooth="yes"/>
      <point x="381" y="650"/>
      <point x="402" y="672"/>
      <point x="422" y="704" type="curve"/>
      <point x="501" y="621" type="line"/>
      <point x="485" y="584"/>
      <point x="424" y="532"/>
      <point x="358" y="532" type="curve" smooth="yes"/>
      <point x="303" y="532"/>
      <point x="263" y="586"/>
      <point x="213" y="586" type="curve" smooth="yes"/>
      <point x="176" y="586"/>
      <point x="167" y="551"/>
      <point x="167" y="536" type="curve"/>
    </contour>
  </outline>
</glyph>
<glyph name="Ubreve" format="2">
  <advance width="723"/>
  <unicode hex="016C"/>
  <outline>
    <contour>
      <point x="67" y="700" type="line"/>
      <point x="262" y="700" type="line"/>
      <point x="262" y="246" type="line" smooth="yes"/>
      <point x="262" y="182"/>
      <point x="294" y="139"/>
      <point x="362" y="139" type="curve" smooth="yes"/>
      <point x="430" y="139"/>
      <point x="462" y="182"/>
      <point x="462" y="246" type="curve" smooth="yes"/>
      <point x="462" y="700" type="line"/>
      <point x="656" y="700" type="line"/>
      <point x="656" y="230" type="line" smooth="yes"/>
      <point x="656" y="42"/>
      <point x="524" y="-34"/>
      <point x="362" y="-34" type="curve" smooth="yes"/>
      <point x="200" y="-34"/>
      <point x="67" y="42"/>
      <point x="67" y="230" type="curve" smooth="yes"/>
    </contour>
    <contour>
      <point x="196" y="926" type="curve"/>
      <point x="303" y="926" type="line"/>
      <point x="303" y="888"/>
      <point x="332" y="872"/>
      <point x="362" y="872" type="curve" smooth="yes"/>
      <point x="392" y="872"/>
      <point x="420" y="888"/>
      <point x="420" y="926" type="curve"/>
      <point x="528" y="926" type="line"/>
      <point x="528" y="840"/>
      <point x="467" y="778"/>
      <point x="362" y="778" type="curve" smooth="yes"/>
      <point x="257" y="778"/>
      <point x="196" y="840"/>
    </contour>
  </outline>
</glyph>
<glyph name="ubreve" format="2">
  <advance width="590"/>
  <unicode hex="016D"/>
  <outline>
    <contour>
      <point x="362" y="0" type="line"/>
      <point x="362" y="460" type="line"/>
      <point x="536" y="460" type="line"/>
      <point x="536" y="0" type="line"/>
    </contour>
    <contour>
      <point x="236" y="180" type="line" smooth="yes"/>
      <point x="236" y="132"/>
      <point x="250" y="105"/>
      <point x="294" y="105" type="curve" smooth="yes"/>
      <point x="336" y="105"/>
      <point x="362" y="130"/>
      <point x="362" y="180" type="curve"/>
      <point x="388" y="188" type="line"/>
      <point x="388" y="79"/>
      <point x="341" y="-11"/>
      <point x="221" y="-11" type="curve" smooth="yes"/>
      <point x="101" y="-11"/>
      <point x="54" y="51"/>
      <point x="54" y="162" type="curve" smooth="yes"/>
      <point x="54" y="460" type="line"/>
      <point x="236" y="460" type="line"/>
    </contour>
    <contour>
      <point x="129" y="679" type="curve"/>
      <point x="236" y="679" type="line"/>
      <point x="236" y="641"/>
      <point x="265" y="624"/>
      <point x="295" y="624" type="curve" smooth="yes"/>
      <point x="325" y="624"/>
      <point x="354" y="641"/>
      <point x="354" y="679" type="curve"/>
      <point x="461" y="679" type="line"/>
      <point x="461" y="593"/>
      <point x="400" y="531"/>
      <point x="295" y="531" type="curve" smooth="yes"/>
      <point x="190" y="531"/>
      <point x="129" y="593"/>
    </contour>
  </outline>
</glyph>
<glyph name="Uring" format="2">
  <advance width="723"/>
  <unicode hex="016E"/>
  <outline>
    <contour>
      <point x="67" y="700" type="line"/>
      <point x="262" y="700" type="line"/>
      <point x="262" y="246" type="line" smooth="yes"/>
      <point x="262" y="182"/>
      <point x="294" y="139"/>
      <point x="362" y="139" type="curve" smooth="yes"/>
      <point x="430" y="139"/>
      <point x="462" y="182"/>
      <point x="462" y="246" type="curve" smooth="yes"/>
      <point x="462" y="700" type="line"/>
      <point x="656" y="700" type="line"/>
      <point x="656" y="230" type="line" smooth="yes"/>
      <point x="656" y="42"/>
      <point x="524" y="-34"/>
      <point x="362" y="-34" type="curve" smooth="yes"/>
      <point x="200" y="-34"/>
      <point x="67" y="42"/>
      <point x="67" y="230" type="curve" smooth="yes"/>
    </contour>
    <contour>
      <point x="230" y="898" type="curve" smooth="yes"/>
      <point x="230" y="970"/>
      <point x="286" y="1019"/>
      <point x="361" y="1019" type="curve" smooth="yes"/>
      <point x="436" y="1019"/>
      <point x="494" y="970"/>
      <point x="494" y="898" type="curve" smooth="yes"/>
      <point x="494" y="826"/>
      <point x="436" y="778"/>
      <point x="361" y="778" type="curve" smooth="yes"/>
      <point x="286" y="778"/>
      <point x="230" y="826"/>
    </contour>
    <contour>
      <point x="316" y="898" type="curve" smooth="yes"/>
      <point x="316" y="869"/>
      <point x="336" y="852"/>
      <point x="361" y="852" type="curve" smooth="yes"/>
      <point x="386" y="852"/>
      <point x="406" y="869"/>
      <point x="406" y="898" type="curve" smooth="yes"/>
      <point x="406" y="927"/>
      <point x="386" y="945"/>
      <point x="361" y="945" type="curve" smooth="yes"/>
      <point x="336" y="945"/>
      <point x="316" y="927"/>
    </contour>
  </outline>
</glyph>
<glyph name="uring" format="2">
  <advance width="590"/>
  <unicode hex="016F"/>
  <outline>
    <contour>
      <point x="362" y="0" type="line"/>
      <point x="362" y="460" type="line"/>
      <point x="536" y="460" type="line"/>
      <point x="536" y="0" type="line"/>
    </contour>
    <contour>
      <point x="236" y="180" type="line" smooth="yes"/>
      <point x="236" y="132"/>
      <point x="250" y="105"/>
      <point x="294" y="105" type="curve" smooth="yes"/>
      <point x="336" y="105"/>
      <point x="362" y="130"/>
      <point x="362" y="180" type="curve"/>
      <point x="388" y="188" type="line"/>
      <point x="388" y="79"/>
      <point x="341" y="-11"/>
      <point x="221" y="-11" type="curve" smooth="yes"/>
      <point x="101" y="-11"/>
      <point x="54" y="51"/>
      <point x="54" y="162" type="curve" smooth="yes"/>
      <point x="54" y="460" type="line"/>
      <point x="236" y="460" type="line"/>
    </contour>
    <contour>
      <point x="163" y="651" type="curve" smooth="yes"/>
      <point x="163" y="723"/>
      <point x="219" y="772"/>
      <point x="294" y="772" type="curve" smooth="yes"/>
      <point x="369" y="772"/>
      <point x="427" y="723"/>
      <point x="427" y="651" type="curve" smooth="yes"/>
      <point x="427" y="579"/>
      <point x="369" y="531"/>
      <point x="294" y="531" type="curve" smooth="yes"/>
      <point x="219" y="531"/>
      <point x="163" y="579"/>
    </contour>
    <contour>
      <point x="250" y="651" type="curve" smooth="yes"/>
      <point x="250" y="622"/>
      <point x="269" y="606"/>
      <point x="294" y="606" type="curve" smooth="yes"/>
      <point x="319" y="606"/>
      <point x="340" y="622"/>
      <point x="340" y="651" type="curve" smooth="yes"/>
      <point x="340" y="680"/>
      <point x="319" y="698"/>
      <point x="294" y="698" type="curve" smooth="yes"/>
      <point x="269" y="698"/>
      <point x="250" y="680"/>
    </contour>
  </outline>
</glyph>
<glyph name="Wcircumflex" format="2">
  <advance width="1087"/>
  <unicode hex="0174"/>
  <outline>
    <contour>
      <point x="738" y="318" type="line"/>
      <point x="852" y="700" type="line"/>
      <point x="1086" y="700" type="line"/>
      <point x="774" y="-43" type="line"/>
      <point x="544" y="342" type="line"/>
      <point x="314" y="-43" type="line"/>
      <point x="2" y="700" type="line"/>
      <point x="235" y="700" type="line"/>
      <point x="349" y="318" type="line"/>
      <point x="544" y="735" type="line"/>
    </contour>
    <contour>
      <point x="544" y="878" type="line"/>
      <point x="458" y="795" type="line"/>
      <point x="335" y="876" type="line"/>
      <point x="544" y="1016" type="line"/>
      <point x="752" y="876" type="line"/>
      <point x="630" y="795" type="line"/>
    </contour>
  </outline>
</glyph>
<glyph name="wcircumflex" format="2">
  <advance width="785"/>
  <unicode hex="0175"/>
  <outline>
    <contour>
      <point x="-12" y="460" type="line"/>
      <point x="168" y="460" type="line"/>
      <point x="258" y="244" type="line"/>
      <point x="392" y="495" type="line"/>
      <point x="528" y="243" type="line"/>
      <point x="618" y="460" type="line"/>
      <point x="797" y="460" type="line"/>
      <point x="548" y="-27" type="line"/>
      <point x="392" y="227" type="line"/>
      <point x="238" y="-27" type="line"/>
    </contour>
    <contour>
      <point x="392" y="638" type="line"/>
      <point x="306" y="555" type="line"/>
      <point x="183" y="636" type="line"/>
      <point x="392" y="776" type="line"/>
      <point x="600" y="636" type="line"/>
      <point x="478" y="555" type="line"/>
    </contour>
  </outline>
</glyph>
<glyph name="Ycircumflex" format="2">
  <advance width="690"/>
  <unicode hex="0176"/>
  <outline>
    <contour>
      <point x="468" y="700" type="line"/>
      <point x="694" y="700" type="line"/>
      <point x="445" y="280" type="line"/>
      <point x="445" y="0" type="line"/>
      <point x="246" y="0" type="line"/>
      <point x="246" y="279" type="line"/>
      <point x="-3" y="700" type="line"/>
      <point x="222" y="700" type="line"/>
      <point x="345" y="456" type="line"/>
    </contour>
    <contour>
      <point x="345" y="861" type="line"/>
      <point x="260" y="778" type="line"/>
      <point x="136" y="859" type="line"/>
      <point x="345" y="999" type="line"/>
      <point x="554" y="859" type="line"/>
      <point x="430" y="778" type="line"/>
    </contour>
  </outline>
</glyph>
<glyph name="ycircumflex" format="2">
  <advance width="545"/>
  <unicode hex="0177"/>
  <outline>
    <contour>
      <point x="558" y="460" type="line"/>
      <point x="258" y="-220" type="line"/>
      <point x="86" y="-220" type="line"/>
      <point x="194" y="28" type="line"/>
      <point x="-12" y="460" type="line"/>
      <point x="176" y="460" type="line"/>
      <point x="326" y="88" type="line"/>
      <point x="234" y="88" type="line"/>
      <point x="382" y="460" type="line"/>
    </contour>
    <contour>
      <point x="273" y="614" type="line"/>
      <point x="187" y="531" type="line"/>
      <point x="64" y="612" type="line"/>
      <point x="273" y="752" type="line"/>
      <point x="482" y="612" type="line"/>
      <point x="358" y="531" type="line"/>
    </contour>
  </outline>
</glyph>
<glyph name="Ydieresis" format="2">
  <advance width="690"/>
  <unicode hex="0178"/>
  <outline>
    <contour>
      <point x="94" y="882" type="curve" smooth="yes"/>
      <point x="94" y="936"/>
      <point x="138" y="972"/>
      <point x="192" y="972" type="curve" smooth="yes"/>
      <point x="246" y="972"/>
      <point x="290" y="936"/>
      <point x="290" y="882" type="curve" smooth="yes"/>
      <point x="290" y="828"/>
      <point x="246" y="792"/>
      <point x="192" y="792" type="curve" smooth="yes"/>
      <point x="138" y="792"/>
      <point x="94" y="828"/>
    </contour>
    <contour>
      <point x="400" y="882" type="curve" smooth="yes"/>
      <point x="400" y="936"/>
      <point x="444" y="972"/>
      <point x="498" y="972" type="curve" smooth="yes"/>
      <point x="552" y="972"/>
      <point x="596" y="936"/>
      <point x="596" y="882" type="curve" smooth="yes"/>
      <point x="596" y="828"/>
      <point x="552" y="792"/>
      <point x="498" y="792" type="curve" smooth="yes"/>
      <point x="444" y="792"/>
      <point x="400" y="828"/>
    </contour>
    <contour>
      <point x="468" y="700" type="line"/>
      <point x="694" y="700" type="line"/>
      <point x="445" y="280" type="line"/>
      <point x="445" y="0" type="line"/>
      <point x="246" y="0" type="line"/>
      <point x="246" y="279" type="line"/>
      <point x="-3" y="700" type="line"/>
      <point x="222" y="700" type="line"/>
      <point x="345" y="456" type="line"/>
    </contour>
  </outline>
</glyph>
<glyph name="zacute" format="2">
  <advance width="541"/>
  <unicode hex="017A"/>
  <outline>
    <contour>
      <point x="243" y="304" type="line"/>
      <point x="62" y="304" type="line"/>
      <point x="62" y="460" type="line"/>
      <point x="526" y="460" type="line"/>
      <point x="314" y="156" type="line"/>
      <point x="490" y="156" type="line"/>
      <point x="490" y="0" type="line"/>
      <point x="15" y="0" type="line"/>
    </contour>
    <contour>
      <point x="470" y="684" type="line"/>
      <point x="290" y="534" type="line"/>
      <point x="192" y="581" type="line"/>
      <point x="342" y="741" type="line"/>
    </contour>
  </outline>
</glyph>
<glyph name="Zdotaccent" format="2">
  <advance width="642"/>
  <unicode hex="017B"/>
  <outline>
    <contour>
      <point x="64" y="526" type="line"/>
      <point x="64" y="700" type="line"/>
      <point x="630" y="700" type="line"/>
      <point x="312" y="166" type="line"/>
      <point x="590" y="166" type="line"/>
      <point x="590" y="0" type="line"/>
      <point x="7" y="0" type="line"/>
      <point x="320" y="526" type="line"/>
    </contour>
    <contour>
      <point x="248" y="868" type="curve" smooth="yes"/>
      <point x="248" y="922"/>
      <point x="292" y="958"/>
      <point x="346" y="958" type="curve" smooth="yes"/>
      <point x="400" y="958"/>
      <point x="444" y="922"/>
      <point x="444" y="868" type="curve" smooth="yes"/>
      <point x="444" y="814"/>
      <point x="400" y="778"/>
      <point x="346" y="778" type="curve" smooth="yes"/>
      <point x="292" y="778"/>
      <point x="248" y="814"/>
    </contour>
  </outline>
</glyph>
<glyph name="Zcaron" format="2">
  <advance width="642"/>
  <unicode hex="017D"/>
  <outline>
    <contour>
      <point x="64" y="526" type="line"/>
      <point x="64" y="700" type="line"/>
      <point x="630" y="700" type="line"/>
      <point x="312" y="166" type="line"/>
      <point x="590" y="166" type="line"/>
      <point x="590" y="0" type="line"/>
      <point x="7" y="0" type="line"/>
      <point x="320" y="526" type="line"/>
    </contour>
    <contour>
      <point x="346" y="916" type="line"/>
      <point x="432" y="999" type="line"/>
      <point x="556" y="918" type="line"/>
      <point x="346" y="778" type="line"/>
      <point x="138" y="918" type="line"/>
      <point x="261" y="999" type="line"/>
    </contour>
  </outline>
</glyph>
<glyph name="florin" format="2">
  <advance width="600"/>
  <unicode hex="0192"/>
  <outline>
    <contour>
      <point x="190" y="-200" type="curve" smooth="yes"/>
      <point x="143" y="-200"/>
      <point x="103" y="-184"/>
      <point x="49" y="-144" type="curve"/>
      <point x="112" y="-24" type="line"/>
      <point x="130" y="-42"/>
      <point x="144" y="-49"/>
      <point x="158" y="-49" type="curve" smooth="yes"/>
      <point x="184" y="-49"/>
      <point x="203" y="-24"/>
      <point x="205" y="14" type="curve" smooth="yes"/>
      <point x="223" y="320" type="line"/>
      <point x="152" y="320" type="line"/>
      <point x="162" y="460" type="line"/>
      <point x="230" y="460" type="line"/>
      <point x="238" y="630" type="line"/>
      <point x="246" y="732"/>
      <point x="318" y="798"/>
      <point x="418" y="797" type="curve" smooth="yes"/>
      <point x="465" y="797"/>
      <point x="504" y="782"/>
      <point x="558" y="742" type="curve"/>
      <point x="495" y="621" type="line"/>
      <point x="477" y="639"/>
      <point x="462" y="646"/>
      <point x="448" y="646" type="curve" smooth="yes"/>
      <point x="422" y="646"/>
      <point x="405" y="620"/>
      <point x="403" y="582" type="curve" smooth="yes"/>
      <point x="394" y="460" type="line"/>
      <point x="488" y="460" type="line"/>
      <point x="480" y="320" type="line"/>
      <point x="387" y="320" type="line"/>
      <point x="369" y="-33" type="line" smooth="yes"/>
      <point x="365" y="-133"/>
      <point x="292" y="-201"/>
    </contour>
  </outline>
</glyph>
<glyph name="uni0219" format="2">
  <advance width="472"/>
  <unicode hex="0219"/>
  <outline>
    <contour>
      <point x="80" y="179" type="line"/>
      <point x="165" y="118"/>
      <point x="218" y="108"/>
      <point x="242" y="108" type="curve" smooth="yes"/>
      <point x="262" y="108"/>
      <point x="278" y="112"/>
      <point x="278" y="130" type="curve" smooth="yes"/>
      <point x="278" y="160"/>
      <point x="204" y="166"/>
      <point x="150" y="192" type="curve" smooth="yes"/>
      <point x="90" y="221"/>
      <point x="38" y="251"/>
      <point x="38" y="332" type="curve" smooth="yes"/>
      <point x="38" y="424"/>
      <point x="126" y="470"/>
      <point x="232" y="470" type="curve" smooth="yes"/>
      <point x="313" y="470"/>
      <point x="380" y="442"/>
      <point x="438" y="408" type="curve"/>
      <point x="387" y="292" type="line"/>
      <point x="347" y="328"/>
      <point x="281" y="350"/>
      <point x="244" y="350" type="curve" smooth="yes"/>
      <point x="214" y="350"/>
      <point x="203" y="344"/>
      <point x="203" y="328" type="curve" smooth="yes"/>
      <point x="203" y="304"/>
      <point x="263" y="291"/>
      <point x="323" y="269" type="curve" smooth="yes"/>
      <point x="388" y="245"/>
      <point x="450" y="214"/>
      <point x="450" y="130" type="curve" smooth="yes"/>
      <point x="450" y="23"/>
      <point x="386" y="-22"/>
      <point x="270" y="-22" type="curve" smooth="yes"/>
      <point x="168" y="-22"/>
      <point x="88" y="10"/>
      <point x="17" y="60" type="curve"/>
    </contour>
    <contour>
      <point x="195" y="-66" type="line"/>
      <point x="368" y="-99" type="line"/>
      <point x="238" y="-349" type="line"/>
      <point x="107" y="-325" type="line"/>
    </contour>
  </outline>
</glyph>
<glyph name="uni021B" format="2">
  <advance width="341"/>
  <unicode hex="021B"/>
  <outline>
    <contour>
      <point x="5" y="460" type="line"/>
      <point x="336" y="460" type="line"/>
      <point x="336" y="320" type="line"/>
      <point x="5" y="320" type="line"/>
    </contour>
    <contour>
      <point x="88" y="620" type="line"/>
      <point x="254" y="620" type="line"/>
      <point x="254" y="0" type="line"/>
      <point x="88" y="0" type="line"/>
    </contour>
    <contour>
      <point x="128" y="-60" type="line"/>
      <point x="302" y="-93" type="line"/>
      <point x="171" y="-343" type="line"/>
      <point x="40" y="-319" type="line"/>
    </contour>
  </outline>
</glyph>
<glyph name="caron" format="2">
  <advance width="480"/>
  <unicode hex="02C7"/>
  <outline>
    <contour>
      <point x="240" y="682" type="line"/>
      <point x="326" y="766" type="line"/>
      <point x="449" y="685" type="line"/>
      <point x="240" y="545" type="line"/>
      <point x="31" y="685" type="line"/>
      <point x="154" y="766" type="line"/>
    </contour>
  </outline>
</glyph>
<glyph name="breve" format="2">
  <advance width="546"/>
  <unicode hex="02D8"/>
  <outline>
    <contour>
      <point x="107" y="850" type="curve"/>
      <point x="214" y="850" type="line"/>
      <point x="214" y="812"/>
      <point x="243" y="796"/>
      <point x="273" y="796" type="curve" smooth="yes"/>
      <point x="303" y="796"/>
      <point x="332" y="812"/>
      <point x="332" y="850" type="curve"/>
      <point x="439" y="850" type="line"/>
      <point x="439" y="764"/>
      <point x="378" y="702"/>
      <point x="273" y="702" type="curve" smooth="yes"/>
      <point x="168" y="702"/>
      <point x="107" y="764"/>
    </contour>
  </outline>
</glyph>
<glyph name="ring" format="2">
  <advance width="343"/>
  <unicode hex="02DA"/>
  <outline>
    <contour>
      <point x="40" y="764" type="curve" smooth="yes"/>
      <point x="40" y="836"/>
      <point x="95" y="885"/>
      <point x="170" y="885" type="curve" smooth="yes"/>
      <point x="245" y="885"/>
      <point x="304" y="836"/>
      <point x="304" y="764" type="curve" smooth="yes"/>
      <point x="304" y="692"/>
      <point x="245" y="644"/>
      <point x="170" y="644" type="curve" smooth="yes"/>
      <point x="95" y="644"/>
      <point x="40" y="692"/>
    </contour>
    <contour>
      <point x="126" y="764" type="curve" smooth="yes"/>
      <point x="126" y="735"/>
      <point x="145" y="719"/>
      <point x="170" y="719" type="curve" smooth="yes"/>
      <point x="195" y="719"/>
      <point x="216" y="735"/>
      <point x="216" y="764" type="curve" smooth="yes"/>
      <point x="216" y="793"/>
      <point x="195" y="811"/>
      <point x="170" y="811" type="curve" smooth="yes"/>
      <point x="145" y="811"/>
      <point x="126" y="793"/>
    </contour>
  </outline>
</glyph>
<glyph name="tilde" format="2">
  <advance width="530"/>
  <unicode hex="02DC"/>
  <outline>
    <contour>
      <point x="68" y="642" type="line"/>
      <point x="78" y="691"/>
      <point x="122" y="740"/>
      <point x="192" y="740" type="curve" smooth="yes"/>
      <point x="258" y="740"/>
      <point x="275" y="686"/>
      <point x="332" y="686" type="curve" smooth="yes"/>
      <point x="359" y="686"/>
      <point x="380" y="708"/>
      <point x="400" y="740" type="curve"/>
      <point x="479" y="657" type="line"/>
      <point x="463" y="620"/>
      <point x="402" y="568"/>
      <point x="336" y="568" type="curve" smooth="yes"/>
      <point x="281" y="568"/>
      <point x="241" y="622"/>
      <point x="191" y="622" type="curve" smooth="yes"/>
      <point x="154" y="622"/>
      <point x="145" y="587"/>
      <point x="145" y="572" type="curve"/>
    </contour>
  </outline>
</glyph>
<glyph name="hungarumlaut" format="2">
  <unicode hex="02DD"/>
  <outline>
    <contour>
      <point x="105" y="526" type="line"/>
      <point x="0" y="554" type="line"/>
      <point x="117" y="740" type="line"/>
      <point x="252" y="707" type="line"/>
    </contour>
    <contour>
      <point x="298" y="526" type="line"/>
      <point x="194" y="554" type="line"/>
      <point x="310" y="740" type="line"/>
      <point x="446" y="707" type="line"/>
    </contour>
  </outline>
</glyph>
<glyph name="gravecomb" format="2">
  <unicode hex="0300"/>
  <outline>
    <contour>
      <point x="180" y="533" type="line"/>
      <point x="0" y="683" type="line"/>
      <point x="128" y="739" type="line"/>
      <point x="278" y="579" type="line"/>
    </contour>
  </outline>
</glyph>
<glyph name="acutecomb" format="2">
  <unicode hex="0301"/>
  <outline>
    <contour>
      <point x="113" y="537" type="line"/>
      <point x="15" y="583" type="line"/>
      <point x="165" y="743" type="line"/>
      <point x="293" y="687" type="line"/>
    </contour>
  </outline>
</glyph>
<glyph name="uni0302" format="2">
  <unicode hex="0302"/>
  <outline>
    <contour>
      <point x="74" y="550" type="line"/>
      <point x="0" y="645" type="line"/>
      <point x="178" y="766" type="line"/>
      <point x="355" y="645" type="line"/>
      <point x="280" y="550" type="line"/>
      <point x="158" y="648" type="line"/>
      <point x="196" y="648" type="line"/>
    </contour>
  </outline>
</glyph>
<glyph name="tildecomb" format="2">
  <unicode hex="0303"/>
  <outline>
    <contour>
      <point x="78" y="572" type="curve"/>
      <point x="0" y="642" type="line"/>
      <point x="11" y="691"/>
      <point x="68" y="740"/>
      <point x="132" y="740" type="curve" smooth="yes"/>
      <point x="201" y="740"/>
      <point x="204" y="686"/>
      <point x="256" y="686" type="curve" smooth="yes"/>
      <point x="287" y="686"/>
      <point x="311" y="708"/>
      <point x="333" y="740" type="curve"/>
      <point x="411" y="657" type="line"/>
      <point x="394" y="620"/>
      <point x="318" y="568"/>
      <point x="260" y="568" type="curve" smooth="yes"/>
      <point x="201" y="568"/>
      <point x="178" y="622"/>
      <point x="132" y="622" type="curve" smooth="yes"/>
      <point x="100" y="622"/>
      <point x="78" y="598"/>
    </contour>
  </outline>
</glyph>
<glyph name="uni0306" format="2">
  <unicode hex="0306"/>
  <outline>
    <contour>
      <point x="166" y="548" type="curve" smooth="yes"/>
      <point x="66" y="548"/>
      <point x="0" y="606"/>
      <point x="0" y="696" type="curve"/>
      <point x="130" y="696" type="line"/>
      <point x="130" y="664"/>
      <point x="144" y="642"/>
      <point x="166" y="642" type="curve" smooth="yes"/>
      <point x="188" y="642"/>
      <point x="202" y="664"/>
      <point x="202" y="696" type="curve"/>
      <point x="332" y="696" type="line"/>
      <point x="332" y="606"/>
      <point x="266" y="548"/>
    </contour>
  </outline>
</glyph>
<glyph name="uni0307" format="2">
  <unicode hex="0307"/>
  <outline>
    <contour>
      <point x="98" y="520" type="curve" smooth="yes"/>
      <point x="42" y="520"/>
      <point x="0" y="559"/>
      <point x="0" y="610" type="curve" smooth="yes"/>
      <point x="0" y="661"/>
      <point x="42" y="700"/>
      <point x="98" y="700" type="curve" smooth="yes"/>
      <point x="154" y="700"/>
      <point x="196" y="661"/>
      <point x="196" y="610" type="curve" smooth="yes"/>
      <point x="196" y="559"/>
      <point x="154" y="520"/>
    </contour>
  </outline>
</glyph>
<glyph name="uni0308" format="2">
  <unicode hex="0308"/>
  <outline>
    <contour>
      <point x="98" y="534" type="curve" smooth="yes"/>
      <point x="39" y="534"/>
      <point x="0" y="570"/>
      <point x="0" y="624" type="curve" smooth="yes"/>
      <point x="0" y="678"/>
      <point x="39" y="714"/>
      <point x="98" y="714" type="curve" smooth="yes"/>
      <point x="157" y="714"/>
      <point x="196" y="678"/>
      <point x="196" y="624" type="curve" smooth="yes"/>
      <point x="196" y="570"/>
      <point x="157" y="534"/>
    </contour>
    <contour>
      <point x="355" y="534" type="curve" smooth="yes"/>
      <point x="296" y="534"/>
      <point x="257" y="570"/>
      <point x="257" y="624" type="curve" smooth="yes"/>
      <point x="257" y="678"/>
      <point x="296" y="714"/>
      <point x="355" y="714" type="curve" smooth="yes"/>
      <point x="414" y="714"/>
      <point x="453" y="678"/>
      <point x="453" y="624" type="curve" smooth="yes"/>
      <point x="453" y="570"/>
      <point x="414" y="534"/>
    </contour>
  </outline>
</glyph>
<glyph name="uni030A" format="2">
  <unicode hex="030A"/>
  <outline>
    <contour>
      <point x="133" y="520" type="curve" smooth="yes"/>
      <point x="55" y="520"/>
      <point x="0" y="572"/>
      <point x="0" y="642" type="curve" smooth="yes"/>
      <point x="0" y="712"/>
      <point x="55" y="764"/>
      <point x="133" y="764" type="curve" smooth="yes"/>
      <point x="211" y="764"/>
      <point x="268" y="712"/>
      <point x="268" y="642" type="curve" smooth="yes"/>
      <point x="268" y="572"/>
      <point x="211" y="520"/>
    </contour>
    <contour>
      <point x="133" y="596" type="curve" smooth="yes"/>
      <point x="160" y="596"/>
      <point x="180" y="615"/>
      <point x="180" y="642" type="curve" smooth="yes"/>
      <point x="180" y="670"/>
      <point x="160" y="690"/>
      <point x="133" y="690" type="curve" smooth="yes"/>
      <point x="106" y="690"/>
      <point x="88" y="670"/>
      <point x="88" y="642" type="curve" smooth="yes"/>
      <point x="88" y="614"/>
      <point x="106" y="596"/>
    </contour>
  </outline>
</glyph>
<glyph name="uni030B" format="2">
  <unicode hex="030B"/>
  <outline>
    <contour>
      <point x="105" y="526" type="line"/>
      <point x="0" y="554" type="line"/>
      <point x="117" y="740" type="line"/>
      <point x="252" y="707" type="line"/>
    </contour>
    <contour>
      <point x="298" y="526" type="line"/>
      <point x="194" y="554" type="line"/>
      <point x="310" y="740" type="line"/>
      <point x="446" y="707" type="line"/>
    </contour>
  </outline>
</glyph>
<glyph name="uni030C" format="2">
  <unicode hex="030C"/>
  <outline>
    <contour>
      <point x="178" y="550" type="line"/>
      <point x="0" y="673" type="line"/>
      <point x="74" y="766" type="line"/>
      <point x="196" y="668" type="line"/>
      <point x="158" y="668" type="line"/>
      <point x="280" y="766" type="line"/>
      <point x="355" y="673" type="line"/>
    </contour>
  </outline>
</glyph>
<glyph name="uni0312" format="2">
  <unicode hex="0312"/>
  <outline>
    <contour>
      <point x="174" y="497" type="line"/>
      <point x="0" y="530" type="line"/>
      <point x="130" y="780" type="line"/>
      <point x="262" y="756" type="line"/>
    </contour>
  </outline>
</glyph>
<glyph name="uni0326" format="2">
  <unicode hex="0326"/>
  <outline>
    <contour>
      <point x="94" y="-202" type="line"/>
      <point x="0" y="-170" type="line"/>
      <point x="93" y="-21" type="line"/>
      <point x="218" y="-64" type="line"/>
    </contour>
  </outline>
</glyph>
<glyph name="uni0327" format="2">
  <unicode hex="0327"/>
  <outline>
    <contour>
      <point x="137" y="-214" type="curve" smooth="yes"/>
      <point x="91" y="-214"/>
      <point x="34" y="-204"/>
      <point x="0" y="-186" type="curve"/>
      <point x="30" y="-118" type="line"/>
      <point x="53" y="-129"/>
      <point x="87" y="-137"/>
      <point x="115" y="-137" type="curve" smooth="yes"/>
      <point x="139" y="-137"/>
      <point x="153" y="-124"/>
      <point x="153" y="-103" type="curve" smooth="yes"/>
      <point x="153" y="-85"/>
      <point x="139" y="-77"/>
      <point x="108" y="-77" type="curve" smooth="yes"/>
      <point x="90" y="-77"/>
      <point x="66" y="-76"/>
      <point x="42" y="-78" type="curve"/>
      <point x="108" y="74" type="line"/>
      <point x="201" y="70" type="line"/>
      <point x="144" y="-52" type="line"/>
      <point x="82" y="-36" type="line"/>
      <point x="108" y="-32"/>
      <point x="145" y="-25"/>
      <point x="182" y="-25" type="curve" smooth="yes"/>
      <point x="225" y="-25"/>
      <point x="256" y="-60"/>
      <point x="256" y="-106" type="curve" smooth="yes"/>
      <point x="256" y="-168"/>
      <point x="205" y="-214"/>
    </contour>
  </outline>
</glyph>
<glyph name="uni0328" format="2">
  <unicode hex="0328"/>
  <outline>
    <contour>
      <point x="115" y="-220" type="curve" smooth="yes"/>
      <point x="55" y="-220"/>
      <point x="0" y="-187"/>
      <point x="0" y="-120" type="curve" smooth="yes"/>
      <point x="0" y="-53"/>
      <point x="70" y="-11"/>
      <point x="140" y="25" type="curve"/>
      <point x="181" y="0" type="line"/>
      <point x="129" y="-30"/>
      <point x="104" y="-63"/>
      <point x="104" y="-92" type="curve" smooth="yes"/>
      <point x="104" y="-114"/>
      <point x="114" y="-126"/>
      <point x="136" y="-126" type="curve" smooth="yes"/>
      <point x="154" y="-126"/>
      <point x="172" y="-119"/>
      <point x="186" y="-106" type="curve"/>
      <point x="219" y="-180" type="line"/>
      <point x="204" y="-200"/>
      <point x="175" y="-220"/>
    </contour>
  </outline>
</glyph>
<glyph name="uni0394" format="2">
  <advance width="600"/>
  <unicode hex="0394"/>
  <outline>
    <contour>
      <point x="18" y="0" type="line"/>
      <point x="581" y="0" type="line"/>
      <point x="300" y="800" type="line"/>
    </contour>
    <contour>
      <point x="202" y="127" type="line"/>
      <point x="300" y="460" type="line"/>
      <point x="398" y="127" type="line"/>
    </contour>
  </outline>
</glyph>
<glyph name="uni03A9" format="2">
  <advance width="600"/>
  <unicode hex="03A9"/>
  <outline>
    <contour>
      <point x="66" y="0" type="line"/>
      <point x="280" y="0" type="line"/>
      <point x="280" y="112" type="line"/>
      <point x="235" y="150"/>
      <point x="207" y="206"/>
      <point x="207" y="260" type="curve" smooth="yes"/>
      <point x="207" y="327"/>
      <point x="246" y="376"/>
      <point x="300" y="376" type="curve" smooth="yes"/>
      <point x="354" y="376"/>
      <point x="393" y="327"/>
      <point x="393" y="260" type="curve" smooth="yes"/>
      <point x="393" y="206"/>
      <point x="365" y="150"/>
      <point x="320" y="112" type="curve"/>
      <point x="320" y="0" type="line"/>
      <point x="534" y="0" type="line"/>
      <point x="534" y="149" type="line"/>
      <point x="446" y="133" type="line"/>
      <point x="506" y="193"/>
      <point x="530" y="248"/>
      <point x="530" y="317" type="curve" smooth="yes"/>
      <point x="530" y="455"/>
      <point x="431" y="559"/>
      <point x="300" y="559" type="curve" smooth="yes"/>
      <point x="169" y="559"/>
      <point x="70" y="455"/>
      <point x="70" y="317" type="curve" smooth="yes"/>
      <point x="70" y="248"/>
      <point x="94" y="193"/>
      <point x="154" y="133" type="curve"/>
      <point x="66" y="149" type="line"/>
    </contour>
  </outline>
</glyph>
<glyph name="uni0403" format="2">
  <advance width="528"/>
  <unicode hex="0403"/>
  <outline>
    <contour>
      <point x="80" y="700" type="line"/>
      <point x="518" y="700" type="line"/>
      <point x="518" y="526" type="line"/>
      <point x="274" y="526" type="line"/>
      <point x="274" y="0" type="line"/>
      <point x="80" y="0" type="line"/>
    </contour>
    <contour>
      <point x="479" y="928" type="line"/>
      <point x="299" y="778" type="line"/>
      <point x="202" y="824" type="line"/>
      <point x="352" y="984" type="line"/>
    </contour>
  </outline>
</glyph>
<glyph name="uni040C" format="2">
  <advance width="740"/>
  <unicode hex="040C"/>
  <outline>
    <contour>
      <point x="72" y="700" type="line"/>
      <point x="274" y="700" type="line"/>
      <point x="274" y="0" type="line"/>
      <point x="72" y="0" type="line"/>
    </contour>
    <contour>
      <point x="501" y="700" type="line"/>
      <point x="728" y="700" type="line"/>
      <point x="450" y="372" type="line"/>
      <point x="744" y="0" type="line"/>
      <point x="508" y="0" type="line"/>
      <point x="218" y="366" type="line"/>
    </contour>
    <contour>
      <point x="580" y="928" type="line"/>
      <point x="400" y="778" type="line"/>
      <point x="302" y="824" type="line"/>
      <point x="452" y="984" type="line"/>
    </contour>
  </outline>
</glyph>
<glyph name="uni040D" format="2">
  <advance width="799"/>
  <unicode hex="040D"/>
  <outline>
    <contour>
      <point x="722" y="500" type="line"/>
      <point x="72" y="-35" type="line"/>
      <point x="77" y="200" type="line"/>
      <point x="728" y="735" type="line"/>
    </contour>
    <contour>
      <point x="258" y="700" type="line"/>
      <point x="258" y="148" type="line"/>
      <point x="72" y="-35" type="line"/>
      <point x="72" y="700" type="line"/>
    </contour>
    <contour>
      <point x="728" y="735" type="line"/>
      <point x="728" y="0" type="line"/>
      <point x="541" y="0" type="line"/>
      <point x="541" y="544" type="line"/>
    </contour>
    <contour>
      <point x="247" y="912" type="line"/>
      <point x="374" y="968" type="line"/>
      <point x="524" y="808" type="line"/>
      <point x="427" y="762" type="line"/>
    </contour>
  </outline>
</glyph>
<glyph name="uni040E" format="2">
  <advance width="617"/>
  <unicode hex="040E"/>
  <outline>
    <contour>
      <point x="630" y="700" type="line"/>
      <point x="301" y="0" type="line"/>
      <point x="112" y="0" type="line"/>
      <point x="208" y="215" type="line"/>
      <point x="-12" y="700" type="line"/>
      <point x="194" y="700" type="line"/>
      <point x="338" y="299" type="line"/>
      <point x="260" y="300" type="line"/>
      <point x="438" y="700" type="line"/>
    </contour>
    <contour>
      <point x="144" y="926" type="curve"/>
      <point x="251" y="926" type="line"/>
      <point x="251" y="888"/>
      <point x="280" y="872"/>
      <point x="310" y="872" type="curve" smooth="yes"/>
      <point x="340" y="872"/>
      <point x="368" y="888"/>
      <point x="368" y="926" type="curve"/>
      <point x="476" y="926" type="line"/>
      <point x="476" y="840"/>
      <point x="415" y="778"/>
      <point x="310" y="778" type="curve" smooth="yes"/>
      <point x="205" y="778"/>
      <point x="144" y="840"/>
    </contour>
  </outline>
</glyph>
<glyph name="uni0411" format="2">
  <advance width="710"/>
  <unicode hex="0411"/>
  <outline>
    <contour>
      <point x="127" y="287" type="line"/>
      <point x="127" y="440" type="line"/>
      <point x="432" y="440" type="line" smooth="yes"/>
      <point x="567" y="440"/>
      <point x="670" y="351"/>
      <point x="670" y="222" type="curve" smooth="yes"/>
      <point x="670" y="93"/>
      <point x="567" y="0"/>
      <point x="432" y="0" type="curve" smooth="yes"/>
      <point x="127" y="0" type="line"/>
      <point x="127" y="157" type="line"/>
      <point x="384" y="157" type="line" smooth="yes"/>
      <point x="442" y="157"/>
      <point x="472" y="176"/>
      <point x="472" y="222" type="curve" smooth="yes"/>
      <point x="472" y="268"/>
      <point x="442" y="287"/>
      <point x="384" y="287" type="curve" smooth="yes"/>
    </contour>
    <contour>
      <point x="80" y="700" type="line"/>
      <point x="618" y="700" type="line"/>
      <point x="618" y="543" type="line"/>
      <point x="278" y="543" type="line"/>
      <point x="278" y="0" type="line"/>
      <point x="80" y="0" type="line"/>
    </contour>
  </outline>
</glyph>
<glyph name="uni0414" format="2">
  <advance width="908"/>
  <unicode hex="0414"/>
  <outline>
    <contour>
      <point x="452" y="396" type="line"/>
      <point x="322" y="30" type="line"/>
      <point x="94" y="30" type="line"/>
      <point x="452" y="735" type="line"/>
      <point x="810" y="30" type="line"/>
      <point x="582" y="30" type="line"/>
    </contour>
    <contour>
      <point x="667" y="0" type="line"/>
      <point x="237" y="0" type="line"/>
      <point x="237" y="-110" type="line"/>
      <point x="40" y="-110" type="line"/>
      <point x="40" y="166" type="line"/>
      <point x="864" y="166" type="line"/>
      <point x="864" y="-110" type="line"/>
      <point x="667" y="-110" type="line"/>
    </contour>
  </outline>
</glyph>
<glyph name="uni0416" format="2">
  <advance width="1142"/>
  <unicode hex="0416"/>
  <outline>
    <contour>
      <point x="238" y="700" type="line"/>
      <point x="524" y="370" type="line"/>
      <point x="224" y="0" type="line"/>
      <point x="-3" y="0" type="line"/>
      <point x="298" y="372" type="line"/>
      <point x="12" y="700" type="line"/>
    </contour>
    <contour>
      <point x="471" y="700" type="line"/>
      <point x="674" y="700" type="line"/>
      <point x="674" y="0" type="line"/>
      <point x="471" y="0" type="line"/>
    </contour>
    <contour>
      <point x="896" y="700" type="line"/>
      <point x="1131" y="700" type="line"/>
      <point x="844" y="372" type="line"/>
      <point x="1146" y="0" type="line"/>
      <point x="911" y="0" type="line"/>
      <point x="621" y="370" type="line"/>
    </contour>
  </outline>
</glyph>
<glyph name="uni0417" format="2">
  <advance width="687"/>
  <unicode hex="0417"/>
  <outline>
    <contour>
      <point x="312" y="337" type="curve"/>
      <point x="312" y="420" type="line"/>
      <point x="406" y="420"/>
      <point x="451" y="450"/>
      <point x="451" y="496" type="curve" smooth="yes"/>
      <point x="451" y="534"/>
      <point x="418" y="562"/>
      <point x="358" y="562" type="curve" smooth="yes"/>
      <point x="290" y="562"/>
      <point x="252" y="530"/>
      <point x="252" y="486" type="curve"/>
      <point x="74" y="486" type="line"/>
      <point x="74" y="616"/>
      <point x="170" y="714"/>
      <point x="358" y="714" type="curve" smooth="yes"/>
      <point x="547" y="714"/>
      <point x="642" y="629"/>
      <point x="642" y="518" type="curve" smooth="yes"/>
      <point x="642" y="390"/>
      <point x="492" y="337"/>
    </contour>
    <contour>
      <point x="366" y="-18" type="curve" smooth="yes"/>
      <point x="140" y="-18"/>
      <point x="44" y="104"/>
      <point x="44" y="234" type="curve"/>
      <point x="236" y="234" type="line"/>
      <point x="238" y="164"/>
      <point x="292" y="135"/>
      <point x="358" y="135" type="curve" smooth="yes"/>
      <point x="424" y="135"/>
      <point x="471" y="156"/>
      <point x="471" y="212" type="curve" smooth="yes"/>
      <point x="471" y="262"/>
      <point x="430" y="300"/>
      <point x="312" y="300" type="curve"/>
      <point x="312" y="396" type="line"/>
      <point x="516" y="396"/>
      <point x="662" y="336"/>
      <point x="662" y="193" type="curve" smooth="yes"/>
      <point x="662" y="70"/>
      <point x="566" y="-18"/>
    </contour>
  </outline>
</glyph>
<glyph name="uni0419" format="2">
  <advance width="799"/>
  <unicode hex="0419"/>
  <outline>
    <contour>
      <point x="722" y="500" type="line"/>
      <point x="72" y="-35" type="line"/>
      <point x="77" y="200" type="line"/>
      <point x="728" y="735" type="line"/>
    </contour>
    <contour>
      <point x="258" y="700" type="line"/>
      <point x="258" y="148" type="line"/>
      <point x="72" y="-35" type="line"/>
      <point x="72" y="700" type="line"/>
    </contour>
    <contour>
      <point x="728" y="735" type="line"/>
      <point x="728" y="0" type="line"/>
      <point x="541" y="0" type="line"/>
      <point x="541" y="544" type="line"/>
    </contour>
    <contour>
      <point x="257" y="922" type="curve"/>
      <point x="364" y="922" type="line"/>
      <point x="364" y="884"/>
      <point x="393" y="866"/>
      <point x="423" y="866" type="curve" smooth="yes"/>
      <point x="453" y="866"/>
      <point x="482" y="884"/>
      <point x="482" y="922" type="curve"/>
      <point x="590" y="922" type="line"/>
      <point x="590" y="836"/>
      <point x="528" y="773"/>
      <point x="423" y="773" type="curve" smooth="yes"/>
      <point x="318" y="773"/>
      <point x="257" y="836"/>
    </contour>
  </outline>
</glyph>
<glyph name="uni041B" format="2">
  <advance width="804"/>
  <unicode hex="041B"/>
  <outline>
    <contour>
      <point x="724" y="700" type="line"/>
      <point x="724" y="0" type="line"/>
      <point x="526" y="0" type="line"/>
      <point x="526" y="526" type="line"/>
      <point x="317" y="526" type="line"/>
      <point x="317" y="313" type="line" smooth="yes"/>
      <point x="317" y="95"/>
      <point x="230" y="0"/>
      <point x="10" y="0" type="curve"/>
      <point x="10" y="164" type="line"/>
      <point x="78" y="164"/>
      <point x="120" y="212"/>
      <point x="120" y="294" type="curve" smooth="yes"/>
      <point x="120" y="700" type="line"/>
    </contour>
  </outline>
</glyph>
<glyph name="uni041C" format="2">
  <advance width="915"/>
  <unicode hex="041C"/>
  <outline>
    <contour>
      <point x="278" y="321" type="line"/>
      <point x="238" y="0" type="line"/>
      <point x="32" y="0" type="line"/>
      <point x="154" y="735" type="line"/>
      <point x="458" y="333" type="line"/>
      <point x="762" y="735" type="line"/>
      <point x="884" y="0" type="line"/>
      <point x="677" y="0" type="line"/>
      <point x="638" y="321" type="line"/>
      <point x="458" y="65" type="line"/>
    </contour>
  </outline>
</glyph>
<glyph name="uni041D" format="2">
  <advance width="808"/>
  <unicode hex="041D"/>
  <outline>
    <contour>
      <point x="119" y="279" type="line"/>
      <point x="119" y="452" type="line"/>
      <point x="664" y="452" type="line"/>
      <point x="664" y="279" type="line"/>
    </contour>
    <contour>
      <point x="542" y="700" type="line"/>
      <point x="736" y="700" type="line"/>
      <point x="736" y="0" type="line"/>
      <point x="542" y="0" type="line"/>
    </contour>
    <contour>
      <point x="72" y="700" type="line"/>
      <point x="266" y="700" type="line"/>
      <point x="266" y="0" type="line"/>
      <point x="72" y="0" type="line"/>
    </contour>
  </outline>
</glyph>
<glyph name="uni041F" format="2">
  <advance width="788"/>
  <unicode hex="041F"/>
  <outline>
    <contour>
      <point x="510" y="526" type="line"/>
      <point x="278" y="526" type="line"/>
      <point x="278" y="0" type="line"/>
      <point x="80" y="0" type="line"/>
      <point x="80" y="700" type="line"/>
      <point x="708" y="700" type="line"/>
      <point x="708" y="0" type="line"/>
      <point x="510" y="0" type="line"/>
    </contour>
  </outline>
</glyph>
<glyph name="uni0422" format="2">
  <advance width="590"/>
  <unicode hex="0422"/>
  <outline>
    <contour>
      <point x="2" y="526" type="line"/>
      <point x="2" y="700" type="line"/>
      <point x="589" y="700" type="line"/>
      <point x="589" y="526" type="line"/>
      <point x="393" y="526" type="line"/>
      <point x="393" y="0" type="line"/>
      <point x="198" y="0" type="line"/>
      <point x="198" y="526" type="line"/>
    </contour>
  </outline>
</glyph>
<glyph name="uni0423" format="2">
  <advance width="634"/>
  <unicode hex="0423"/>
  <outline>
    <contour>
      <point x="646" y="700" type="line"/>
      <point x="317" y="0" type="line"/>
      <point x="120" y="0" type="line"/>
      <point x="216" y="215" type="line"/>
      <point x="-12" y="700" type="line"/>
      <point x="202" y="700" type="line"/>
      <point x="346" y="299" type="line"/>
      <point x="268" y="300" type="line"/>
      <point x="446" y="700" type="line"/>
    </contour>
  </outline>
</glyph>
<glyph name="uni0424" format="2">
  <advance width="978"/>
  <unicode hex="0424"/>
  <outline>
    <contour>
      <point x="390" y="700" type="line"/>
      <point x="588" y="700" type="line"/>
      <point x="588" y="0" type="line"/>
      <point x="390" y="0" type="line"/>
    </contour>
    <contour>
      <point x="739" y="350" type="curve" smooth="yes"/>
      <point x="739" y="432"/>
      <point x="676" y="454"/>
      <point x="570" y="454" type="curve" smooth="yes"/>
      <point x="409" y="454" type="line" smooth="yes"/>
      <point x="303" y="454"/>
      <point x="238" y="432"/>
      <point x="238" y="350" type="curve" smooth="yes"/>
      <point x="238" y="268"/>
      <point x="303" y="246"/>
      <point x="409" y="246" type="curve" smooth="yes"/>
      <point x="570" y="246" type="line" smooth="yes"/>
      <point x="676" y="246"/>
      <point x="739" y="268"/>
    </contour>
    <contour>
      <point x="938" y="350" type="curve" smooth="yes"/>
      <point x="938" y="181"/>
      <point x="794" y="80"/>
      <point x="610" y="80" type="curve" smooth="yes"/>
      <point x="368" y="80" type="line" smooth="yes"/>
      <point x="184" y="80"/>
      <point x="40" y="181"/>
      <point x="40" y="350" type="curve" smooth="yes"/>
      <point x="40" y="519"/>
      <point x="184" y="620"/>
      <point x="368" y="620" type="curve" smooth="yes"/>
      <point x="610" y="620" type="line" smooth="yes"/>
      <point x="794" y="620"/>
      <point x="938" y="519"/>
    </contour>
  </outline>
</glyph>
<glyph name="uni0426" format="2">
  <advance width="890"/>
  <unicode hex="0426"/>
  <outline>
    <contour>
      <point x="270" y="174" type="line"/>
      <point x="542" y="174" type="line"/>
      <point x="542" y="700" type="line"/>
      <point x="740" y="700" type="line"/>
      <point x="740" y="174" type="line"/>
      <point x="858" y="174" type="line"/>
      <point x="858" y="-142" type="line"/>
      <point x="670" y="-142" type="line"/>
      <point x="670" y="0" type="line"/>
      <point x="72" y="0" type="line"/>
      <point x="72" y="700" type="line"/>
      <point x="270" y="700" type="line"/>
    </contour>
  </outline>
</glyph>
<glyph name="uni0427" format="2">
  <advance width="749"/>
  <unicode hex="0427"/>
  <outline>
    <contour>
      <point x="314" y="203" type="line"/>
      <point x="380" y="376" type="line"/>
      <point x="532" y="376" type="line"/>
      <point x="532" y="203" type="line"/>
    </contour>
    <contour>
      <point x="466" y="700" type="line"/>
      <point x="669" y="700" type="line"/>
      <point x="669" y="0" type="line"/>
      <point x="466" y="0" type="line"/>
    </contour>
    <contour>
      <point x="270" y="700" type="line"/>
      <point x="270" y="482" type="line" smooth="yes"/>
      <point x="270" y="408"/>
      <point x="318" y="376"/>
      <point x="380" y="376" type="curve"/>
      <point x="314" y="203" type="line"/>
      <point x="158" y="203"/>
      <point x="72" y="318"/>
      <point x="72" y="453" type="curve" smooth="yes"/>
      <point x="72" y="700" type="line"/>
    </contour>
  </outline>
</glyph>
<glyph name="uni0428" format="2">
  <advance width="1110"/>
  <unicode hex="0428"/>
  <outline>
    <contour>
      <point x="836" y="174" type="line"/>
      <point x="836" y="700" type="line"/>
      <point x="1031" y="700" type="line"/>
      <point x="1031" y="0" type="line"/>
      <point x="80" y="0" type="line"/>
      <point x="80" y="700" type="line"/>
      <point x="274" y="700" type="line"/>
      <point x="274" y="174" type="line"/>
      <point x="462" y="174" type="line"/>
      <point x="462" y="700" type="line"/>
      <point x="648" y="700" type="line"/>
      <point x="648" y="174" type="line"/>
    </contour>
  </outline>
</glyph>
<glyph name="uni0429" format="2">
  <advance width="1188"/>
  <unicode hex="0429"/>
  <outline>
    <contour>
      <point x="836" y="174" type="line"/>
      <point x="836" y="700" type="line"/>
      <point x="1031" y="700" type="line"/>
      <point x="1031" y="174" type="line"/>
      <point x="1148" y="174" type="line"/>
      <point x="1148" y="-142" type="line"/>
      <point x="960" y="-142" type="line"/>
      <point x="960" y="0" type="line"/>
      <point x="80" y="0" type="line"/>
      <point x="80" y="700" type="line"/>
      <point x="274" y="700" type="line"/>
      <point x="274" y="174" type="line"/>
      <point x="462" y="174" type="line"/>
      <point x="462" y="700" type="line"/>
      <point x="648" y="700" type="line"/>
      <point x="648" y="174" type="line"/>
    </contour>
  </outline>
</glyph>
<glyph name="uni042A" format="2">
  <advance width="759"/>
  <unicode hex="042A"/>
  <outline>
    <contour>
      <point x="310" y="312" type="line"/>
      <point x="310" y="469" type="line"/>
      <point x="445" y="469" type="line" smooth="yes"/>
      <point x="637" y="469"/>
      <point x="728" y="380"/>
      <point x="728" y="234" type="curve" smooth="yes"/>
      <point x="728" y="88"/>
      <point x="637" y="0"/>
      <point x="445" y="0" type="curve" smooth="yes"/>
      <point x="310" y="0" type="line"/>
      <point x="310" y="157" type="line"/>
      <point x="445" y="157" type="line" smooth="yes"/>
      <point x="507" y="157"/>
      <point x="541" y="184"/>
      <point x="541" y="234" type="curve" smooth="yes"/>
      <point x="541" y="284"/>
      <point x="507" y="312"/>
      <point x="445" y="312" type="curve" smooth="yes"/>
    </contour>
    <contour>
      <point x="190" y="528" type="line"/>
      <point x="10" y="528" type="line"/>
      <point x="10" y="700" type="line"/>
      <point x="384" y="700" type="line"/>
      <point x="384" y="0" type="line"/>
      <point x="190" y="0" type="line"/>
    </contour>
  </outline>
</glyph>
<glyph name="uni042B" format="2">
  <advance width="951"/>
  <unicode hex="042B"/>
  <outline>
    <contour>
      <point x="681" y="700" type="line"/>
      <point x="880" y="700" type="line"/>
      <point x="880" y="0" type="line"/>
      <point x="681" y="0" type="line"/>
    </contour>
    <contour>
      <point x="72" y="700" type="line"/>
      <point x="266" y="700" type="line"/>
      <point x="266" y="0" type="line"/>
      <point x="72" y="0" type="line"/>
    </contour>
    <contour>
      <point x="196" y="312" type="line"/>
      <point x="196" y="469" type="line"/>
      <point x="331" y="469" type="line" smooth="yes"/>
      <point x="523" y="469"/>
      <point x="614" y="380"/>
      <point x="614" y="234" type="curve" smooth="yes"/>
      <point x="614" y="88"/>
      <point x="523" y="0"/>
      <point x="331" y="0" type="curve" smooth="yes"/>
      <point x="196" y="0" type="line"/>
      <point x="196" y="157" type="line"/>
      <point x="331" y="157" type="line" smooth="yes"/>
      <point x="393" y="157"/>
      <point x="427" y="184"/>
      <point x="427" y="234" type="curve" smooth="yes"/>
      <point x="427" y="284"/>
      <point x="393" y="312"/>
      <point x="331" y="312" type="curve" smooth="yes"/>
    </contour>
  </outline>
</glyph>
<glyph name="uni042D" format="2">
  <advance width="705"/>
  <unicode hex="042D"/>
  <outline>
    <contour>
      <point x="138" y="274" type="line"/>
      <point x="138" y="426" type="line"/>
      <point x="496" y="426" type="line"/>
      <point x="496" y="274" type="line"/>
    </contour>
    <contour>
      <point x="484" y="350" type="curve" smooth="yes"/>
      <point x="484" y="468"/>
      <point x="372" y="542"/>
      <point x="266" y="542" type="curve" smooth="yes"/>
      <point x="167" y="542"/>
      <point x="99" y="499"/>
      <point x="62" y="469" type="curve"/>
      <point x="62" y="650" type="line"/>
      <point x="118" y="690"/>
      <point x="176" y="718"/>
      <point x="278" y="718" type="curve" smooth="yes"/>
      <point x="512" y="718"/>
      <point x="674" y="571"/>
      <point x="674" y="350" type="curve" smooth="yes"/>
      <point x="674" y="129"/>
      <point x="512" y="-18"/>
      <point x="278" y="-18" type="curve" smooth="yes"/>
      <point x="176" y="-18"/>
      <point x="118" y="10"/>
      <point x="62" y="50" type="curve"/>
      <point x="62" y="231" type="line"/>
      <point x="99" y="201"/>
      <point x="167" y="158"/>
      <point x="266" y="158" type="curve" smooth="yes"/>
      <point x="372" y="158"/>
      <point x="484" y="232"/>
    </contour>
  </outline>
</glyph>
